<mxfile host="app.diagrams.net" modified="2021-02-25T13:00:05.925Z" agent="5.0 (Macintosh; Intel Mac OS X 10_15_6) AppleWebKit/537.36 (KHTML, like Gecko) Chrome/88.0.4324.192 Safari/537.36" etag="ynP382rqWQ5RlQY8fipU" version="14.4.2" type="github" pages="3">
  <diagram id="IwGoDYMSzOG72_LcMlLt" name="[0] lab topo">
    <mxGraphModel dx="2052" dy="1149" grid="0" gridSize="1" guides="1" tooltips="1" connect="1" arrows="1" fold="1" page="1" pageScale="1" pageWidth="827" pageHeight="1169" background="#4D5766" math="0" shadow="0">
      <root>
        <mxCell id="0" />
        <mxCell id="1" parent="0" />
        <mxCell id="FWv102F0ExP2MRHrXFn3-24" value="" style="rounded=0;whiteSpace=wrap;html=1;fontFamily=Manrope;fontSize=8;strokeColor=none;fontSource=https%3A%2F%2Ffonts.googleapis.com%2Fcss%3Ffamily%3DManrope;fillColor=#BEC8D2;" parent="1" vertex="1">
          <mxGeometry x="416.5" y="352" width="323" height="183.62" as="geometry" />
        </mxCell>
        <mxCell id="PsoP77SgcHK2ghwCifCZ-1" value="" style="rounded=0;whiteSpace=wrap;html=1;fontFamily=Manrope;fontSize=8;strokeColor=none;fillColor=#DDE9F5;fontSource=https%3A%2F%2Ffonts.googleapis.com%2Fcss%3Ffamily%3DManrope;" parent="1" vertex="1">
          <mxGeometry x="97" y="869.5" width="323" height="41" as="geometry" />
        </mxCell>
        <mxCell id="PsoP77SgcHK2ghwCifCZ-2" value="" style="rounded=0;whiteSpace=wrap;html=1;fontFamily=Manrope;fontSize=8;strokeColor=none;fillColor=#DDE9F5;fontSource=https%3A%2F%2Ffonts.googleapis.com%2Fcss%3Ffamily%3DManrope;" parent="1" vertex="1">
          <mxGeometry x="97" y="923" width="323" height="42" as="geometry" />
        </mxCell>
        <mxCell id="PsoP77SgcHK2ghwCifCZ-3" style="rounded=0;orthogonalLoop=1;jettySize=auto;html=1;exitX=0.5;exitY=0;exitDx=0;exitDy=0;entryX=0.5;entryY=1;entryDx=0;entryDy=0;startSize=6;endArrow=none;endFill=0;endSize=2;fontFamily=Manrope;fontSize=8;strokeColor=#98A2AE;fontSource=https%3A%2F%2Ffonts.googleapis.com%2Fcss%3Ffamily%3DManrope;" parent="1" edge="1">
          <mxGeometry relative="1" as="geometry">
            <mxPoint x="145" y="929" as="sourcePoint" />
            <mxPoint x="167" y="905" as="targetPoint" />
          </mxGeometry>
        </mxCell>
        <mxCell id="PsoP77SgcHK2ghwCifCZ-4" style="rounded=0;orthogonalLoop=1;jettySize=auto;html=1;exitX=0.5;exitY=0;exitDx=0;exitDy=0;entryX=0.5;entryY=1;entryDx=0;entryDy=0;startSize=6;endArrow=none;endFill=0;endSize=2;fontFamily=Manrope;fontSize=8;strokeColor=#98A2AE;fontSource=https%3A%2F%2Ffonts.googleapis.com%2Fcss%3Ffamily%3DManrope;" parent="1" edge="1">
          <mxGeometry relative="1" as="geometry">
            <mxPoint x="145" y="929" as="sourcePoint" />
            <mxPoint x="225" y="905" as="targetPoint" />
          </mxGeometry>
        </mxCell>
        <mxCell id="PsoP77SgcHK2ghwCifCZ-5" style="rounded=0;orthogonalLoop=1;jettySize=auto;html=1;exitX=0.5;exitY=0;exitDx=0;exitDy=0;entryX=0.5;entryY=1;entryDx=0;entryDy=0;startSize=6;endArrow=none;endFill=0;endSize=2;fontFamily=Manrope;fontSize=8;strokeColor=#98A2AE;fontSource=https%3A%2F%2Ffonts.googleapis.com%2Fcss%3Ffamily%3DManrope;" parent="1" edge="1">
          <mxGeometry relative="1" as="geometry">
            <mxPoint x="247" y="929" as="sourcePoint" />
            <mxPoint x="167" y="905" as="targetPoint" />
          </mxGeometry>
        </mxCell>
        <mxCell id="PsoP77SgcHK2ghwCifCZ-6" style="rounded=0;orthogonalLoop=1;jettySize=auto;html=1;exitX=0.5;exitY=0;exitDx=0;exitDy=0;entryX=0.5;entryY=1;entryDx=0;entryDy=0;startSize=6;endArrow=none;endFill=0;endSize=2;fontFamily=Manrope;fontSize=8;strokeColor=#98A2AE;fontSource=https%3A%2F%2Ffonts.googleapis.com%2Fcss%3Ffamily%3DManrope;" parent="1" edge="1">
          <mxGeometry relative="1" as="geometry">
            <mxPoint x="247" y="929" as="sourcePoint" />
            <mxPoint x="225" y="905" as="targetPoint" />
          </mxGeometry>
        </mxCell>
        <mxCell id="PsoP77SgcHK2ghwCifCZ-7" value="" style="rounded=0;whiteSpace=wrap;html=1;fontFamily=Manrope;fontSize=8;strokeColor=none;fillColor=#DDE9F5;fontSource=https%3A%2F%2Ffonts.googleapis.com%2Fcss%3Ffamily%3DManrope;" parent="1" vertex="1">
          <mxGeometry x="84" y="265" width="144" height="96" as="geometry" />
        </mxCell>
        <mxCell id="PsoP77SgcHK2ghwCifCZ-8" style="rounded=0;orthogonalLoop=1;jettySize=auto;html=1;exitX=0.5;exitY=0;exitDx=0;exitDy=0;entryX=0.5;entryY=1;entryDx=0;entryDy=0;startSize=6;endArrow=none;endFill=0;endSize=2;fontFamily=Manrope;fontSize=8;strokeColor=#98A2AE;fontSource=https%3A%2F%2Ffonts.googleapis.com%2Fcss%3Ffamily%3DManrope;" parent="1" edge="1">
          <mxGeometry relative="1" as="geometry">
            <mxPoint x="167" y="875" as="sourcePoint" />
            <mxPoint x="237" y="849" as="targetPoint" />
          </mxGeometry>
        </mxCell>
        <mxCell id="PsoP77SgcHK2ghwCifCZ-9" style="rounded=0;orthogonalLoop=1;jettySize=auto;html=1;exitX=0.5;exitY=0;exitDx=0;exitDy=0;entryX=0.5;entryY=1;entryDx=0;entryDy=0;startSize=6;endArrow=none;endFill=0;endSize=2;fontFamily=Manrope;fontSize=8;strokeColor=#98A2AE;fontSource=https%3A%2F%2Ffonts.googleapis.com%2Fcss%3Ffamily%3DManrope;" parent="1" edge="1">
          <mxGeometry relative="1" as="geometry">
            <mxPoint x="225" y="875" as="sourcePoint" />
            <mxPoint x="301" y="849" as="targetPoint" />
          </mxGeometry>
        </mxCell>
        <mxCell id="PsoP77SgcHK2ghwCifCZ-10" style="rounded=0;orthogonalLoop=1;jettySize=auto;html=1;exitX=0.5;exitY=0;exitDx=0;exitDy=0;entryX=0.5;entryY=1;entryDx=0;entryDy=0;startSize=6;endArrow=none;endFill=0;endSize=2;fontFamily=Manrope;fontSize=8;strokeColor=#98A2AE;fontSource=https%3A%2F%2Ffonts.googleapis.com%2Fcss%3Ffamily%3DManrope;" parent="1" edge="1">
          <mxGeometry relative="1" as="geometry">
            <mxPoint x="294" y="929" as="sourcePoint" />
            <mxPoint x="316" y="905" as="targetPoint" />
          </mxGeometry>
        </mxCell>
        <mxCell id="PsoP77SgcHK2ghwCifCZ-11" style="rounded=0;orthogonalLoop=1;jettySize=auto;html=1;exitX=0.5;exitY=0;exitDx=0;exitDy=0;entryX=0.5;entryY=1;entryDx=0;entryDy=0;startSize=6;endArrow=none;endFill=0;endSize=2;fontFamily=Manrope;fontSize=8;strokeColor=#98A2AE;fontSource=https%3A%2F%2Ffonts.googleapis.com%2Fcss%3Ffamily%3DManrope;" parent="1" edge="1">
          <mxGeometry relative="1" as="geometry">
            <mxPoint x="294" y="929" as="sourcePoint" />
            <mxPoint x="374" y="905" as="targetPoint" />
          </mxGeometry>
        </mxCell>
        <mxCell id="PsoP77SgcHK2ghwCifCZ-12" style="rounded=0;orthogonalLoop=1;jettySize=auto;html=1;exitX=0.5;exitY=0;exitDx=0;exitDy=0;entryX=0.5;entryY=1;entryDx=0;entryDy=0;startSize=6;endArrow=none;endFill=0;endSize=2;fontFamily=Manrope;fontSize=8;strokeColor=#98A2AE;fontSource=https%3A%2F%2Ffonts.googleapis.com%2Fcss%3Ffamily%3DManrope;" parent="1" edge="1">
          <mxGeometry relative="1" as="geometry">
            <mxPoint x="396" y="929" as="sourcePoint" />
            <mxPoint x="316" y="905" as="targetPoint" />
          </mxGeometry>
        </mxCell>
        <mxCell id="PsoP77SgcHK2ghwCifCZ-13" style="rounded=0;orthogonalLoop=1;jettySize=auto;html=1;exitX=0.5;exitY=0;exitDx=0;exitDy=0;entryX=0.5;entryY=1;entryDx=0;entryDy=0;startSize=6;endArrow=none;endFill=0;endSize=2;fontFamily=Manrope;fontSize=8;strokeColor=#98A2AE;fontSource=https%3A%2F%2Ffonts.googleapis.com%2Fcss%3Ffamily%3DManrope;" parent="1" edge="1">
          <mxGeometry relative="1" as="geometry">
            <mxPoint x="396" y="929" as="sourcePoint" />
            <mxPoint x="374" y="905" as="targetPoint" />
          </mxGeometry>
        </mxCell>
        <mxCell id="PsoP77SgcHK2ghwCifCZ-14" style="rounded=0;orthogonalLoop=1;jettySize=auto;html=1;exitX=0.5;exitY=0;exitDx=0;exitDy=0;entryX=0.5;entryY=1;entryDx=0;entryDy=0;startSize=6;endArrow=none;endFill=0;endSize=2;fontFamily=Manrope;fontSize=8;strokeColor=#98A2AE;fontSource=https%3A%2F%2Ffonts.googleapis.com%2Fcss%3Ffamily%3DManrope;" parent="1" edge="1">
          <mxGeometry relative="1" as="geometry">
            <mxPoint x="316" y="875" as="sourcePoint" />
            <mxPoint x="237" y="849" as="targetPoint" />
          </mxGeometry>
        </mxCell>
        <mxCell id="PsoP77SgcHK2ghwCifCZ-15" style="rounded=0;orthogonalLoop=1;jettySize=auto;html=1;exitX=0.5;exitY=0;exitDx=0;exitDy=0;entryX=0.5;entryY=1;entryDx=0;entryDy=0;startSize=6;endArrow=none;endFill=0;endSize=2;fontFamily=Manrope;fontSize=8;strokeColor=#98A2AE;fontSource=https%3A%2F%2Ffonts.googleapis.com%2Fcss%3Ffamily%3DManrope;" parent="1" edge="1">
          <mxGeometry relative="1" as="geometry">
            <mxPoint x="374" y="875" as="sourcePoint" />
            <mxPoint x="301" y="849" as="targetPoint" />
          </mxGeometry>
        </mxCell>
        <mxCell id="PsoP77SgcHK2ghwCifCZ-16" value="node1" style="text;html=1;align=left;verticalAlign=middle;resizable=0;points=[];autosize=1;fontSize=10;fontFamily=Manrope;rotation=0;fontSource=https%3A%2F%2Ffonts.googleapis.com%2Fcss%3Ffamily%3DManrope;fontColor=#001135;fontStyle=1" parent="1" vertex="1">
          <mxGeometry x="86" y="272" width="38" height="16" as="geometry" />
        </mxCell>
        <mxCell id="PsoP77SgcHK2ghwCifCZ-17" value="Spine" style="text;html=1;align=left;verticalAlign=middle;resizable=0;points=[];autosize=1;fontSize=10;fontFamily=Manrope;rotation=0;fontSource=https%3A%2F%2Ffonts.googleapis.com%2Fcss%3Ffamily%3DManrope;fontColor=#001135;fontStyle=1" parent="1" vertex="1">
          <mxGeometry x="100" y="881.5" width="37" height="17" as="geometry" />
        </mxCell>
        <mxCell id="PsoP77SgcHK2ghwCifCZ-18" value="Leaf" style="text;html=1;align=left;verticalAlign=middle;resizable=0;points=[];autosize=1;fontSize=10;fontFamily=Manrope;rotation=0;fontSource=https%3A%2F%2Ffonts.googleapis.com%2Fcss%3Ffamily%3DManrope;fontColor=#001135;fontStyle=1" parent="1" vertex="1">
          <mxGeometry x="100" y="935.5" width="31" height="17" as="geometry" />
        </mxCell>
        <mxCell id="PsoP77SgcHK2ghwCifCZ-19" value="" style="group;fontFamily=Manrope;fontSource=https%3A%2F%2Ffonts.googleapis.com%2Fcss%3Ffamily%3DManrope;" parent="1" vertex="1" connectable="0">
          <mxGeometry x="130" y="929" width="30" height="30" as="geometry" />
        </mxCell>
        <mxCell id="PsoP77SgcHK2ghwCifCZ-20" value="" style="whiteSpace=wrap;html=1;aspect=fixed;fillColor=#001135;strokeColor=none;connectable=1;allowArrows=1;fontFamily=Manrope;fontSource=https%3A%2F%2Ffonts.googleapis.com%2Fcss%3Ffamily%3DManrope;" parent="PsoP77SgcHK2ghwCifCZ-19" vertex="1">
          <mxGeometry width="30" height="30" as="geometry" />
        </mxCell>
        <mxCell id="PsoP77SgcHK2ghwCifCZ-21" value="" style="endArrow=open;html=1;edgeStyle=orthogonalEdgeStyle;rounded=0;endFill=0;startSize=6;endSize=2;strokeColor=#FFFFFF;fontFamily=Manrope;fontSource=https%3A%2F%2Ffonts.googleapis.com%2Fcss%3Ffamily%3DManrope;" parent="PsoP77SgcHK2ghwCifCZ-19" edge="1">
          <mxGeometry width="50" height="50" relative="1" as="geometry">
            <mxPoint x="3" y="12" as="sourcePoint" />
            <mxPoint x="11" y="3" as="targetPoint" />
            <Array as="points">
              <mxPoint x="11" y="12" />
            </Array>
          </mxGeometry>
        </mxCell>
        <mxCell id="PsoP77SgcHK2ghwCifCZ-22" value="" style="endArrow=open;html=1;edgeStyle=orthogonalEdgeStyle;rounded=0;endFill=0;startSize=6;endSize=2;strokeColor=#FFFFFF;fontFamily=Manrope;fontSource=https%3A%2F%2Ffonts.googleapis.com%2Fcss%3Ffamily%3DManrope;" parent="PsoP77SgcHK2ghwCifCZ-19" edge="1">
          <mxGeometry width="50" height="50" relative="1" as="geometry">
            <mxPoint x="11" y="27" as="sourcePoint" />
            <mxPoint x="3" y="19" as="targetPoint" />
            <Array as="points">
              <mxPoint x="11" y="19" />
            </Array>
          </mxGeometry>
        </mxCell>
        <mxCell id="PsoP77SgcHK2ghwCifCZ-23" value="" style="endArrow=open;html=1;edgeStyle=orthogonalEdgeStyle;rounded=0;endFill=0;startSize=6;endSize=2;strokeColor=#FFFFFF;fontFamily=Manrope;fontSource=https%3A%2F%2Ffonts.googleapis.com%2Fcss%3Ffamily%3DManrope;" parent="PsoP77SgcHK2ghwCifCZ-19" edge="1">
          <mxGeometry width="50" height="50" relative="1" as="geometry">
            <mxPoint x="18" y="3" as="sourcePoint" />
            <mxPoint x="27" y="12" as="targetPoint" />
            <Array as="points">
              <mxPoint x="18" y="12" />
            </Array>
          </mxGeometry>
        </mxCell>
        <mxCell id="PsoP77SgcHK2ghwCifCZ-24" value="" style="endArrow=open;html=1;edgeStyle=orthogonalEdgeStyle;rounded=0;endFill=0;startSize=6;endSize=2;strokeColor=#FFFFFF;fontFamily=Manrope;fontSource=https%3A%2F%2Ffonts.googleapis.com%2Fcss%3Ffamily%3DManrope;" parent="PsoP77SgcHK2ghwCifCZ-19" edge="1">
          <mxGeometry width="50" height="50" relative="1" as="geometry">
            <mxPoint x="27" y="19" as="sourcePoint" />
            <mxPoint x="18" y="27" as="targetPoint" />
            <Array as="points">
              <mxPoint x="18" y="19" />
            </Array>
          </mxGeometry>
        </mxCell>
        <mxCell id="PsoP77SgcHK2ghwCifCZ-25" value="" style="group;fontFamily=Manrope;fontSource=https%3A%2F%2Ffonts.googleapis.com%2Fcss%3Ffamily%3DManrope;" parent="1" vertex="1" connectable="0">
          <mxGeometry x="232" y="929" width="30" height="30" as="geometry" />
        </mxCell>
        <mxCell id="PsoP77SgcHK2ghwCifCZ-26" value="" style="whiteSpace=wrap;html=1;aspect=fixed;fillColor=#001135;strokeColor=none;connectable=1;allowArrows=1;fontFamily=Manrope;fontSource=https%3A%2F%2Ffonts.googleapis.com%2Fcss%3Ffamily%3DManrope;" parent="PsoP77SgcHK2ghwCifCZ-25" vertex="1">
          <mxGeometry width="30" height="30" as="geometry" />
        </mxCell>
        <mxCell id="PsoP77SgcHK2ghwCifCZ-27" value="" style="endArrow=open;html=1;edgeStyle=orthogonalEdgeStyle;rounded=0;endFill=0;startSize=6;endSize=2;strokeColor=#FFFFFF;fontFamily=Manrope;fontSource=https%3A%2F%2Ffonts.googleapis.com%2Fcss%3Ffamily%3DManrope;" parent="PsoP77SgcHK2ghwCifCZ-25" edge="1">
          <mxGeometry width="50" height="50" relative="1" as="geometry">
            <mxPoint x="3" y="12" as="sourcePoint" />
            <mxPoint x="11" y="3" as="targetPoint" />
            <Array as="points">
              <mxPoint x="11" y="12" />
            </Array>
          </mxGeometry>
        </mxCell>
        <mxCell id="PsoP77SgcHK2ghwCifCZ-28" value="" style="endArrow=open;html=1;edgeStyle=orthogonalEdgeStyle;rounded=0;endFill=0;startSize=6;endSize=2;strokeColor=#FFFFFF;fontFamily=Manrope;fontSource=https%3A%2F%2Ffonts.googleapis.com%2Fcss%3Ffamily%3DManrope;" parent="PsoP77SgcHK2ghwCifCZ-25" edge="1">
          <mxGeometry width="50" height="50" relative="1" as="geometry">
            <mxPoint x="11" y="27" as="sourcePoint" />
            <mxPoint x="3" y="19" as="targetPoint" />
            <Array as="points">
              <mxPoint x="11" y="19" />
            </Array>
          </mxGeometry>
        </mxCell>
        <mxCell id="PsoP77SgcHK2ghwCifCZ-29" value="" style="endArrow=open;html=1;edgeStyle=orthogonalEdgeStyle;rounded=0;endFill=0;startSize=6;endSize=2;strokeColor=#FFFFFF;fontFamily=Manrope;fontSource=https%3A%2F%2Ffonts.googleapis.com%2Fcss%3Ffamily%3DManrope;" parent="PsoP77SgcHK2ghwCifCZ-25" edge="1">
          <mxGeometry width="50" height="50" relative="1" as="geometry">
            <mxPoint x="18" y="3" as="sourcePoint" />
            <mxPoint x="27" y="12" as="targetPoint" />
            <Array as="points">
              <mxPoint x="18" y="12" />
            </Array>
          </mxGeometry>
        </mxCell>
        <mxCell id="PsoP77SgcHK2ghwCifCZ-30" value="" style="endArrow=open;html=1;edgeStyle=orthogonalEdgeStyle;rounded=0;endFill=0;startSize=6;endSize=2;strokeColor=#FFFFFF;fontFamily=Manrope;fontSource=https%3A%2F%2Ffonts.googleapis.com%2Fcss%3Ffamily%3DManrope;" parent="PsoP77SgcHK2ghwCifCZ-25" edge="1">
          <mxGeometry width="50" height="50" relative="1" as="geometry">
            <mxPoint x="27" y="19" as="sourcePoint" />
            <mxPoint x="18" y="27" as="targetPoint" />
            <Array as="points">
              <mxPoint x="18" y="19" />
            </Array>
          </mxGeometry>
        </mxCell>
        <mxCell id="PsoP77SgcHK2ghwCifCZ-31" value="" style="group;fontFamily=Manrope;fontSource=https%3A%2F%2Ffonts.googleapis.com%2Fcss%3Ffamily%3DManrope;" parent="1" vertex="1" connectable="0">
          <mxGeometry x="279" y="929" width="30" height="30" as="geometry" />
        </mxCell>
        <mxCell id="PsoP77SgcHK2ghwCifCZ-32" value="" style="whiteSpace=wrap;html=1;aspect=fixed;fillColor=#001135;strokeColor=none;connectable=1;allowArrows=1;fontFamily=Manrope;fontSource=https%3A%2F%2Ffonts.googleapis.com%2Fcss%3Ffamily%3DManrope;" parent="PsoP77SgcHK2ghwCifCZ-31" vertex="1">
          <mxGeometry width="30" height="30" as="geometry" />
        </mxCell>
        <mxCell id="PsoP77SgcHK2ghwCifCZ-33" value="" style="endArrow=open;html=1;edgeStyle=orthogonalEdgeStyle;rounded=0;endFill=0;startSize=6;endSize=2;strokeColor=#FFFFFF;fontFamily=Manrope;fontSource=https%3A%2F%2Ffonts.googleapis.com%2Fcss%3Ffamily%3DManrope;" parent="PsoP77SgcHK2ghwCifCZ-31" edge="1">
          <mxGeometry width="50" height="50" relative="1" as="geometry">
            <mxPoint x="3" y="12" as="sourcePoint" />
            <mxPoint x="11" y="3" as="targetPoint" />
            <Array as="points">
              <mxPoint x="11" y="12" />
            </Array>
          </mxGeometry>
        </mxCell>
        <mxCell id="PsoP77SgcHK2ghwCifCZ-34" value="" style="endArrow=open;html=1;edgeStyle=orthogonalEdgeStyle;rounded=0;endFill=0;startSize=6;endSize=2;strokeColor=#FFFFFF;fontFamily=Manrope;fontSource=https%3A%2F%2Ffonts.googleapis.com%2Fcss%3Ffamily%3DManrope;" parent="PsoP77SgcHK2ghwCifCZ-31" edge="1">
          <mxGeometry width="50" height="50" relative="1" as="geometry">
            <mxPoint x="11" y="27" as="sourcePoint" />
            <mxPoint x="3" y="19" as="targetPoint" />
            <Array as="points">
              <mxPoint x="11" y="19" />
            </Array>
          </mxGeometry>
        </mxCell>
        <mxCell id="PsoP77SgcHK2ghwCifCZ-35" value="" style="endArrow=open;html=1;edgeStyle=orthogonalEdgeStyle;rounded=0;endFill=0;startSize=6;endSize=2;strokeColor=#FFFFFF;fontFamily=Manrope;fontSource=https%3A%2F%2Ffonts.googleapis.com%2Fcss%3Ffamily%3DManrope;" parent="PsoP77SgcHK2ghwCifCZ-31" edge="1">
          <mxGeometry width="50" height="50" relative="1" as="geometry">
            <mxPoint x="18" y="3" as="sourcePoint" />
            <mxPoint x="27" y="12" as="targetPoint" />
            <Array as="points">
              <mxPoint x="18" y="12" />
            </Array>
          </mxGeometry>
        </mxCell>
        <mxCell id="PsoP77SgcHK2ghwCifCZ-36" value="" style="endArrow=open;html=1;edgeStyle=orthogonalEdgeStyle;rounded=0;endFill=0;startSize=6;endSize=2;strokeColor=#FFFFFF;fontFamily=Manrope;fontSource=https%3A%2F%2Ffonts.googleapis.com%2Fcss%3Ffamily%3DManrope;" parent="PsoP77SgcHK2ghwCifCZ-31" edge="1">
          <mxGeometry width="50" height="50" relative="1" as="geometry">
            <mxPoint x="27" y="19" as="sourcePoint" />
            <mxPoint x="18" y="27" as="targetPoint" />
            <Array as="points">
              <mxPoint x="18" y="19" />
            </Array>
          </mxGeometry>
        </mxCell>
        <mxCell id="PsoP77SgcHK2ghwCifCZ-37" value="" style="group;fontFamily=Manrope;fontSource=https%3A%2F%2Ffonts.googleapis.com%2Fcss%3Ffamily%3DManrope;" parent="1" vertex="1" connectable="0">
          <mxGeometry x="381" y="929" width="30" height="30" as="geometry" />
        </mxCell>
        <mxCell id="PsoP77SgcHK2ghwCifCZ-38" value="" style="whiteSpace=wrap;html=1;aspect=fixed;fillColor=#001135;strokeColor=none;connectable=1;allowArrows=1;fontFamily=Manrope;fontSource=https%3A%2F%2Ffonts.googleapis.com%2Fcss%3Ffamily%3DManrope;" parent="PsoP77SgcHK2ghwCifCZ-37" vertex="1">
          <mxGeometry width="30" height="30" as="geometry" />
        </mxCell>
        <mxCell id="PsoP77SgcHK2ghwCifCZ-39" value="" style="endArrow=open;html=1;edgeStyle=orthogonalEdgeStyle;rounded=0;endFill=0;startSize=6;endSize=2;strokeColor=#FFFFFF;fontFamily=Manrope;fontSource=https%3A%2F%2Ffonts.googleapis.com%2Fcss%3Ffamily%3DManrope;" parent="PsoP77SgcHK2ghwCifCZ-37" edge="1">
          <mxGeometry width="50" height="50" relative="1" as="geometry">
            <mxPoint x="3" y="12" as="sourcePoint" />
            <mxPoint x="11" y="3" as="targetPoint" />
            <Array as="points">
              <mxPoint x="11" y="12" />
            </Array>
          </mxGeometry>
        </mxCell>
        <mxCell id="PsoP77SgcHK2ghwCifCZ-40" value="" style="endArrow=open;html=1;edgeStyle=orthogonalEdgeStyle;rounded=0;endFill=0;startSize=6;endSize=2;strokeColor=#FFFFFF;fontFamily=Manrope;fontSource=https%3A%2F%2Ffonts.googleapis.com%2Fcss%3Ffamily%3DManrope;" parent="PsoP77SgcHK2ghwCifCZ-37" edge="1">
          <mxGeometry width="50" height="50" relative="1" as="geometry">
            <mxPoint x="11" y="27" as="sourcePoint" />
            <mxPoint x="3" y="19" as="targetPoint" />
            <Array as="points">
              <mxPoint x="11" y="19" />
            </Array>
          </mxGeometry>
        </mxCell>
        <mxCell id="PsoP77SgcHK2ghwCifCZ-41" value="" style="endArrow=open;html=1;edgeStyle=orthogonalEdgeStyle;rounded=0;endFill=0;startSize=6;endSize=2;strokeColor=#FFFFFF;fontFamily=Manrope;fontSource=https%3A%2F%2Ffonts.googleapis.com%2Fcss%3Ffamily%3DManrope;" parent="PsoP77SgcHK2ghwCifCZ-37" edge="1">
          <mxGeometry width="50" height="50" relative="1" as="geometry">
            <mxPoint x="18" y="3" as="sourcePoint" />
            <mxPoint x="27" y="12" as="targetPoint" />
            <Array as="points">
              <mxPoint x="18" y="12" />
            </Array>
          </mxGeometry>
        </mxCell>
        <mxCell id="PsoP77SgcHK2ghwCifCZ-42" value="" style="endArrow=open;html=1;edgeStyle=orthogonalEdgeStyle;rounded=0;endFill=0;startSize=6;endSize=2;strokeColor=#FFFFFF;fontFamily=Manrope;fontSource=https%3A%2F%2Ffonts.googleapis.com%2Fcss%3Ffamily%3DManrope;" parent="PsoP77SgcHK2ghwCifCZ-37" edge="1">
          <mxGeometry width="50" height="50" relative="1" as="geometry">
            <mxPoint x="27" y="19" as="sourcePoint" />
            <mxPoint x="18" y="27" as="targetPoint" />
            <Array as="points">
              <mxPoint x="18" y="19" />
            </Array>
          </mxGeometry>
        </mxCell>
        <mxCell id="PsoP77SgcHK2ghwCifCZ-43" value="" style="group;fontFamily=Manrope;fontSource=https%3A%2F%2Ffonts.googleapis.com%2Fcss%3Ffamily%3DManrope;" parent="1" vertex="1" connectable="0">
          <mxGeometry x="359" y="875" width="30" height="30" as="geometry" />
        </mxCell>
        <mxCell id="PsoP77SgcHK2ghwCifCZ-44" value="" style="whiteSpace=wrap;html=1;aspect=fixed;fillColor=#001135;strokeColor=none;connectable=1;allowArrows=1;fontFamily=Manrope;fontSource=https%3A%2F%2Ffonts.googleapis.com%2Fcss%3Ffamily%3DManrope;" parent="PsoP77SgcHK2ghwCifCZ-43" vertex="1">
          <mxGeometry width="30" height="30" as="geometry" />
        </mxCell>
        <mxCell id="PsoP77SgcHK2ghwCifCZ-45" value="" style="endArrow=open;html=1;edgeStyle=orthogonalEdgeStyle;rounded=0;endFill=0;startSize=6;endSize=2;strokeColor=#FFFFFF;fontFamily=Manrope;fontSource=https%3A%2F%2Ffonts.googleapis.com%2Fcss%3Ffamily%3DManrope;" parent="PsoP77SgcHK2ghwCifCZ-43" edge="1">
          <mxGeometry width="50" height="50" relative="1" as="geometry">
            <mxPoint x="3" y="12" as="sourcePoint" />
            <mxPoint x="11" y="3" as="targetPoint" />
            <Array as="points">
              <mxPoint x="11" y="12" />
            </Array>
          </mxGeometry>
        </mxCell>
        <mxCell id="PsoP77SgcHK2ghwCifCZ-46" value="" style="endArrow=open;html=1;edgeStyle=orthogonalEdgeStyle;rounded=0;endFill=0;startSize=6;endSize=2;strokeColor=#FFFFFF;fontFamily=Manrope;fontSource=https%3A%2F%2Ffonts.googleapis.com%2Fcss%3Ffamily%3DManrope;" parent="PsoP77SgcHK2ghwCifCZ-43" edge="1">
          <mxGeometry width="50" height="50" relative="1" as="geometry">
            <mxPoint x="11" y="27" as="sourcePoint" />
            <mxPoint x="3" y="19" as="targetPoint" />
            <Array as="points">
              <mxPoint x="11" y="19" />
            </Array>
          </mxGeometry>
        </mxCell>
        <mxCell id="PsoP77SgcHK2ghwCifCZ-47" value="" style="endArrow=open;html=1;edgeStyle=orthogonalEdgeStyle;rounded=0;endFill=0;startSize=6;endSize=2;strokeColor=#FFFFFF;fontFamily=Manrope;fontSource=https%3A%2F%2Ffonts.googleapis.com%2Fcss%3Ffamily%3DManrope;" parent="PsoP77SgcHK2ghwCifCZ-43" edge="1">
          <mxGeometry width="50" height="50" relative="1" as="geometry">
            <mxPoint x="18" y="3" as="sourcePoint" />
            <mxPoint x="27" y="12" as="targetPoint" />
            <Array as="points">
              <mxPoint x="18" y="12" />
            </Array>
          </mxGeometry>
        </mxCell>
        <mxCell id="PsoP77SgcHK2ghwCifCZ-48" value="" style="endArrow=open;html=1;edgeStyle=orthogonalEdgeStyle;rounded=0;endFill=0;startSize=6;endSize=2;strokeColor=#FFFFFF;fontFamily=Manrope;fontSource=https%3A%2F%2Ffonts.googleapis.com%2Fcss%3Ffamily%3DManrope;" parent="PsoP77SgcHK2ghwCifCZ-43" edge="1">
          <mxGeometry width="50" height="50" relative="1" as="geometry">
            <mxPoint x="27" y="19" as="sourcePoint" />
            <mxPoint x="18" y="27" as="targetPoint" />
            <Array as="points">
              <mxPoint x="18" y="19" />
            </Array>
          </mxGeometry>
        </mxCell>
        <mxCell id="PsoP77SgcHK2ghwCifCZ-49" value="" style="group;fontFamily=Manrope;fontSource=https%3A%2F%2Ffonts.googleapis.com%2Fcss%3Ffamily%3DManrope;" parent="1" vertex="1" connectable="0">
          <mxGeometry x="301" y="875" width="30" height="30" as="geometry" />
        </mxCell>
        <mxCell id="PsoP77SgcHK2ghwCifCZ-50" value="" style="whiteSpace=wrap;html=1;aspect=fixed;fillColor=#001135;strokeColor=none;connectable=1;allowArrows=1;fontFamily=Manrope;fontSource=https%3A%2F%2Ffonts.googleapis.com%2Fcss%3Ffamily%3DManrope;" parent="PsoP77SgcHK2ghwCifCZ-49" vertex="1">
          <mxGeometry width="30" height="30" as="geometry" />
        </mxCell>
        <mxCell id="PsoP77SgcHK2ghwCifCZ-51" value="" style="endArrow=open;html=1;edgeStyle=orthogonalEdgeStyle;rounded=0;endFill=0;startSize=6;endSize=2;strokeColor=#FFFFFF;fontFamily=Manrope;fontSource=https%3A%2F%2Ffonts.googleapis.com%2Fcss%3Ffamily%3DManrope;" parent="PsoP77SgcHK2ghwCifCZ-49" edge="1">
          <mxGeometry width="50" height="50" relative="1" as="geometry">
            <mxPoint x="3" y="12" as="sourcePoint" />
            <mxPoint x="11" y="3" as="targetPoint" />
            <Array as="points">
              <mxPoint x="11" y="12" />
            </Array>
          </mxGeometry>
        </mxCell>
        <mxCell id="PsoP77SgcHK2ghwCifCZ-52" value="" style="endArrow=open;html=1;edgeStyle=orthogonalEdgeStyle;rounded=0;endFill=0;startSize=6;endSize=2;strokeColor=#FFFFFF;fontFamily=Manrope;fontSource=https%3A%2F%2Ffonts.googleapis.com%2Fcss%3Ffamily%3DManrope;" parent="PsoP77SgcHK2ghwCifCZ-49" edge="1">
          <mxGeometry width="50" height="50" relative="1" as="geometry">
            <mxPoint x="11" y="27" as="sourcePoint" />
            <mxPoint x="3" y="19" as="targetPoint" />
            <Array as="points">
              <mxPoint x="11" y="19" />
            </Array>
          </mxGeometry>
        </mxCell>
        <mxCell id="PsoP77SgcHK2ghwCifCZ-53" value="" style="endArrow=open;html=1;edgeStyle=orthogonalEdgeStyle;rounded=0;endFill=0;startSize=6;endSize=2;strokeColor=#FFFFFF;fontFamily=Manrope;fontSource=https%3A%2F%2Ffonts.googleapis.com%2Fcss%3Ffamily%3DManrope;" parent="PsoP77SgcHK2ghwCifCZ-49" edge="1">
          <mxGeometry width="50" height="50" relative="1" as="geometry">
            <mxPoint x="18" y="3" as="sourcePoint" />
            <mxPoint x="27" y="12" as="targetPoint" />
            <Array as="points">
              <mxPoint x="18" y="12" />
            </Array>
          </mxGeometry>
        </mxCell>
        <mxCell id="PsoP77SgcHK2ghwCifCZ-54" value="" style="endArrow=open;html=1;edgeStyle=orthogonalEdgeStyle;rounded=0;endFill=0;startSize=6;endSize=2;strokeColor=#FFFFFF;fontFamily=Manrope;fontSource=https%3A%2F%2Ffonts.googleapis.com%2Fcss%3Ffamily%3DManrope;" parent="PsoP77SgcHK2ghwCifCZ-49" edge="1">
          <mxGeometry width="50" height="50" relative="1" as="geometry">
            <mxPoint x="27" y="19" as="sourcePoint" />
            <mxPoint x="18" y="27" as="targetPoint" />
            <Array as="points">
              <mxPoint x="18" y="19" />
            </Array>
          </mxGeometry>
        </mxCell>
        <mxCell id="PsoP77SgcHK2ghwCifCZ-55" value="" style="group;fontFamily=Manrope;fontSource=https%3A%2F%2Ffonts.googleapis.com%2Fcss%3Ffamily%3DManrope;" parent="1" vertex="1" connectable="0">
          <mxGeometry x="210" y="875" width="30" height="30" as="geometry" />
        </mxCell>
        <mxCell id="PsoP77SgcHK2ghwCifCZ-56" value="" style="whiteSpace=wrap;html=1;aspect=fixed;fillColor=#001135;strokeColor=none;connectable=1;allowArrows=1;fontFamily=Manrope;fontSource=https%3A%2F%2Ffonts.googleapis.com%2Fcss%3Ffamily%3DManrope;" parent="PsoP77SgcHK2ghwCifCZ-55" vertex="1">
          <mxGeometry width="30" height="30" as="geometry" />
        </mxCell>
        <mxCell id="PsoP77SgcHK2ghwCifCZ-57" value="" style="endArrow=open;html=1;edgeStyle=orthogonalEdgeStyle;rounded=0;endFill=0;startSize=6;endSize=2;strokeColor=#FFFFFF;fontFamily=Manrope;fontSource=https%3A%2F%2Ffonts.googleapis.com%2Fcss%3Ffamily%3DManrope;" parent="PsoP77SgcHK2ghwCifCZ-55" edge="1">
          <mxGeometry width="50" height="50" relative="1" as="geometry">
            <mxPoint x="3" y="12" as="sourcePoint" />
            <mxPoint x="11" y="3" as="targetPoint" />
            <Array as="points">
              <mxPoint x="11" y="12" />
            </Array>
          </mxGeometry>
        </mxCell>
        <mxCell id="PsoP77SgcHK2ghwCifCZ-58" value="" style="endArrow=open;html=1;edgeStyle=orthogonalEdgeStyle;rounded=0;endFill=0;startSize=6;endSize=2;strokeColor=#FFFFFF;fontFamily=Manrope;fontSource=https%3A%2F%2Ffonts.googleapis.com%2Fcss%3Ffamily%3DManrope;" parent="PsoP77SgcHK2ghwCifCZ-55" edge="1">
          <mxGeometry width="50" height="50" relative="1" as="geometry">
            <mxPoint x="11" y="27" as="sourcePoint" />
            <mxPoint x="3" y="19" as="targetPoint" />
            <Array as="points">
              <mxPoint x="11" y="19" />
            </Array>
          </mxGeometry>
        </mxCell>
        <mxCell id="PsoP77SgcHK2ghwCifCZ-59" value="" style="endArrow=open;html=1;edgeStyle=orthogonalEdgeStyle;rounded=0;endFill=0;startSize=6;endSize=2;strokeColor=#FFFFFF;fontFamily=Manrope;fontSource=https%3A%2F%2Ffonts.googleapis.com%2Fcss%3Ffamily%3DManrope;" parent="PsoP77SgcHK2ghwCifCZ-55" edge="1">
          <mxGeometry width="50" height="50" relative="1" as="geometry">
            <mxPoint x="18" y="3" as="sourcePoint" />
            <mxPoint x="27" y="12" as="targetPoint" />
            <Array as="points">
              <mxPoint x="18" y="12" />
            </Array>
          </mxGeometry>
        </mxCell>
        <mxCell id="PsoP77SgcHK2ghwCifCZ-60" value="" style="endArrow=open;html=1;edgeStyle=orthogonalEdgeStyle;rounded=0;endFill=0;startSize=6;endSize=2;strokeColor=#FFFFFF;fontFamily=Manrope;fontSource=https%3A%2F%2Ffonts.googleapis.com%2Fcss%3Ffamily%3DManrope;" parent="PsoP77SgcHK2ghwCifCZ-55" edge="1">
          <mxGeometry width="50" height="50" relative="1" as="geometry">
            <mxPoint x="27" y="19" as="sourcePoint" />
            <mxPoint x="18" y="27" as="targetPoint" />
            <Array as="points">
              <mxPoint x="18" y="19" />
            </Array>
          </mxGeometry>
        </mxCell>
        <mxCell id="PsoP77SgcHK2ghwCifCZ-61" value="" style="group;fontFamily=Manrope;fontSource=https%3A%2F%2Ffonts.googleapis.com%2Fcss%3Ffamily%3DManrope;" parent="1" vertex="1" connectable="0">
          <mxGeometry x="152" y="875" width="30" height="30" as="geometry" />
        </mxCell>
        <mxCell id="PsoP77SgcHK2ghwCifCZ-62" value="" style="whiteSpace=wrap;html=1;aspect=fixed;fillColor=#001135;strokeColor=none;connectable=1;allowArrows=1;fontFamily=Manrope;fontSource=https%3A%2F%2Ffonts.googleapis.com%2Fcss%3Ffamily%3DManrope;" parent="PsoP77SgcHK2ghwCifCZ-61" vertex="1">
          <mxGeometry width="30" height="30" as="geometry" />
        </mxCell>
        <mxCell id="PsoP77SgcHK2ghwCifCZ-63" value="" style="endArrow=open;html=1;edgeStyle=orthogonalEdgeStyle;rounded=0;endFill=0;startSize=6;endSize=2;strokeColor=#FFFFFF;fontFamily=Manrope;fontSource=https%3A%2F%2Ffonts.googleapis.com%2Fcss%3Ffamily%3DManrope;" parent="PsoP77SgcHK2ghwCifCZ-61" edge="1">
          <mxGeometry width="50" height="50" relative="1" as="geometry">
            <mxPoint x="3" y="12" as="sourcePoint" />
            <mxPoint x="11" y="3" as="targetPoint" />
            <Array as="points">
              <mxPoint x="11" y="12" />
            </Array>
          </mxGeometry>
        </mxCell>
        <mxCell id="PsoP77SgcHK2ghwCifCZ-64" value="" style="endArrow=open;html=1;edgeStyle=orthogonalEdgeStyle;rounded=0;endFill=0;startSize=6;endSize=2;strokeColor=#FFFFFF;fontFamily=Manrope;fontSource=https%3A%2F%2Ffonts.googleapis.com%2Fcss%3Ffamily%3DManrope;" parent="PsoP77SgcHK2ghwCifCZ-61" edge="1">
          <mxGeometry width="50" height="50" relative="1" as="geometry">
            <mxPoint x="11" y="27" as="sourcePoint" />
            <mxPoint x="3" y="19" as="targetPoint" />
            <Array as="points">
              <mxPoint x="11" y="19" />
            </Array>
          </mxGeometry>
        </mxCell>
        <mxCell id="PsoP77SgcHK2ghwCifCZ-65" value="" style="endArrow=open;html=1;edgeStyle=orthogonalEdgeStyle;rounded=0;endFill=0;startSize=6;endSize=2;strokeColor=#FFFFFF;fontFamily=Manrope;fontSource=https%3A%2F%2Ffonts.googleapis.com%2Fcss%3Ffamily%3DManrope;" parent="PsoP77SgcHK2ghwCifCZ-61" edge="1">
          <mxGeometry width="50" height="50" relative="1" as="geometry">
            <mxPoint x="18" y="3" as="sourcePoint" />
            <mxPoint x="27" y="12" as="targetPoint" />
            <Array as="points">
              <mxPoint x="18" y="12" />
            </Array>
          </mxGeometry>
        </mxCell>
        <mxCell id="PsoP77SgcHK2ghwCifCZ-66" value="" style="endArrow=open;html=1;edgeStyle=orthogonalEdgeStyle;rounded=0;endFill=0;startSize=6;endSize=2;strokeColor=#FFFFFF;fontFamily=Manrope;fontSource=https%3A%2F%2Ffonts.googleapis.com%2Fcss%3Ffamily%3DManrope;" parent="PsoP77SgcHK2ghwCifCZ-61" edge="1">
          <mxGeometry width="50" height="50" relative="1" as="geometry">
            <mxPoint x="27" y="19" as="sourcePoint" />
            <mxPoint x="18" y="27" as="targetPoint" />
            <Array as="points">
              <mxPoint x="18" y="19" />
            </Array>
          </mxGeometry>
        </mxCell>
        <mxCell id="PsoP77SgcHK2ghwCifCZ-67" value="" style="group;fontFamily=Manrope;fontSource=https%3A%2F%2Ffonts.googleapis.com%2Fcss%3Ffamily%3DManrope;" parent="1" vertex="1" connectable="0">
          <mxGeometry x="286" y="819" width="30" height="30" as="geometry" />
        </mxCell>
        <mxCell id="PsoP77SgcHK2ghwCifCZ-68" value="" style="whiteSpace=wrap;html=1;aspect=fixed;fillColor=#001135;strokeColor=none;connectable=1;allowArrows=1;fontFamily=Manrope;fontSource=https%3A%2F%2Ffonts.googleapis.com%2Fcss%3Ffamily%3DManrope;" parent="PsoP77SgcHK2ghwCifCZ-67" vertex="1">
          <mxGeometry width="30" height="30" as="geometry" />
        </mxCell>
        <mxCell id="PsoP77SgcHK2ghwCifCZ-69" value="" style="endArrow=open;html=1;edgeStyle=orthogonalEdgeStyle;rounded=0;endFill=0;startSize=6;endSize=2;strokeColor=#FFFFFF;fontFamily=Manrope;fontSource=https%3A%2F%2Ffonts.googleapis.com%2Fcss%3Ffamily%3DManrope;" parent="PsoP77SgcHK2ghwCifCZ-67" edge="1">
          <mxGeometry width="50" height="50" relative="1" as="geometry">
            <mxPoint x="3" y="12" as="sourcePoint" />
            <mxPoint x="11" y="3" as="targetPoint" />
            <Array as="points">
              <mxPoint x="11" y="12" />
            </Array>
          </mxGeometry>
        </mxCell>
        <mxCell id="PsoP77SgcHK2ghwCifCZ-70" value="" style="endArrow=open;html=1;edgeStyle=orthogonalEdgeStyle;rounded=0;endFill=0;startSize=6;endSize=2;strokeColor=#FFFFFF;fontFamily=Manrope;fontSource=https%3A%2F%2Ffonts.googleapis.com%2Fcss%3Ffamily%3DManrope;" parent="PsoP77SgcHK2ghwCifCZ-67" edge="1">
          <mxGeometry width="50" height="50" relative="1" as="geometry">
            <mxPoint x="11" y="27" as="sourcePoint" />
            <mxPoint x="3" y="19" as="targetPoint" />
            <Array as="points">
              <mxPoint x="11" y="19" />
            </Array>
          </mxGeometry>
        </mxCell>
        <mxCell id="PsoP77SgcHK2ghwCifCZ-71" value="" style="endArrow=open;html=1;edgeStyle=orthogonalEdgeStyle;rounded=0;endFill=0;startSize=6;endSize=2;strokeColor=#FFFFFF;fontFamily=Manrope;fontSource=https%3A%2F%2Ffonts.googleapis.com%2Fcss%3Ffamily%3DManrope;" parent="PsoP77SgcHK2ghwCifCZ-67" edge="1">
          <mxGeometry width="50" height="50" relative="1" as="geometry">
            <mxPoint x="18" y="3" as="sourcePoint" />
            <mxPoint x="27" y="12" as="targetPoint" />
            <Array as="points">
              <mxPoint x="18" y="12" />
            </Array>
          </mxGeometry>
        </mxCell>
        <mxCell id="PsoP77SgcHK2ghwCifCZ-72" value="" style="endArrow=open;html=1;edgeStyle=orthogonalEdgeStyle;rounded=0;endFill=0;startSize=6;endSize=2;strokeColor=#FFFFFF;fontFamily=Manrope;fontSource=https%3A%2F%2Ffonts.googleapis.com%2Fcss%3Ffamily%3DManrope;" parent="PsoP77SgcHK2ghwCifCZ-67" edge="1">
          <mxGeometry width="50" height="50" relative="1" as="geometry">
            <mxPoint x="27" y="19" as="sourcePoint" />
            <mxPoint x="18" y="27" as="targetPoint" />
            <Array as="points">
              <mxPoint x="18" y="19" />
            </Array>
          </mxGeometry>
        </mxCell>
        <mxCell id="PsoP77SgcHK2ghwCifCZ-73" value="" style="group;fontFamily=Manrope;fontSource=https%3A%2F%2Ffonts.googleapis.com%2Fcss%3Ffamily%3DManrope;" parent="1" vertex="1" connectable="0">
          <mxGeometry x="222" y="819" width="30" height="30" as="geometry" />
        </mxCell>
        <mxCell id="PsoP77SgcHK2ghwCifCZ-74" value="" style="whiteSpace=wrap;html=1;aspect=fixed;fillColor=#001135;strokeColor=none;connectable=1;allowArrows=1;fontFamily=Manrope;fontSource=https%3A%2F%2Ffonts.googleapis.com%2Fcss%3Ffamily%3DManrope;" parent="PsoP77SgcHK2ghwCifCZ-73" vertex="1">
          <mxGeometry width="30" height="30" as="geometry" />
        </mxCell>
        <mxCell id="PsoP77SgcHK2ghwCifCZ-75" value="" style="endArrow=open;html=1;edgeStyle=orthogonalEdgeStyle;rounded=0;endFill=0;startSize=6;endSize=2;strokeColor=#FFFFFF;fontFamily=Manrope;fontSource=https%3A%2F%2Ffonts.googleapis.com%2Fcss%3Ffamily%3DManrope;" parent="PsoP77SgcHK2ghwCifCZ-73" edge="1">
          <mxGeometry width="50" height="50" relative="1" as="geometry">
            <mxPoint x="3" y="12" as="sourcePoint" />
            <mxPoint x="11" y="3" as="targetPoint" />
            <Array as="points">
              <mxPoint x="11" y="12" />
            </Array>
          </mxGeometry>
        </mxCell>
        <mxCell id="PsoP77SgcHK2ghwCifCZ-76" value="" style="endArrow=open;html=1;edgeStyle=orthogonalEdgeStyle;rounded=0;endFill=0;startSize=6;endSize=2;strokeColor=#FFFFFF;fontFamily=Manrope;fontSource=https%3A%2F%2Ffonts.googleapis.com%2Fcss%3Ffamily%3DManrope;" parent="PsoP77SgcHK2ghwCifCZ-73" edge="1">
          <mxGeometry width="50" height="50" relative="1" as="geometry">
            <mxPoint x="11" y="27" as="sourcePoint" />
            <mxPoint x="3" y="19" as="targetPoint" />
            <Array as="points">
              <mxPoint x="11" y="19" />
            </Array>
          </mxGeometry>
        </mxCell>
        <mxCell id="PsoP77SgcHK2ghwCifCZ-77" value="" style="endArrow=open;html=1;edgeStyle=orthogonalEdgeStyle;rounded=0;endFill=0;startSize=6;endSize=2;strokeColor=#FFFFFF;fontFamily=Manrope;fontSource=https%3A%2F%2Ffonts.googleapis.com%2Fcss%3Ffamily%3DManrope;" parent="PsoP77SgcHK2ghwCifCZ-73" edge="1">
          <mxGeometry width="50" height="50" relative="1" as="geometry">
            <mxPoint x="18" y="3" as="sourcePoint" />
            <mxPoint x="27" y="12" as="targetPoint" />
            <Array as="points">
              <mxPoint x="18" y="12" />
            </Array>
          </mxGeometry>
        </mxCell>
        <mxCell id="PsoP77SgcHK2ghwCifCZ-78" value="" style="endArrow=open;html=1;edgeStyle=orthogonalEdgeStyle;rounded=0;endFill=0;startSize=6;endSize=2;strokeColor=#FFFFFF;fontFamily=Manrope;fontSource=https%3A%2F%2Ffonts.googleapis.com%2Fcss%3Ffamily%3DManrope;" parent="PsoP77SgcHK2ghwCifCZ-73" edge="1">
          <mxGeometry width="50" height="50" relative="1" as="geometry">
            <mxPoint x="27" y="19" as="sourcePoint" />
            <mxPoint x="18" y="27" as="targetPoint" />
            <Array as="points">
              <mxPoint x="18" y="19" />
            </Array>
          </mxGeometry>
        </mxCell>
        <mxCell id="PsoP77SgcHK2ghwCifCZ-79" value="CLOS topologies" style="text;html=1;align=left;verticalAlign=middle;resizable=0;points=[];autosize=1;fontSize=16;fontFamily=Manrope;rotation=0;fontSource=https%3A%2F%2Ffonts.googleapis.com%2Fcss%3Ffamily%3DManrope;fontStyle=1;fontColor=#FFFFFF;" parent="1" vertex="1">
          <mxGeometry x="191.5" y="983" width="134" height="24" as="geometry" />
        </mxCell>
        <mxCell id="PsoP77SgcHK2ghwCifCZ-80" value="" style="group;fontFamily=Manrope;fontSource=https%3A%2F%2Ffonts.googleapis.com%2Fcss%3Ffamily%3DManrope;" parent="1" vertex="1" connectable="0">
          <mxGeometry x="609" y="843" width="30" height="30" as="geometry" />
        </mxCell>
        <mxCell id="PsoP77SgcHK2ghwCifCZ-81" value="" style="whiteSpace=wrap;html=1;aspect=fixed;fillColor=#001135;strokeColor=none;connectable=1;allowArrows=1;fontFamily=Manrope;fontSource=https%3A%2F%2Ffonts.googleapis.com%2Fcss%3Ffamily%3DManrope;" parent="PsoP77SgcHK2ghwCifCZ-80" vertex="1">
          <mxGeometry width="30" height="30" as="geometry" />
        </mxCell>
        <mxCell id="PsoP77SgcHK2ghwCifCZ-82" value="" style="endArrow=open;html=1;edgeStyle=orthogonalEdgeStyle;rounded=0;endFill=0;startSize=6;endSize=2;strokeColor=#FFFFFF;fontFamily=Manrope;fontSource=https%3A%2F%2Ffonts.googleapis.com%2Fcss%3Ffamily%3DManrope;" parent="PsoP77SgcHK2ghwCifCZ-80" edge="1">
          <mxGeometry width="50" height="50" relative="1" as="geometry">
            <mxPoint x="3" y="12" as="sourcePoint" />
            <mxPoint x="11" y="3" as="targetPoint" />
            <Array as="points">
              <mxPoint x="11" y="12" />
            </Array>
          </mxGeometry>
        </mxCell>
        <mxCell id="PsoP77SgcHK2ghwCifCZ-83" value="" style="endArrow=open;html=1;edgeStyle=orthogonalEdgeStyle;rounded=0;endFill=0;startSize=6;endSize=2;strokeColor=#FFFFFF;fontFamily=Manrope;fontSource=https%3A%2F%2Ffonts.googleapis.com%2Fcss%3Ffamily%3DManrope;" parent="PsoP77SgcHK2ghwCifCZ-80" edge="1">
          <mxGeometry width="50" height="50" relative="1" as="geometry">
            <mxPoint x="11" y="27" as="sourcePoint" />
            <mxPoint x="3" y="19" as="targetPoint" />
            <Array as="points">
              <mxPoint x="11" y="19" />
            </Array>
          </mxGeometry>
        </mxCell>
        <mxCell id="PsoP77SgcHK2ghwCifCZ-84" value="" style="endArrow=open;html=1;edgeStyle=orthogonalEdgeStyle;rounded=0;endFill=0;startSize=6;endSize=2;strokeColor=#FFFFFF;fontFamily=Manrope;fontSource=https%3A%2F%2Ffonts.googleapis.com%2Fcss%3Ffamily%3DManrope;" parent="PsoP77SgcHK2ghwCifCZ-80" edge="1">
          <mxGeometry width="50" height="50" relative="1" as="geometry">
            <mxPoint x="18" y="3" as="sourcePoint" />
            <mxPoint x="27" y="12" as="targetPoint" />
            <Array as="points">
              <mxPoint x="18" y="12" />
            </Array>
          </mxGeometry>
        </mxCell>
        <mxCell id="PsoP77SgcHK2ghwCifCZ-85" value="" style="endArrow=open;html=1;edgeStyle=orthogonalEdgeStyle;rounded=0;endFill=0;startSize=6;endSize=2;strokeColor=#FFFFFF;fontFamily=Manrope;fontSource=https%3A%2F%2Ffonts.googleapis.com%2Fcss%3Ffamily%3DManrope;" parent="PsoP77SgcHK2ghwCifCZ-80" edge="1">
          <mxGeometry width="50" height="50" relative="1" as="geometry">
            <mxPoint x="27" y="19" as="sourcePoint" />
            <mxPoint x="18" y="27" as="targetPoint" />
            <Array as="points">
              <mxPoint x="18" y="19" />
            </Array>
          </mxGeometry>
        </mxCell>
        <mxCell id="PsoP77SgcHK2ghwCifCZ-86" style="rounded=0;orthogonalLoop=1;jettySize=auto;html=1;exitX=0.25;exitY=0;exitDx=0;exitDy=0;entryX=0.25;entryY=1;entryDx=0;entryDy=0;startSize=6;endArrow=none;endFill=0;endSize=2;fontFamily=Manrope;fontSize=8;strokeColor=#98A2AE;fontSource=https%3A%2F%2Ffonts.googleapis.com%2Fcss%3Ffamily%3DManrope;" parent="1" edge="1">
          <mxGeometry relative="1" as="geometry">
            <mxPoint x="619.5" y="901" as="sourcePoint" />
            <mxPoint x="619.5" y="873" as="targetPoint" />
          </mxGeometry>
        </mxCell>
        <mxCell id="PsoP77SgcHK2ghwCifCZ-87" style="rounded=0;orthogonalLoop=1;jettySize=auto;html=1;exitX=0.5;exitY=0;exitDx=0;exitDy=0;entryX=0.5;entryY=1;entryDx=0;entryDy=0;startSize=6;endArrow=none;endFill=0;endSize=2;fontFamily=Manrope;fontSize=8;strokeColor=#98A2AE;fontSource=https%3A%2F%2Ffonts.googleapis.com%2Fcss%3Ffamily%3DManrope;" parent="1" edge="1">
          <mxGeometry relative="1" as="geometry">
            <mxPoint x="627" y="901" as="sourcePoint" />
            <mxPoint x="627" y="873" as="targetPoint" />
          </mxGeometry>
        </mxCell>
        <mxCell id="PsoP77SgcHK2ghwCifCZ-88" value="" style="group;fontFamily=Manrope;fontSource=https%3A%2F%2Ffonts.googleapis.com%2Fcss%3Ffamily%3DManrope;" parent="1" vertex="1" connectable="0">
          <mxGeometry x="668" y="901" width="30" height="30" as="geometry" />
        </mxCell>
        <mxCell id="PsoP77SgcHK2ghwCifCZ-89" value="" style="whiteSpace=wrap;html=1;aspect=fixed;fillColor=#001135;strokeColor=none;connectable=1;allowArrows=1;fontFamily=Manrope;fontSource=https%3A%2F%2Ffonts.googleapis.com%2Fcss%3Ffamily%3DManrope;" parent="PsoP77SgcHK2ghwCifCZ-88" vertex="1">
          <mxGeometry width="30" height="30" as="geometry" />
        </mxCell>
        <mxCell id="PsoP77SgcHK2ghwCifCZ-90" value="" style="endArrow=open;html=1;edgeStyle=orthogonalEdgeStyle;rounded=0;endFill=0;startSize=6;endSize=2;strokeColor=#FFFFFF;fontFamily=Manrope;fontSource=https%3A%2F%2Ffonts.googleapis.com%2Fcss%3Ffamily%3DManrope;" parent="PsoP77SgcHK2ghwCifCZ-88" edge="1">
          <mxGeometry width="50" height="50" relative="1" as="geometry">
            <mxPoint x="3" y="12" as="sourcePoint" />
            <mxPoint x="11" y="3" as="targetPoint" />
            <Array as="points">
              <mxPoint x="11" y="12" />
            </Array>
          </mxGeometry>
        </mxCell>
        <mxCell id="PsoP77SgcHK2ghwCifCZ-91" value="" style="endArrow=open;html=1;edgeStyle=orthogonalEdgeStyle;rounded=0;endFill=0;startSize=6;endSize=2;strokeColor=#FFFFFF;fontFamily=Manrope;fontSource=https%3A%2F%2Ffonts.googleapis.com%2Fcss%3Ffamily%3DManrope;" parent="PsoP77SgcHK2ghwCifCZ-88" edge="1">
          <mxGeometry width="50" height="50" relative="1" as="geometry">
            <mxPoint x="11" y="27" as="sourcePoint" />
            <mxPoint x="3" y="19" as="targetPoint" />
            <Array as="points">
              <mxPoint x="11" y="19" />
            </Array>
          </mxGeometry>
        </mxCell>
        <mxCell id="PsoP77SgcHK2ghwCifCZ-92" value="" style="endArrow=open;html=1;edgeStyle=orthogonalEdgeStyle;rounded=0;endFill=0;startSize=6;endSize=2;strokeColor=#FFFFFF;fontFamily=Manrope;fontSource=https%3A%2F%2Ffonts.googleapis.com%2Fcss%3Ffamily%3DManrope;" parent="PsoP77SgcHK2ghwCifCZ-88" edge="1">
          <mxGeometry width="50" height="50" relative="1" as="geometry">
            <mxPoint x="18" y="3" as="sourcePoint" />
            <mxPoint x="27" y="12" as="targetPoint" />
            <Array as="points">
              <mxPoint x="18" y="12" />
            </Array>
          </mxGeometry>
        </mxCell>
        <mxCell id="PsoP77SgcHK2ghwCifCZ-93" value="" style="endArrow=open;html=1;edgeStyle=orthogonalEdgeStyle;rounded=0;endFill=0;startSize=6;endSize=2;strokeColor=#FFFFFF;fontFamily=Manrope;fontSource=https%3A%2F%2Ffonts.googleapis.com%2Fcss%3Ffamily%3DManrope;" parent="PsoP77SgcHK2ghwCifCZ-88" edge="1">
          <mxGeometry width="50" height="50" relative="1" as="geometry">
            <mxPoint x="27" y="19" as="sourcePoint" />
            <mxPoint x="18" y="27" as="targetPoint" />
            <Array as="points">
              <mxPoint x="18" y="19" />
            </Array>
          </mxGeometry>
        </mxCell>
        <mxCell id="PsoP77SgcHK2ghwCifCZ-94" style="rounded=0;orthogonalLoop=1;jettySize=auto;html=1;exitX=1;exitY=0.5;exitDx=0;exitDy=0;entryX=0;entryY=0.5;entryDx=0;entryDy=0;startSize=6;endArrow=none;endFill=0;endSize=2;fontFamily=Manrope;fontSize=8;strokeColor=#98A2AE;fontSource=https%3A%2F%2Ffonts.googleapis.com%2Fcss%3Ffamily%3DManrope;" parent="1" source="PsoP77SgcHK2ghwCifCZ-114" target="PsoP77SgcHK2ghwCifCZ-89" edge="1">
          <mxGeometry relative="1" as="geometry">
            <mxPoint x="628" y="902" as="sourcePoint" />
            <mxPoint x="628" y="874" as="targetPoint" />
          </mxGeometry>
        </mxCell>
        <mxCell id="PsoP77SgcHK2ghwCifCZ-95" value="" style="group;fontFamily=Manrope;fontSource=https%3A%2F%2Ffonts.googleapis.com%2Fcss%3Ffamily%3DManrope;" parent="1" vertex="1" connectable="0">
          <mxGeometry x="511" y="843" width="82" height="30" as="geometry" />
        </mxCell>
        <mxCell id="PsoP77SgcHK2ghwCifCZ-96" value="" style="whiteSpace=wrap;html=1;aspect=fixed;fillColor=#001135;strokeColor=none;connectable=1;allowArrows=1;fontFamily=Manrope;fontSource=https%3A%2F%2Ffonts.googleapis.com%2Fcss%3Ffamily%3DManrope;" parent="PsoP77SgcHK2ghwCifCZ-95" vertex="1">
          <mxGeometry width="30" height="30" as="geometry" />
        </mxCell>
        <mxCell id="PsoP77SgcHK2ghwCifCZ-97" value="" style="endArrow=open;html=1;edgeStyle=orthogonalEdgeStyle;rounded=0;endFill=0;startSize=6;endSize=2;strokeColor=#FFFFFF;fontFamily=Manrope;fontSource=https%3A%2F%2Ffonts.googleapis.com%2Fcss%3Ffamily%3DManrope;" parent="PsoP77SgcHK2ghwCifCZ-95" edge="1">
          <mxGeometry width="50" height="50" relative="1" as="geometry">
            <mxPoint x="3" y="12" as="sourcePoint" />
            <mxPoint x="11" y="3" as="targetPoint" />
            <Array as="points">
              <mxPoint x="11" y="12" />
            </Array>
          </mxGeometry>
        </mxCell>
        <mxCell id="PsoP77SgcHK2ghwCifCZ-98" value="" style="endArrow=open;html=1;edgeStyle=orthogonalEdgeStyle;rounded=0;endFill=0;startSize=6;endSize=2;strokeColor=#FFFFFF;fontFamily=Manrope;fontSource=https%3A%2F%2Ffonts.googleapis.com%2Fcss%3Ffamily%3DManrope;" parent="PsoP77SgcHK2ghwCifCZ-95" edge="1">
          <mxGeometry width="50" height="50" relative="1" as="geometry">
            <mxPoint x="11" y="27" as="sourcePoint" />
            <mxPoint x="3" y="19" as="targetPoint" />
            <Array as="points">
              <mxPoint x="11" y="19" />
            </Array>
          </mxGeometry>
        </mxCell>
        <mxCell id="PsoP77SgcHK2ghwCifCZ-99" value="" style="endArrow=open;html=1;edgeStyle=orthogonalEdgeStyle;rounded=0;endFill=0;startSize=6;endSize=2;strokeColor=#FFFFFF;fontFamily=Manrope;fontSource=https%3A%2F%2Ffonts.googleapis.com%2Fcss%3Ffamily%3DManrope;" parent="PsoP77SgcHK2ghwCifCZ-95" edge="1">
          <mxGeometry width="50" height="50" relative="1" as="geometry">
            <mxPoint x="18" y="3" as="sourcePoint" />
            <mxPoint x="27" y="12" as="targetPoint" />
            <Array as="points">
              <mxPoint x="18" y="12" />
            </Array>
          </mxGeometry>
        </mxCell>
        <mxCell id="PsoP77SgcHK2ghwCifCZ-100" value="" style="endArrow=open;html=1;edgeStyle=orthogonalEdgeStyle;rounded=0;endFill=0;startSize=6;endSize=2;strokeColor=#FFFFFF;fontFamily=Manrope;fontSource=https%3A%2F%2Ffonts.googleapis.com%2Fcss%3Ffamily%3DManrope;" parent="PsoP77SgcHK2ghwCifCZ-95" edge="1">
          <mxGeometry width="50" height="50" relative="1" as="geometry">
            <mxPoint x="27" y="19" as="sourcePoint" />
            <mxPoint x="18" y="27" as="targetPoint" />
            <Array as="points">
              <mxPoint x="18" y="19" />
            </Array>
          </mxGeometry>
        </mxCell>
        <mxCell id="PsoP77SgcHK2ghwCifCZ-101" value="" style="group;fontFamily=Manrope;fontSource=https%3A%2F%2Ffonts.googleapis.com%2Fcss%3Ffamily%3DManrope;" parent="1" vertex="1" connectable="0">
          <mxGeometry x="511" y="901" width="30" height="30" as="geometry" />
        </mxCell>
        <mxCell id="PsoP77SgcHK2ghwCifCZ-102" value="" style="whiteSpace=wrap;html=1;aspect=fixed;fillColor=#001135;strokeColor=none;connectable=1;allowArrows=1;fontFamily=Manrope;fontSource=https%3A%2F%2Ffonts.googleapis.com%2Fcss%3Ffamily%3DManrope;" parent="PsoP77SgcHK2ghwCifCZ-101" vertex="1">
          <mxGeometry width="30" height="30" as="geometry" />
        </mxCell>
        <mxCell id="PsoP77SgcHK2ghwCifCZ-103" value="" style="endArrow=open;html=1;edgeStyle=orthogonalEdgeStyle;rounded=0;endFill=0;startSize=6;endSize=2;strokeColor=#FFFFFF;fontFamily=Manrope;fontSource=https%3A%2F%2Ffonts.googleapis.com%2Fcss%3Ffamily%3DManrope;" parent="PsoP77SgcHK2ghwCifCZ-101" edge="1">
          <mxGeometry width="50" height="50" relative="1" as="geometry">
            <mxPoint x="3" y="12" as="sourcePoint" />
            <mxPoint x="11" y="3" as="targetPoint" />
            <Array as="points">
              <mxPoint x="11" y="12" />
            </Array>
          </mxGeometry>
        </mxCell>
        <mxCell id="PsoP77SgcHK2ghwCifCZ-104" value="" style="endArrow=open;html=1;edgeStyle=orthogonalEdgeStyle;rounded=0;endFill=0;startSize=6;endSize=2;strokeColor=#FFFFFF;fontFamily=Manrope;fontSource=https%3A%2F%2Ffonts.googleapis.com%2Fcss%3Ffamily%3DManrope;" parent="PsoP77SgcHK2ghwCifCZ-101" edge="1">
          <mxGeometry width="50" height="50" relative="1" as="geometry">
            <mxPoint x="11" y="27" as="sourcePoint" />
            <mxPoint x="3" y="19" as="targetPoint" />
            <Array as="points">
              <mxPoint x="11" y="19" />
            </Array>
          </mxGeometry>
        </mxCell>
        <mxCell id="PsoP77SgcHK2ghwCifCZ-105" value="" style="endArrow=open;html=1;edgeStyle=orthogonalEdgeStyle;rounded=0;endFill=0;startSize=6;endSize=2;strokeColor=#FFFFFF;fontFamily=Manrope;fontSource=https%3A%2F%2Ffonts.googleapis.com%2Fcss%3Ffamily%3DManrope;" parent="PsoP77SgcHK2ghwCifCZ-101" edge="1">
          <mxGeometry width="50" height="50" relative="1" as="geometry">
            <mxPoint x="18" y="3" as="sourcePoint" />
            <mxPoint x="27" y="12" as="targetPoint" />
            <Array as="points">
              <mxPoint x="18" y="12" />
            </Array>
          </mxGeometry>
        </mxCell>
        <mxCell id="PsoP77SgcHK2ghwCifCZ-106" value="" style="endArrow=open;html=1;edgeStyle=orthogonalEdgeStyle;rounded=0;endFill=0;startSize=6;endSize=2;strokeColor=#FFFFFF;fontFamily=Manrope;fontSource=https%3A%2F%2Ffonts.googleapis.com%2Fcss%3Ffamily%3DManrope;" parent="PsoP77SgcHK2ghwCifCZ-101" edge="1">
          <mxGeometry width="50" height="50" relative="1" as="geometry">
            <mxPoint x="27" y="19" as="sourcePoint" />
            <mxPoint x="18" y="27" as="targetPoint" />
            <Array as="points">
              <mxPoint x="18" y="19" />
            </Array>
          </mxGeometry>
        </mxCell>
        <mxCell id="PsoP77SgcHK2ghwCifCZ-107" style="rounded=0;orthogonalLoop=1;jettySize=auto;html=1;exitX=0.5;exitY=0;exitDx=0;exitDy=0;entryX=0.5;entryY=1;entryDx=0;entryDy=0;startSize=6;endArrow=none;endFill=0;endSize=2;fontFamily=Manrope;fontSize=8;strokeColor=#98A2AE;fontSource=https%3A%2F%2Ffonts.googleapis.com%2Fcss%3Ffamily%3DManrope;" parent="1" source="PsoP77SgcHK2ghwCifCZ-102" target="PsoP77SgcHK2ghwCifCZ-96" edge="1">
          <mxGeometry relative="1" as="geometry">
            <mxPoint x="545" y="899" as="sourcePoint" />
            <mxPoint x="545" y="871" as="targetPoint" />
          </mxGeometry>
        </mxCell>
        <mxCell id="PsoP77SgcHK2ghwCifCZ-108" value="Arbitrarily connected topologies" style="text;html=1;align=left;verticalAlign=middle;resizable=0;points=[];autosize=1;fontSize=16;fontFamily=Manrope;rotation=0;fontSource=https%3A%2F%2Ffonts.googleapis.com%2Fcss%3Ffamily%3DManrope;fontStyle=1;fontColor=#FFFFFF;" parent="1" vertex="1">
          <mxGeometry x="481" y="983.0000000000001" width="248" height="24" as="geometry" />
        </mxCell>
        <mxCell id="PsoP77SgcHK2ghwCifCZ-109" value="SR Linux" style="text;html=1;align=left;verticalAlign=middle;resizable=0;points=[];autosize=1;fontSize=10;fontFamily=Manrope;rotation=0;fontSource=https%3A%2F%2Ffonts.googleapis.com%2Fcss%3Ffamily%3DManrope;fontStyle=0;fontColor=#FFFFFF;" parent="1" vertex="1">
          <mxGeometry x="502" y="931" width="50" height="17" as="geometry" />
        </mxCell>
        <mxCell id="PsoP77SgcHK2ghwCifCZ-110" value="SR Linux" style="text;html=1;align=left;verticalAlign=middle;resizable=0;points=[];autosize=1;fontSize=10;fontFamily=Manrope;rotation=0;fontSource=https%3A%2F%2Ffonts.googleapis.com%2Fcss%3Ffamily%3DManrope;fontStyle=0;fontColor=#FFFFFF;" parent="1" vertex="1">
          <mxGeometry x="503" y="826" width="50" height="17" as="geometry" />
        </mxCell>
        <mxCell id="PsoP77SgcHK2ghwCifCZ-111" value="SR Linux" style="text;html=1;align=left;verticalAlign=middle;resizable=0;points=[];autosize=1;fontSize=10;fontFamily=Manrope;rotation=0;fontSource=https%3A%2F%2Ffonts.googleapis.com%2Fcss%3Ffamily%3DManrope;fontStyle=0;fontColor=#FFFFFF;" parent="1" vertex="1">
          <mxGeometry x="601" y="825.5" width="50" height="17" as="geometry" />
        </mxCell>
        <mxCell id="PsoP77SgcHK2ghwCifCZ-112" value="Arista cEOS" style="text;html=1;align=left;verticalAlign=middle;resizable=0;points=[];autosize=1;fontSize=10;fontFamily=Manrope;rotation=0;fontSource=https%3A%2F%2Ffonts.googleapis.com%2Fcss%3Ffamily%3DManrope;fontStyle=0;fontColor=#FFFFFF;" parent="1" vertex="1">
          <mxGeometry x="594" y="931" width="64" height="17" as="geometry" />
        </mxCell>
        <mxCell id="PsoP77SgcHK2ghwCifCZ-113" value="SR Linux" style="text;html=1;align=left;verticalAlign=middle;resizable=0;points=[];autosize=1;fontSize=10;fontFamily=Manrope;rotation=0;fontSource=https%3A%2F%2Ffonts.googleapis.com%2Fcss%3Ffamily%3DManrope;fontStyle=0;fontColor=#FFFFFF;" parent="1" vertex="1">
          <mxGeometry x="660" y="884" width="50" height="17" as="geometry" />
        </mxCell>
        <mxCell id="PsoP77SgcHK2ghwCifCZ-114" value="" style="whiteSpace=wrap;html=1;aspect=fixed;strokeColor=none;connectable=1;allowArrows=1;fillColor=#BEC8D2;fontFamily=Manrope;fontSource=https%3A%2F%2Ffonts.googleapis.com%2Fcss%3Ffamily%3DManrope;" parent="1" vertex="1">
          <mxGeometry x="609" y="901" width="30" height="30" as="geometry" />
        </mxCell>
        <mxCell id="PsoP77SgcHK2ghwCifCZ-115" value="" style="endArrow=open;html=1;edgeStyle=orthogonalEdgeStyle;rounded=0;endFill=0;startSize=6;endSize=2;strokeColor=#FFFFFF;fontFamily=Manrope;fontSource=https%3A%2F%2Ffonts.googleapis.com%2Fcss%3Ffamily%3DManrope;" parent="1" edge="1">
          <mxGeometry width="50" height="50" relative="1" as="geometry">
            <mxPoint x="612" y="913" as="sourcePoint" />
            <mxPoint x="620" y="904" as="targetPoint" />
            <Array as="points">
              <mxPoint x="620" y="913" />
            </Array>
          </mxGeometry>
        </mxCell>
        <mxCell id="PsoP77SgcHK2ghwCifCZ-116" value="" style="endArrow=open;html=1;edgeStyle=orthogonalEdgeStyle;rounded=0;endFill=0;startSize=6;endSize=2;strokeColor=#FFFFFF;fontFamily=Manrope;fontSource=https%3A%2F%2Ffonts.googleapis.com%2Fcss%3Ffamily%3DManrope;" parent="1" edge="1">
          <mxGeometry width="50" height="50" relative="1" as="geometry">
            <mxPoint x="620" y="928" as="sourcePoint" />
            <mxPoint x="612" y="920" as="targetPoint" />
            <Array as="points">
              <mxPoint x="620" y="920" />
            </Array>
          </mxGeometry>
        </mxCell>
        <mxCell id="PsoP77SgcHK2ghwCifCZ-117" value="" style="endArrow=open;html=1;edgeStyle=orthogonalEdgeStyle;rounded=0;endFill=0;startSize=6;endSize=2;strokeColor=#FFFFFF;fontFamily=Manrope;fontSource=https%3A%2F%2Ffonts.googleapis.com%2Fcss%3Ffamily%3DManrope;" parent="1" edge="1">
          <mxGeometry width="50" height="50" relative="1" as="geometry">
            <mxPoint x="627" y="904" as="sourcePoint" />
            <mxPoint x="636" y="913" as="targetPoint" />
            <Array as="points">
              <mxPoint x="627" y="913" />
            </Array>
          </mxGeometry>
        </mxCell>
        <mxCell id="PsoP77SgcHK2ghwCifCZ-118" value="" style="endArrow=open;html=1;edgeStyle=orthogonalEdgeStyle;rounded=0;endFill=0;startSize=6;endSize=2;strokeColor=#FFFFFF;fontFamily=Manrope;fontSource=https%3A%2F%2Ffonts.googleapis.com%2Fcss%3Ffamily%3DManrope;" parent="1" edge="1">
          <mxGeometry width="50" height="50" relative="1" as="geometry">
            <mxPoint x="636" y="920" as="sourcePoint" />
            <mxPoint x="627" y="928" as="targetPoint" />
            <Array as="points">
              <mxPoint x="627" y="920" />
            </Array>
          </mxGeometry>
        </mxCell>
        <mxCell id="PsoP77SgcHK2ghwCifCZ-119" style="rounded=0;orthogonalLoop=1;jettySize=auto;html=1;entryX=0.5;entryY=1;entryDx=0;entryDy=0;startSize=6;endArrow=none;endFill=0;endSize=2;fontFamily=Manrope;fontSize=8;dashed=1;fontSource=https%3A%2F%2Ffonts.googleapis.com%2Fcss%3Ffamily%3DManrope;strokeColor=#FFFFFF;" parent="1" edge="1">
          <mxGeometry relative="1" as="geometry">
            <mxPoint x="448" y="995" as="sourcePoint" />
            <mxPoint x="448" y="806" as="targetPoint" />
          </mxGeometry>
        </mxCell>
        <mxCell id="TQQ14AwcQV-rvx19p-Vg-1" value="" style="rounded=0;whiteSpace=wrap;html=1;fontFamily=Manrope;fontSize=8;strokeColor=none;fillColor=#DDE9F5;fontSource=https%3A%2F%2Ffonts.googleapis.com%2Fcss%3Ffamily%3DManrope;" parent="1" vertex="1">
          <mxGeometry x="84" y="387" width="144" height="96" as="geometry" />
        </mxCell>
        <mxCell id="TQQ14AwcQV-rvx19p-Vg-2" value="node2" style="text;html=1;align=left;verticalAlign=middle;resizable=0;points=[];autosize=1;fontSize=10;fontFamily=Manrope;rotation=0;fontSource=https%3A%2F%2Ffonts.googleapis.com%2Fcss%3Ffamily%3DManrope;fontColor=#001135;fontStyle=1" parent="1" vertex="1">
          <mxGeometry x="86" y="394" width="39" height="16" as="geometry" />
        </mxCell>
        <mxCell id="TQQ14AwcQV-rvx19p-Vg-3" value="" style="rounded=0;whiteSpace=wrap;html=1;fontFamily=Manrope;fontSize=8;strokeColor=none;fillColor=#DDE9F5;fontSource=https%3A%2F%2Ffonts.googleapis.com%2Fcss%3Ffamily%3DManrope;" parent="1" vertex="1">
          <mxGeometry x="84" y="508" width="144" height="96" as="geometry" />
        </mxCell>
        <mxCell id="TQQ14AwcQV-rvx19p-Vg-4" value="node3" style="text;html=1;align=left;verticalAlign=middle;resizable=0;points=[];autosize=1;fontSize=10;fontFamily=Manrope;rotation=0;fontSource=https%3A%2F%2Ffonts.googleapis.com%2Fcss%3Ffamily%3DManrope;fontColor=#001135;fontStyle=1" parent="1" vertex="1">
          <mxGeometry x="86" y="515" width="39" height="16" as="geometry" />
        </mxCell>
        <mxCell id="FWv102F0ExP2MRHrXFn3-1" value="" style="group" parent="1" vertex="1" connectable="0">
          <mxGeometry x="529.5" y="445.12" width="50" height="50" as="geometry" />
        </mxCell>
        <mxCell id="FWv102F0ExP2MRHrXFn3-2" value="" style="group" parent="FWv102F0ExP2MRHrXFn3-1" vertex="1" connectable="0">
          <mxGeometry width="50" height="50" as="geometry" />
        </mxCell>
        <mxCell id="FWv102F0ExP2MRHrXFn3-3" value="" style="whiteSpace=wrap;html=1;aspect=fixed;fillColor=#001135;strokeColor=none;connectable=1;allowArrows=1;fontFamily=Manrope;fontSource=https%3A%2F%2Ffonts.googleapis.com%2Fcss%3Ffamily%3DManrope;" parent="FWv102F0ExP2MRHrXFn3-2" vertex="1">
          <mxGeometry width="50" height="50" as="geometry" />
        </mxCell>
        <mxCell id="FWv102F0ExP2MRHrXFn3-4" value="" style="endArrow=open;html=1;edgeStyle=orthogonalEdgeStyle;rounded=0;endFill=0;startSize=6;endSize=2;strokeColor=#FFFFFF;fontFamily=Manrope;fontSource=https%3A%2F%2Ffonts.googleapis.com%2Fcss%3Ffamily%3DManrope;" parent="FWv102F0ExP2MRHrXFn3-2" edge="1">
          <mxGeometry width="83.33333333333334" height="83.33333333333334" as="geometry">
            <mxPoint x="5" y="20" as="sourcePoint" />
            <mxPoint x="18.333333333333336" y="5" as="targetPoint" />
            <Array as="points">
              <mxPoint x="18.333333333333336" y="20" />
            </Array>
          </mxGeometry>
        </mxCell>
        <mxCell id="FWv102F0ExP2MRHrXFn3-5" value="" style="endArrow=open;html=1;edgeStyle=orthogonalEdgeStyle;rounded=0;endFill=0;startSize=6;endSize=2;strokeColor=#FFFFFF;fontFamily=Manrope;fontSource=https%3A%2F%2Ffonts.googleapis.com%2Fcss%3Ffamily%3DManrope;" parent="FWv102F0ExP2MRHrXFn3-2" edge="1">
          <mxGeometry width="83.33333333333334" height="83.33333333333334" as="geometry">
            <mxPoint x="18.333333333333336" y="45" as="sourcePoint" />
            <mxPoint x="5" y="31.666666666666668" as="targetPoint" />
            <Array as="points">
              <mxPoint x="18.333333333333336" y="31.666666666666668" />
            </Array>
          </mxGeometry>
        </mxCell>
        <mxCell id="FWv102F0ExP2MRHrXFn3-6" value="" style="endArrow=open;html=1;edgeStyle=orthogonalEdgeStyle;rounded=0;endFill=0;startSize=6;endSize=2;strokeColor=#FFFFFF;fontFamily=Manrope;fontSource=https%3A%2F%2Ffonts.googleapis.com%2Fcss%3Ffamily%3DManrope;" parent="FWv102F0ExP2MRHrXFn3-2" edge="1">
          <mxGeometry width="83.33333333333334" height="83.33333333333334" as="geometry">
            <mxPoint x="30" y="5" as="sourcePoint" />
            <mxPoint x="45" y="20" as="targetPoint" />
            <Array as="points">
              <mxPoint x="30" y="20" />
            </Array>
          </mxGeometry>
        </mxCell>
        <mxCell id="FWv102F0ExP2MRHrXFn3-7" value="" style="endArrow=open;html=1;edgeStyle=orthogonalEdgeStyle;rounded=0;endFill=0;startSize=6;endSize=2;strokeColor=#FFFFFF;fontFamily=Manrope;fontSource=https%3A%2F%2Ffonts.googleapis.com%2Fcss%3Ffamily%3DManrope;" parent="FWv102F0ExP2MRHrXFn3-2" edge="1">
          <mxGeometry width="83.33333333333334" height="83.33333333333334" as="geometry">
            <mxPoint x="45" y="31.666666666666668" as="sourcePoint" />
            <mxPoint x="30" y="45" as="targetPoint" />
            <Array as="points">
              <mxPoint x="30" y="31.666666666666668" />
            </Array>
          </mxGeometry>
        </mxCell>
        <mxCell id="FWv102F0ExP2MRHrXFn3-8" value="&lt;font&gt;SR OS&lt;/font&gt;" style="text;html=1;align=center;verticalAlign=middle;resizable=0;points=[];autosize=1;fontSize=14;fontFamily=Manrope;fontStyle=0;fontColor=#FFFFFF;" parent="1" vertex="1">
          <mxGeometry x="530.5" y="497.12" width="49" height="21" as="geometry" />
        </mxCell>
        <mxCell id="FWv102F0ExP2MRHrXFn3-9" value="" style="endArrow=none;html=1;shadow=0;strokeWidth=4;fillColor=#666666;fontFamily=nasa;fontSize=18;fontColor=#FFFFFF;strokeColor=#4BDD33;" parent="1" edge="1">
          <mxGeometry width="50" height="50" relative="1" as="geometry">
            <mxPoint x="533.5" y="405.12" as="sourcePoint" />
            <mxPoint x="714.5" y="405.12" as="targetPoint" />
          </mxGeometry>
        </mxCell>
        <mxCell id="FWv102F0ExP2MRHrXFn3-10" style="edgeStyle=orthogonalEdgeStyle;rounded=0;orthogonalLoop=1;jettySize=auto;html=1;fontFamily=Manrope;fontSize=12;fontColor=#FFFFFF;endArrow=oval;endFill=1;startArrow=oval;startFill=1;strokeColor=#4BDD33;" parent="1" target="FWv102F0ExP2MRHrXFn3-3" edge="1">
          <mxGeometry relative="1" as="geometry">
            <mxPoint x="554.5" y="405.12" as="sourcePoint" />
            <mxPoint x="554.4949999999999" y="433.12" as="targetPoint" />
          </mxGeometry>
        </mxCell>
        <mxCell id="FWv102F0ExP2MRHrXFn3-11" value="" style="group" parent="1" vertex="1" connectable="0">
          <mxGeometry x="664.5" y="445.12" width="50" height="50" as="geometry" />
        </mxCell>
        <mxCell id="FWv102F0ExP2MRHrXFn3-12" value="" style="group" parent="FWv102F0ExP2MRHrXFn3-11" vertex="1" connectable="0">
          <mxGeometry width="50" height="50" as="geometry" />
        </mxCell>
        <mxCell id="FWv102F0ExP2MRHrXFn3-13" value="" style="whiteSpace=wrap;html=1;aspect=fixed;fillColor=#001135;strokeColor=none;connectable=1;allowArrows=1;fontFamily=Manrope;fontSource=https%3A%2F%2Ffonts.googleapis.com%2Fcss%3Ffamily%3DManrope;" parent="FWv102F0ExP2MRHrXFn3-12" vertex="1">
          <mxGeometry width="50" height="50" as="geometry" />
        </mxCell>
        <mxCell id="FWv102F0ExP2MRHrXFn3-14" value="" style="endArrow=open;html=1;edgeStyle=orthogonalEdgeStyle;rounded=0;endFill=0;startSize=6;endSize=2;strokeColor=#FFFFFF;fontFamily=Manrope;fontSource=https%3A%2F%2Ffonts.googleapis.com%2Fcss%3Ffamily%3DManrope;" parent="FWv102F0ExP2MRHrXFn3-12" edge="1">
          <mxGeometry width="83.33333333333334" height="83.33333333333334" as="geometry">
            <mxPoint x="5" y="20" as="sourcePoint" />
            <mxPoint x="18.333333333333336" y="5" as="targetPoint" />
            <Array as="points">
              <mxPoint x="18.333333333333336" y="20" />
            </Array>
          </mxGeometry>
        </mxCell>
        <mxCell id="FWv102F0ExP2MRHrXFn3-15" value="" style="endArrow=open;html=1;edgeStyle=orthogonalEdgeStyle;rounded=0;endFill=0;startSize=6;endSize=2;strokeColor=#FFFFFF;fontFamily=Manrope;fontSource=https%3A%2F%2Ffonts.googleapis.com%2Fcss%3Ffamily%3DManrope;" parent="FWv102F0ExP2MRHrXFn3-12" edge="1">
          <mxGeometry width="83.33333333333334" height="83.33333333333334" as="geometry">
            <mxPoint x="18.333333333333336" y="45" as="sourcePoint" />
            <mxPoint x="5" y="31.666666666666668" as="targetPoint" />
            <Array as="points">
              <mxPoint x="18.333333333333336" y="31.666666666666668" />
            </Array>
          </mxGeometry>
        </mxCell>
        <mxCell id="FWv102F0ExP2MRHrXFn3-16" value="" style="endArrow=open;html=1;edgeStyle=orthogonalEdgeStyle;rounded=0;endFill=0;startSize=6;endSize=2;strokeColor=#FFFFFF;fontFamily=Manrope;fontSource=https%3A%2F%2Ffonts.googleapis.com%2Fcss%3Ffamily%3DManrope;" parent="FWv102F0ExP2MRHrXFn3-12" edge="1">
          <mxGeometry width="83.33333333333334" height="83.33333333333334" as="geometry">
            <mxPoint x="30" y="5" as="sourcePoint" />
            <mxPoint x="45" y="20" as="targetPoint" />
            <Array as="points">
              <mxPoint x="30" y="20" />
            </Array>
          </mxGeometry>
        </mxCell>
        <mxCell id="FWv102F0ExP2MRHrXFn3-17" value="" style="endArrow=open;html=1;edgeStyle=orthogonalEdgeStyle;rounded=0;endFill=0;startSize=6;endSize=2;strokeColor=#FFFFFF;fontFamily=Manrope;fontSource=https%3A%2F%2Ffonts.googleapis.com%2Fcss%3Ffamily%3DManrope;" parent="FWv102F0ExP2MRHrXFn3-12" edge="1">
          <mxGeometry width="83.33333333333334" height="83.33333333333334" as="geometry">
            <mxPoint x="45" y="31.666666666666668" as="sourcePoint" />
            <mxPoint x="30" y="45" as="targetPoint" />
            <Array as="points">
              <mxPoint x="30" y="31.666666666666668" />
            </Array>
          </mxGeometry>
        </mxCell>
        <mxCell id="FWv102F0ExP2MRHrXFn3-18" value="&lt;font&gt;vMX&lt;/font&gt;" style="text;html=1;align=center;verticalAlign=middle;resizable=0;points=[];autosize=1;fontSize=14;fontFamily=Manrope;fontStyle=0;fontColor=#FFFFFF;" parent="1" vertex="1">
          <mxGeometry x="671" y="497.12" width="37" height="21" as="geometry" />
        </mxCell>
        <mxCell id="FWv102F0ExP2MRHrXFn3-19" style="edgeStyle=orthogonalEdgeStyle;rounded=0;orthogonalLoop=1;jettySize=auto;html=1;fontFamily=Manrope;fontSize=12;fontColor=#FFFFFF;endArrow=oval;endFill=1;startArrow=oval;startFill=1;strokeColor=#4BDD33;" parent="1" edge="1">
          <mxGeometry relative="1" as="geometry">
            <mxPoint x="689.2600000000002" y="405.12" as="sourcePoint" />
            <mxPoint x="689.2600000000002" y="445.12" as="targetPoint" />
          </mxGeometry>
        </mxCell>
        <mxCell id="FWv102F0ExP2MRHrXFn3-20" style="edgeStyle=orthogonalEdgeStyle;rounded=0;orthogonalLoop=1;jettySize=auto;html=1;fontFamily=Manrope;fontSize=12;fontColor=#FFFFFF;endArrow=oval;endFill=1;startArrow=oval;startFill=1;entryX=1;entryY=0.5;entryDx=0;entryDy=0;exitX=0;exitY=0.5;exitDx=0;exitDy=0;strokeColor=#98A2AE;" parent="1" source="FWv102F0ExP2MRHrXFn3-22" target="FWv102F0ExP2MRHrXFn3-21" edge="1">
          <mxGeometry relative="1" as="geometry">
            <mxPoint x="559.5" y="410.12" as="sourcePoint" />
            <mxPoint x="559.5" y="450.12" as="targetPoint" />
          </mxGeometry>
        </mxCell>
        <mxCell id="FWv102F0ExP2MRHrXFn3-21" value="1/1/1" style="rounded=0;whiteSpace=wrap;html=1;fontFamily=Manrope;fontSize=12;fontColor=#FFFFFF;align=center;strokeColor=none;rotation=0;horizontal=1;fillColor=#98A2AE;" parent="1" vertex="1">
          <mxGeometry x="579.5" y="461.99" width="30" height="16.25" as="geometry" />
        </mxCell>
        <mxCell id="FWv102F0ExP2MRHrXFn3-22" value="0/0/0" style="rounded=0;whiteSpace=wrap;html=1;fontFamily=Manrope;fontSize=12;fontColor=#FFFFFF;align=center;strokeColor=none;rotation=0;horizontal=1;fillColor=#98A2AE;" parent="1" vertex="1">
          <mxGeometry x="634.5" y="461.5" width="30" height="16.25" as="geometry" />
        </mxCell>
        <mxCell id="FWv102F0ExP2MRHrXFn3-23" value="&lt;font style=&quot;font-size: 12px&quot;&gt;&lt;font color=&quot;#ffffff&quot;&gt;docker network:&lt;/font&gt;&lt;br&gt;&lt;/font&gt;&lt;span style=&quot;font-size: 12px&quot;&gt;bridge (172.20.20.0/24)&lt;/span&gt;" style="text;html=1;align=right;verticalAlign=middle;resizable=0;points=[];autosize=1;fontSize=10;fontFamily=Manrope;fontColor=#001135;" parent="1" vertex="1">
          <mxGeometry x="576.5" y="370.62" width="138" height="28" as="geometry" />
        </mxCell>
        <mxCell id="FWv102F0ExP2MRHrXFn3-25" value="hypervisor" style="text;html=1;align=left;verticalAlign=middle;resizable=0;points=[];autosize=1;fontSize=10;fontFamily=Manrope;rotation=0;fontSource=https%3A%2F%2Ffonts.googleapis.com%2Fcss%3Ffamily%3DManrope;fontColor=#001135;fontStyle=1" parent="1" vertex="1">
          <mxGeometry x="421.5" y="356.62" width="59" height="16" as="geometry" />
        </mxCell>
        <mxCell id="FWv102F0ExP2MRHrXFn3-26" value="" style="endArrow=none;html=1;shadow=0;strokeWidth=4;fillColor=#666666;fontFamily=nasa;fontSize=18;fontColor=#FFFFFF;strokeColor=#00C9FF;" parent="1" edge="1">
          <mxGeometry width="50" height="50" relative="1" as="geometry">
            <mxPoint x="315" y="282" as="sourcePoint" />
            <mxPoint x="315" y="585" as="targetPoint" />
          </mxGeometry>
        </mxCell>
        <mxCell id="FWv102F0ExP2MRHrXFn3-28" value="&lt;font color=&quot;#ffffff&quot;&gt;&lt;span style=&quot;font-size: 12px&quot;&gt;management network&lt;/span&gt;&lt;/font&gt;" style="text;html=1;align=right;verticalAlign=middle;resizable=0;points=[];autosize=1;fontSize=10;fontFamily=Manrope;fontColor=#001135;" parent="1" vertex="1">
          <mxGeometry x="248" y="258" width="131" height="16" as="geometry" />
        </mxCell>
        <mxCell id="FWv102F0ExP2MRHrXFn3-31" value="eth0" style="rounded=0;whiteSpace=wrap;html=1;fontFamily=Manrope;fontSize=12;fontColor=#FFFFFF;align=center;strokeColor=none;rotation=0;horizontal=1;fillColor=#98A2AE;" parent="1" vertex="1">
          <mxGeometry x="194" y="304.87" width="34" height="16.25" as="geometry" />
        </mxCell>
        <mxCell id="FWv102F0ExP2MRHrXFn3-27" style="edgeStyle=orthogonalEdgeStyle;rounded=0;orthogonalLoop=1;jettySize=auto;html=1;fontFamily=Manrope;fontSize=12;fontColor=#FFFFFF;endArrow=oval;endFill=1;startArrow=oval;startFill=1;strokeColor=#00C9FF;" parent="1" target="PsoP77SgcHK2ghwCifCZ-7" edge="1">
          <mxGeometry relative="1" as="geometry">
            <mxPoint x="315" y="313" as="sourcePoint" />
            <mxPoint x="555.5" y="446.1199999999999" as="targetPoint" />
          </mxGeometry>
        </mxCell>
        <mxCell id="FWv102F0ExP2MRHrXFn3-32" value="eth0" style="rounded=0;whiteSpace=wrap;html=1;fontFamily=Manrope;fontSize=12;fontColor=#FFFFFF;align=center;strokeColor=none;rotation=0;horizontal=1;fillColor=#98A2AE;" parent="1" vertex="1">
          <mxGeometry x="194" y="431" width="34" height="16.25" as="geometry" />
        </mxCell>
        <mxCell id="FWv102F0ExP2MRHrXFn3-33" value="eth0" style="rounded=0;whiteSpace=wrap;html=1;fontFamily=Manrope;fontSize=12;fontColor=#FFFFFF;align=center;strokeColor=none;rotation=0;horizontal=1;fillColor=#98A2AE;" parent="1" vertex="1">
          <mxGeometry x="194" y="547.87" width="34" height="16.25" as="geometry" />
        </mxCell>
        <mxCell id="FWv102F0ExP2MRHrXFn3-30" style="edgeStyle=orthogonalEdgeStyle;rounded=0;orthogonalLoop=1;jettySize=auto;html=1;fontFamily=Manrope;fontSize=12;fontColor=#FFFFFF;endArrow=oval;endFill=1;startArrow=oval;startFill=1;strokeColor=#00C9FF;" parent="1" edge="1">
          <mxGeometry relative="1" as="geometry">
            <mxPoint x="315" y="555.76" as="sourcePoint" />
            <mxPoint x="228" y="555.76" as="targetPoint" />
          </mxGeometry>
        </mxCell>
        <mxCell id="FWv102F0ExP2MRHrXFn3-29" style="edgeStyle=orthogonalEdgeStyle;rounded=0;orthogonalLoop=1;jettySize=auto;html=1;fontFamily=Manrope;fontSize=12;fontColor=#FFFFFF;endArrow=oval;endFill=1;startArrow=oval;startFill=1;strokeColor=#00C9FF;" parent="1" edge="1">
          <mxGeometry relative="1" as="geometry">
            <mxPoint x="315" y="440" as="sourcePoint" />
            <mxPoint x="228" y="440" as="targetPoint" />
          </mxGeometry>
        </mxCell>
        <mxCell id="FWv102F0ExP2MRHrXFn3-34" value="eth0" style="rounded=0;whiteSpace=wrap;html=1;fontFamily=Manrope;fontSize=12;fontColor=#FFFFFF;align=center;strokeColor=none;rotation=0;horizontal=1;fillColor=#98A2AE;" parent="1" vertex="1">
          <mxGeometry x="416.5" y="454" width="34" height="16.25" as="geometry" />
        </mxCell>
        <mxCell id="FWv102F0ExP2MRHrXFn3-35" style="edgeStyle=orthogonalEdgeStyle;rounded=0;orthogonalLoop=1;jettySize=auto;html=1;fontFamily=Manrope;fontSize=12;fontColor=#FFFFFF;endArrow=oval;endFill=1;startArrow=oval;startFill=1;strokeColor=#00C9FF;" parent="1" edge="1">
          <mxGeometry relative="1" as="geometry">
            <mxPoint x="416.5" y="461.9900000000001" as="sourcePoint" />
            <mxPoint x="314" y="462" as="targetPoint" />
          </mxGeometry>
        </mxCell>
        <mxCell id="FWv102F0ExP2MRHrXFn3-36" value="Deployment scenario 1&lt;br&gt;network topology outside of k8s cluster" style="text;html=1;align=center;verticalAlign=middle;resizable=0;points=[];autosize=1;fontSize=16;fontFamily=Manrope;rotation=0;fontSource=https%3A%2F%2Ffonts.googleapis.com%2Fcss%3Ffamily%3DManrope;fontStyle=1;fontColor=#FFFFFF;" parent="1" vertex="1">
          <mxGeometry x="243" y="614" width="301" height="42" as="geometry" />
        </mxCell>
      </root>
    </mxGraphModel>
  </diagram>
  <diagram id="G0J6toTXqOK58CieqbkJ" name="Page-2">
    <mxGraphModel dx="2052" dy="1149" grid="0" gridSize="1" guides="1" tooltips="1" connect="1" arrows="1" fold="1" page="1" pageScale="1" pageWidth="827" pageHeight="1169" background="#4D5766" math="0" shadow="0">
      <root>
        <mxCell id="40gmzU7N6CrraNhJ04Ad-0" />
        <mxCell id="40gmzU7N6CrraNhJ04Ad-1" parent="40gmzU7N6CrraNhJ04Ad-0" />
        <mxCell id="b8BD9XCkIVk2qIrVJM-4-0" value="test client" style="text;html=1;align=center;verticalAlign=middle;resizable=0;points=[];autosize=1;fontSize=12;fontFamily=Manrope;rotation=0;fontSource=https%3A%2F%2Ffonts.googleapis.com%2Fcss%3Ffamily%3DManrope;fontStyle=0;fontColor=#FFFFFF;" parent="40gmzU7N6CrraNhJ04Ad-1" vertex="1">
          <mxGeometry x="188" y="664" width="67" height="19" as="geometry" />
        </mxCell>
        <mxCell id="b8BD9XCkIVk2qIrVJM-4-2" value="" style="group;fontColor=#FFFFFF;" parent="40gmzU7N6CrraNhJ04Ad-1" vertex="1" connectable="0">
          <mxGeometry x="197" y="631" width="53.83333333333334" height="33.28625954198469" as="geometry" />
        </mxCell>
        <mxCell id="b8BD9XCkIVk2qIrVJM-4-3" value="" style="rounded=1;whiteSpace=wrap;html=1;strokeColor=none;arcSize=2;fontColor=#FFFFFF;" parent="b8BD9XCkIVk2qIrVJM-4-2" vertex="1">
          <mxGeometry x="6.42" y="2" width="40.58" height="24" as="geometry" />
        </mxCell>
        <mxCell id="b8BD9XCkIVk2qIrVJM-4-4" value="" style="shape=image;editableCssRules=\.color;verticalLabelPosition=bottom;labelBackgroundColor=#ffffff;verticalAlign=top;aspect=fixed;imageAspect=0;image=data:image/svg+xml,PHN2ZyB4bWxucz0iaHR0cDovL3d3dy53My5vcmcvMjAwMC9zdmciIHhtbG5zOnhsaW5rPSJodHRwOi8vd3d3LnczLm9yZy8xOTk5L3hsaW5rIiB2aWV3Qm94PSIwIDAgMTMxIDgxIiBmaWxsPSIjZmZmIiBmaWxsLXJ1bGU9ImV2ZW5vZGQiIHN0cm9rZT0iIzAwMCIgc3Ryb2tlLWxpbmVjYXA9InJvdW5kIiBzdHJva2UtbGluZWpvaW49InJvdW5kIj48dXNlIHhsaW5rOmhyZWY9IiNBIiB4PSIuNSIgeT0iLjUiLz48c3ltYm9sIGlkPSJBIiBvdmVyZmxvdz0idmlzaWJsZSI+PHBhdGggY2xhc3M9ImNvbG9yIiBkPSJNMTE5LjA3OCA2Mi43MDNWNy4yNzVjMC0yLjc0Ni0yLjU0LTcuMjc1LTUuNTgtNy4yNzVIMTYuNDc1Yy0zLjA0IDAtNi4wOCA0LjUzLTYuMDggNy4yNzV2NTUuNDI3Qy0uNDk4IDc0LjI0NC4wMDQgNzQuMjQ0LjAwNCA3NC4yNDQuMDA0IDc3LjUxNiAzLjA0NCA4MCA2Ljg1MiA4MGgxMTYuM2MzLjgwOCAwIDYuODQ4LTIuNzQ3IDYuODQ4LTUuNzU2bC0xMC45MjItMTEuNTR6TTczLjk3NSA3NS4yMzdoLTIwLjI4Yy0xLjAwNCAwLTIuMDM3LS40OTctMi4wMzctLjk5M2wyLjI3My0zLjc3YzAtLjQ5Ny43NjctLjc2IDEuNzctLjc2SDcxLjkxYy43NjcgMCAxLjUzNS4yNjMgMS41MzUuNzZsMi41NCAzLjc3Yy4wMy43My0xLjAwNC45OTMtMi4wMDcuOTkzaDB6bTQwLjI5Mi0xMi43OThIMTUuMjA1VjcuNzcyYzAtMS4yNTYgMS4yNy0zLjAxIDIuNzc1LTMuMDFoOTMuNzVjMS41MzUgMCAyLjU0IDEuNzUzIDIuNTQgM1Y2Mi40NHoiIGZpbGw9IiMyYTMyODIiIHN0cm9rZT0ibm9uZSIvPjwvc3ltYm9sPjxzdHlsZSB0eXBlPSJ0ZXh0L2NzcyI+LmNvbG9yIHsgZmlsbDogcmdiKDAsIDE3LCA1Myk7IH0gPC9zdHlsZT48L3N2Zz4=;fontColor=#FFFFFF;" parent="b8BD9XCkIVk2qIrVJM-4-2" vertex="1">
          <mxGeometry width="53.833333333333336" height="33.28625954198473" as="geometry" />
        </mxCell>
        <mxCell id="b8BD9XCkIVk2qIrVJM-4-10" value="" style="shape=image;verticalLabelPosition=bottom;labelBackgroundColor=#ffffff;verticalAlign=top;aspect=fixed;imageAspect=0;image=data:image/svg+xml,PHN2ZyB4bWxucz0iaHR0cDovL3d3dy53My5vcmcvMjAwMC9zdmciIHhtbG5zOnhsaW5rPSJodHRwOi8vd3d3LnczLm9yZy8xOTk5L3hsaW5rIiB2aWV3Qm94PSIwLjUgMC41IDQwMCAyMDYuMDQ0NTI1MTQ2NDg0MzgiIGZpbGw9IiNmZmYiIGZpbGwtcnVsZT0iZXZlbm9kZCIgc3Ryb2tlPSIjMDAwIiBzdHJva2UtbGluZWNhcD0icm91bmQiIHN0cm9rZS1saW5lam9pbj0icm91bmQiIGZvbnQtZmFtaWx5PSJSb2JvdG8iIGZvbnQtc2l6ZT0iMTQiIHRleHQtYW5jaG9yPSJtaWRkbGUiIHdpZHRoPSI0MDAiIGhlaWdodD0iMjA2LjA0NDUyNTE0NjQ4NDM4Ij48dXNlIHhsaW5rOmhyZWY9IiNFIiB4PSIuNSIgeT0iLjUiLz48ZGVmcz48bGluZWFyR3JhZGllbnQgaWQ9IkEiIHgxPSIwJSIgeTE9IjUwJSIgeDI9IjEwMCUiIHkyPSI1MCUiPjxzdG9wIG9mZnNldD0iNDAlIiBzdG9wLWNvbG9yPSIjMjE5NmYzIi8+PHN0b3Agb2Zmc2V0PSIwJSIgc3RvcC1jb2xvcj0iIzIxOTZmMyIvPjxzdG9wIG9mZnNldD0iMTAwJSIgc3RvcC1jb2xvcj0iI2Y0NDMzNiIvPjwvbGluZWFyR3JhZGllbnQ+PGxpbmVhckdyYWRpZW50IGlkPSJCIiB4MT0iMCUiIHkxPSI1MCUiIHgyPSIxMDAlIiB5Mj0iNTAlIj48c3RvcCBvZmZzZXQ9IjI1JSIgc3RvcC1jb2xvcj0iIzIxOTZmMyIvPjxzdG9wIG9mZnNldD0iMTAwJSIgc3RvcC1jb2xvcj0iI2Y1NDI0NSIvPjwvbGluZWFyR3JhZGllbnQ+PGZpbHRlciB4PSItMy4yNSUiIHk9Ii02LjUlIiB3aWR0aD0iMTA3LjI1JSIgaGVpZ2h0PSIxMTQuNSUiIGlkPSJDIj48ZmVHYXVzc2lhbkJsdXIgaW49IlNvdXJjZUFscGhhIiBzdGREZXZpYXRpb249IjUiLz48ZmVPZmZzZXQgZHg9IjMiIGR5PSIzIi8+PGZlQ29tcG9zaXRlIGluMj0iU291cmNlQWxwaGEiIG9wZXJhdG9yPSJhcml0aG1ldGljIiBrMj0iLTEiIGszPSIxIiByZXN1bHQ9IkMiLz48ZmVGbG9vZCBmbG9vZC1jb2xvcj0iIzAwMCIgZmxvb2Qtb3BhY2l0eT0iLjUiLz48ZmVDb21wb3NpdGUgaW4yPSJDIiBvcGVyYXRvcj0iaW4iIHJlc3VsdD0iRCIvPjxmZU1lcmdlPjxmZU1lcmdlTm9kZSBpbj0iU291cmNlR3JhcGhpYyIvPjxmZU1lcmdlTm9kZSBpbj0iRCIvPjwvZmVNZXJnZT48L2ZpbHRlcj48ZmlsdGVyIHg9Ii00LjcwNTg4MjM1Mjk0MTE3NyUiIHk9Ii0xNiUiIHdpZHRoPSIxMTAuNTg4MjM1Mjk0MTE3NjUlIiBoZWlnaHQ9IjEzNCUiIGlkPSJEIj48ZmVHYXVzc2lhbkJsdXIgaW49IlNvdXJjZUFscGhhIiBzdGREZXZpYXRpb249IjMiLz48ZmVPZmZzZXQgZHg9IjIiIGR5PSIxIiByZXN1bHQ9IkIiLz48ZmVGbG9vZCBmbG9vZC1jb2xvcj0iIzAwMCIgZmxvb2Qtb3BhY2l0eT0iLjUiLz48ZmVDb21wb3NpdGUgaW4yPSJCIiBvcGVyYXRvcj0iaW4iIHJlc3VsdD0iQyIvPjxmZU1lcmdlPjxmZU1lcmdlTm9kZSBpbj0iQyIvPjxmZU1lcmdlTm9kZSBpbj0iU291cmNlR3JhcGhpYyIvPjwvZmVNZXJnZT48L2ZpbHRlcj48L2RlZnM+PHN5bWJvbCBpZD0iRSIgb3ZlcmZsb3c9InZpc2libGUiPjxwYXRoIGQ9Ik02Ni42NjcgMjAwSDBDMCA4OS4yIDg5LjIgMCAyMDAgMHMyMDAgODkuMiAyMDAgMjAwaC02Ni42NjdjMC03My44NjctNTkuNDY3LTEzMy4zMzMtMTMzLjMzMy0xMzMuMzMzUzY2LjY2NyAxMjYuMTMzIDY2LjY2NyAyMDB6IiBmaWxsPSJ1cmwoI0EpIiBzdHJva2U9InVybCgjQikiIGZpbHRlcj0idXJsKCNDKSIvPjxkZWZzLz48ZyB0cmFuc2Zvcm09Im1hdHJpeCguNzkwMDg1IC42MTI5OTcgLS42MTI5OTcgLjc5MDA4NSA5OC43ODczNjcgNjIuMzMwNzk4KSI+PHBhdGggZD0iTTEzNi41MzEgMS40NkwwIDI1bDE0NSAyNWMxMy44NSAwIDI1LTExLjE1IDI1LTI1UzE1OC44NSAwIDE0NSAweiIgZmlsbD0iIzI2MzIzOCIgc3Ryb2tlPSJub25lIiBmaWx0ZXI9InVybCgjRCkiLz48ZGVmcy8+PC9nPjwvc3ltYm9sPjwvc3ZnPg==;" parent="b8BD9XCkIVk2qIrVJM-4-2" vertex="1">
          <mxGeometry x="18.180000000000007" y="9.5" width="17.48" height="9" as="geometry" />
        </mxCell>
        <mxCell id="1_0IsVTJaaztju_kB3RN-3" value="" style="group;fontColor=#FFFFFF;" parent="40gmzU7N6CrraNhJ04Ad-1" vertex="1" connectable="0">
          <mxGeometry x="200" y="545" width="50" height="50" as="geometry" />
        </mxCell>
        <mxCell id="1_0IsVTJaaztju_kB3RN-4" value="" style="group;fontColor=#FFFFFF;" parent="1_0IsVTJaaztju_kB3RN-3" vertex="1" connectable="0">
          <mxGeometry width="50" height="50" as="geometry" />
        </mxCell>
        <mxCell id="1_0IsVTJaaztju_kB3RN-5" value="" style="whiteSpace=wrap;html=1;aspect=fixed;fillColor=#001135;strokeColor=none;connectable=1;allowArrows=1;fontFamily=Manrope;fontSource=https%3A%2F%2Ffonts.googleapis.com%2Fcss%3Ffamily%3DManrope;fontColor=#FFFFFF;" parent="1_0IsVTJaaztju_kB3RN-4" vertex="1">
          <mxGeometry width="50" height="50" as="geometry" />
        </mxCell>
        <mxCell id="1_0IsVTJaaztju_kB3RN-6" value="" style="endArrow=open;html=1;edgeStyle=orthogonalEdgeStyle;rounded=0;endFill=0;startSize=6;endSize=2;strokeColor=#FFFFFF;fontFamily=Manrope;fontSource=https%3A%2F%2Ffonts.googleapis.com%2Fcss%3Ffamily%3DManrope;fontColor=#FFFFFF;" parent="1_0IsVTJaaztju_kB3RN-4" edge="1">
          <mxGeometry width="83.33333333333334" height="83.33333333333334" as="geometry">
            <mxPoint x="5" y="20" as="sourcePoint" />
            <mxPoint x="18.333333333333336" y="5" as="targetPoint" />
            <Array as="points">
              <mxPoint x="18.333333333333336" y="20" />
            </Array>
          </mxGeometry>
        </mxCell>
        <mxCell id="1_0IsVTJaaztju_kB3RN-7" value="" style="endArrow=open;html=1;edgeStyle=orthogonalEdgeStyle;rounded=0;endFill=0;startSize=6;endSize=2;strokeColor=#FFFFFF;fontFamily=Manrope;fontSource=https%3A%2F%2Ffonts.googleapis.com%2Fcss%3Ffamily%3DManrope;fontColor=#FFFFFF;" parent="1_0IsVTJaaztju_kB3RN-4" edge="1">
          <mxGeometry width="83.33333333333334" height="83.33333333333334" as="geometry">
            <mxPoint x="18.333333333333336" y="45" as="sourcePoint" />
            <mxPoint x="5" y="31.666666666666668" as="targetPoint" />
            <Array as="points">
              <mxPoint x="18.333333333333336" y="31.666666666666668" />
            </Array>
          </mxGeometry>
        </mxCell>
        <mxCell id="1_0IsVTJaaztju_kB3RN-8" value="" style="endArrow=open;html=1;edgeStyle=orthogonalEdgeStyle;rounded=0;endFill=0;startSize=6;endSize=2;strokeColor=#FFFFFF;fontFamily=Manrope;fontSource=https%3A%2F%2Ffonts.googleapis.com%2Fcss%3Ffamily%3DManrope;fontColor=#FFFFFF;" parent="1_0IsVTJaaztju_kB3RN-4" edge="1">
          <mxGeometry width="83.33333333333334" height="83.33333333333334" as="geometry">
            <mxPoint x="30" y="5" as="sourcePoint" />
            <mxPoint x="45" y="20" as="targetPoint" />
            <Array as="points">
              <mxPoint x="30" y="20" />
            </Array>
          </mxGeometry>
        </mxCell>
        <mxCell id="1_0IsVTJaaztju_kB3RN-9" value="" style="endArrow=open;html=1;edgeStyle=orthogonalEdgeStyle;rounded=0;endFill=0;startSize=6;endSize=2;strokeColor=#FFFFFF;fontFamily=Manrope;fontSource=https%3A%2F%2Ffonts.googleapis.com%2Fcss%3Ffamily%3DManrope;fontColor=#FFFFFF;" parent="1_0IsVTJaaztju_kB3RN-4" edge="1">
          <mxGeometry width="83.33333333333334" height="83.33333333333334" as="geometry">
            <mxPoint x="45" y="31.666666666666668" as="sourcePoint" />
            <mxPoint x="30" y="45" as="targetPoint" />
            <Array as="points">
              <mxPoint x="30" y="31.666666666666668" />
            </Array>
          </mxGeometry>
        </mxCell>
        <mxCell id="1_0IsVTJaaztju_kB3RN-10" value="&lt;font&gt;leaf1&lt;/font&gt;" style="text;html=1;align=center;verticalAlign=middle;resizable=0;points=[];autosize=1;fontSize=14;fontFamily=Manrope;fontStyle=0;fontColor=#FFFFFF;" parent="40gmzU7N6CrraNhJ04Ad-1" vertex="1">
          <mxGeometry x="149" y="560.87" width="50" height="20" as="geometry" />
        </mxCell>
        <mxCell id="1_0IsVTJaaztju_kB3RN-12" value="" style="group;fontColor=#FFFFFF;" parent="40gmzU7N6CrraNhJ04Ad-1" vertex="1" connectable="0">
          <mxGeometry x="356.38" y="545" width="50" height="50" as="geometry" />
        </mxCell>
        <mxCell id="1_0IsVTJaaztju_kB3RN-13" value="" style="group;fontColor=#FFFFFF;" parent="1_0IsVTJaaztju_kB3RN-12" vertex="1" connectable="0">
          <mxGeometry width="50" height="50" as="geometry" />
        </mxCell>
        <mxCell id="1_0IsVTJaaztju_kB3RN-14" value="" style="whiteSpace=wrap;html=1;aspect=fixed;fillColor=#001135;strokeColor=none;connectable=1;allowArrows=1;fontFamily=Manrope;fontSource=https%3A%2F%2Ffonts.googleapis.com%2Fcss%3Ffamily%3DManrope;fontColor=#FFFFFF;" parent="1_0IsVTJaaztju_kB3RN-13" vertex="1">
          <mxGeometry width="50" height="50" as="geometry" />
        </mxCell>
        <mxCell id="1_0IsVTJaaztju_kB3RN-15" value="" style="endArrow=open;html=1;edgeStyle=orthogonalEdgeStyle;rounded=0;endFill=0;startSize=6;endSize=2;strokeColor=#FFFFFF;fontFamily=Manrope;fontSource=https%3A%2F%2Ffonts.googleapis.com%2Fcss%3Ffamily%3DManrope;fontColor=#FFFFFF;" parent="1_0IsVTJaaztju_kB3RN-13" edge="1">
          <mxGeometry width="83.33333333333334" height="83.33333333333334" as="geometry">
            <mxPoint x="5" y="20" as="sourcePoint" />
            <mxPoint x="18.333333333333336" y="5" as="targetPoint" />
            <Array as="points">
              <mxPoint x="18.333333333333336" y="20" />
            </Array>
          </mxGeometry>
        </mxCell>
        <mxCell id="1_0IsVTJaaztju_kB3RN-16" value="" style="endArrow=open;html=1;edgeStyle=orthogonalEdgeStyle;rounded=0;endFill=0;startSize=6;endSize=2;strokeColor=#FFFFFF;fontFamily=Manrope;fontSource=https%3A%2F%2Ffonts.googleapis.com%2Fcss%3Ffamily%3DManrope;fontColor=#FFFFFF;" parent="1_0IsVTJaaztju_kB3RN-13" edge="1">
          <mxGeometry width="83.33333333333334" height="83.33333333333334" as="geometry">
            <mxPoint x="18.333333333333336" y="45" as="sourcePoint" />
            <mxPoint x="5" y="31.666666666666668" as="targetPoint" />
            <Array as="points">
              <mxPoint x="18.333333333333336" y="31.666666666666668" />
            </Array>
          </mxGeometry>
        </mxCell>
        <mxCell id="1_0IsVTJaaztju_kB3RN-17" value="" style="endArrow=open;html=1;edgeStyle=orthogonalEdgeStyle;rounded=0;endFill=0;startSize=6;endSize=2;strokeColor=#FFFFFF;fontFamily=Manrope;fontSource=https%3A%2F%2Ffonts.googleapis.com%2Fcss%3Ffamily%3DManrope;fontColor=#FFFFFF;" parent="1_0IsVTJaaztju_kB3RN-13" edge="1">
          <mxGeometry width="83.33333333333334" height="83.33333333333334" as="geometry">
            <mxPoint x="30" y="5" as="sourcePoint" />
            <mxPoint x="45" y="20" as="targetPoint" />
            <Array as="points">
              <mxPoint x="30" y="20" />
            </Array>
          </mxGeometry>
        </mxCell>
        <mxCell id="1_0IsVTJaaztju_kB3RN-18" value="" style="endArrow=open;html=1;edgeStyle=orthogonalEdgeStyle;rounded=0;endFill=0;startSize=6;endSize=2;strokeColor=#FFFFFF;fontFamily=Manrope;fontSource=https%3A%2F%2Ffonts.googleapis.com%2Fcss%3Ffamily%3DManrope;fontColor=#FFFFFF;" parent="1_0IsVTJaaztju_kB3RN-13" edge="1">
          <mxGeometry width="83.33333333333334" height="83.33333333333334" as="geometry">
            <mxPoint x="45" y="31.666666666666668" as="sourcePoint" />
            <mxPoint x="30" y="45" as="targetPoint" />
            <Array as="points">
              <mxPoint x="30" y="31.666666666666668" />
            </Array>
          </mxGeometry>
        </mxCell>
        <mxCell id="1_0IsVTJaaztju_kB3RN-19" value="&lt;font&gt;leaf2&lt;/font&gt;" style="text;html=1;align=center;verticalAlign=middle;resizable=0;points=[];autosize=1;fontSize=14;fontFamily=Manrope;fontStyle=0;fontColor=#FFFFFF;" parent="40gmzU7N6CrraNhJ04Ad-1" vertex="1">
          <mxGeometry x="404.38" y="560.87" width="50" height="20" as="geometry" />
        </mxCell>
        <mxCell id="1_0IsVTJaaztju_kB3RN-20" value="&lt;font&gt;spine1&lt;/font&gt;" style="text;html=1;align=center;verticalAlign=middle;resizable=0;points=[];autosize=1;fontSize=14;fontFamily=Manrope;fontStyle=0;fontColor=#FFFFFF;" parent="40gmzU7N6CrraNhJ04Ad-1" vertex="1">
          <mxGeometry x="178" y="465" width="60" height="20" as="geometry" />
        </mxCell>
        <mxCell id="1_0IsVTJaaztju_kB3RN-23" value="" style="group;fontColor=#FFFFFF;" parent="40gmzU7N6CrraNhJ04Ad-1" vertex="1" connectable="0">
          <mxGeometry x="239" y="450" width="50" height="50" as="geometry" />
        </mxCell>
        <mxCell id="1_0IsVTJaaztju_kB3RN-24" value="" style="group;fontColor=#FFFFFF;" parent="1_0IsVTJaaztju_kB3RN-23" vertex="1" connectable="0">
          <mxGeometry width="50" height="50" as="geometry" />
        </mxCell>
        <mxCell id="1_0IsVTJaaztju_kB3RN-25" value="" style="whiteSpace=wrap;html=1;aspect=fixed;fillColor=#001135;strokeColor=none;connectable=1;allowArrows=1;fontFamily=Manrope;fontSource=https%3A%2F%2Ffonts.googleapis.com%2Fcss%3Ffamily%3DManrope;fontColor=#FFFFFF;" parent="1_0IsVTJaaztju_kB3RN-24" vertex="1">
          <mxGeometry width="50" height="50" as="geometry" />
        </mxCell>
        <mxCell id="1_0IsVTJaaztju_kB3RN-26" value="" style="endArrow=open;html=1;edgeStyle=orthogonalEdgeStyle;rounded=0;endFill=0;startSize=6;endSize=2;strokeColor=#FFFFFF;fontFamily=Manrope;fontSource=https%3A%2F%2Ffonts.googleapis.com%2Fcss%3Ffamily%3DManrope;fontColor=#FFFFFF;" parent="1_0IsVTJaaztju_kB3RN-24" edge="1">
          <mxGeometry width="83.33333333333334" height="83.33333333333334" as="geometry">
            <mxPoint x="5" y="20" as="sourcePoint" />
            <mxPoint x="18.333333333333336" y="5" as="targetPoint" />
            <Array as="points">
              <mxPoint x="18.333333333333336" y="20" />
            </Array>
          </mxGeometry>
        </mxCell>
        <mxCell id="1_0IsVTJaaztju_kB3RN-27" value="" style="endArrow=open;html=1;edgeStyle=orthogonalEdgeStyle;rounded=0;endFill=0;startSize=6;endSize=2;strokeColor=#FFFFFF;fontFamily=Manrope;fontSource=https%3A%2F%2Ffonts.googleapis.com%2Fcss%3Ffamily%3DManrope;fontColor=#FFFFFF;" parent="1_0IsVTJaaztju_kB3RN-24" edge="1">
          <mxGeometry width="83.33333333333334" height="83.33333333333334" as="geometry">
            <mxPoint x="18.333333333333336" y="45" as="sourcePoint" />
            <mxPoint x="5" y="31.666666666666668" as="targetPoint" />
            <Array as="points">
              <mxPoint x="18.333333333333336" y="31.666666666666668" />
            </Array>
          </mxGeometry>
        </mxCell>
        <mxCell id="1_0IsVTJaaztju_kB3RN-28" value="" style="endArrow=open;html=1;edgeStyle=orthogonalEdgeStyle;rounded=0;endFill=0;startSize=6;endSize=2;strokeColor=#FFFFFF;fontFamily=Manrope;fontSource=https%3A%2F%2Ffonts.googleapis.com%2Fcss%3Ffamily%3DManrope;fontColor=#FFFFFF;" parent="1_0IsVTJaaztju_kB3RN-24" edge="1">
          <mxGeometry width="83.33333333333334" height="83.33333333333334" as="geometry">
            <mxPoint x="30" y="5" as="sourcePoint" />
            <mxPoint x="45" y="20" as="targetPoint" />
            <Array as="points">
              <mxPoint x="30" y="20" />
            </Array>
          </mxGeometry>
        </mxCell>
        <mxCell id="1_0IsVTJaaztju_kB3RN-29" value="" style="endArrow=open;html=1;edgeStyle=orthogonalEdgeStyle;rounded=0;endFill=0;startSize=6;endSize=2;strokeColor=#FFFFFF;fontFamily=Manrope;fontSource=https%3A%2F%2Ffonts.googleapis.com%2Fcss%3Ffamily%3DManrope;fontColor=#FFFFFF;" parent="1_0IsVTJaaztju_kB3RN-24" edge="1">
          <mxGeometry width="83.33333333333334" height="83.33333333333334" as="geometry">
            <mxPoint x="45" y="31.666666666666668" as="sourcePoint" />
            <mxPoint x="30" y="45" as="targetPoint" />
            <Array as="points">
              <mxPoint x="30" y="31.666666666666668" />
            </Array>
          </mxGeometry>
        </mxCell>
        <mxCell id="1_0IsVTJaaztju_kB3RN-30" style="rounded=0;orthogonalLoop=1;jettySize=auto;html=1;fontFamily=Manrope;fontSize=12;endArrow=oval;endFill=1;startArrow=oval;startFill=1;entryX=0.25;entryY=0;entryDx=0;entryDy=0;exitX=0.75;exitY=1;exitDx=0;exitDy=0;strokeColor=#98A2AE;fontColor=#FFFFFF;" parent="40gmzU7N6CrraNhJ04Ad-1" source="1_0IsVTJaaztju_kB3RN-25" target="1_0IsVTJaaztju_kB3RN-14" edge="1">
          <mxGeometry relative="1" as="geometry">
            <mxPoint x="304.5" y="501" as="sourcePoint" />
            <mxPoint x="247.5" y="555" as="targetPoint" />
          </mxGeometry>
        </mxCell>
        <mxCell id="1_0IsVTJaaztju_kB3RN-31" style="rounded=0;orthogonalLoop=1;jettySize=auto;html=1;fontFamily=Manrope;fontSize=12;endArrow=oval;endFill=1;startArrow=oval;startFill=1;entryX=0.25;entryY=0;entryDx=0;entryDy=0;strokeColor=#98A2AE;endSize=6;startSize=6;exitX=0.25;exitY=1;exitDx=0;exitDy=0;fontColor=#FFFFFF;" parent="40gmzU7N6CrraNhJ04Ad-1" source="1_0IsVTJaaztju_kB3RN-25" target="1_0IsVTJaaztju_kB3RN-5" edge="1">
          <mxGeometry relative="1" as="geometry">
            <mxPoint x="279.5" y="501" as="sourcePoint" />
            <mxPoint x="224.885" y="533" as="targetPoint" />
          </mxGeometry>
        </mxCell>
        <mxCell id="1_0IsVTJaaztju_kB3RN-38" value="&lt;font&gt;spine2&lt;/font&gt;" style="text;html=1;align=center;verticalAlign=middle;resizable=0;points=[];autosize=1;fontSize=14;fontFamily=Manrope;fontStyle=0;fontColor=#FFFFFF;" parent="40gmzU7N6CrraNhJ04Ad-1" vertex="1">
          <mxGeometry x="389" y="465" width="60" height="20" as="geometry" />
        </mxCell>
        <mxCell id="1_0IsVTJaaztju_kB3RN-84" value="&lt;font&gt;border-leaf&lt;/font&gt;" style="text;html=1;align=center;verticalAlign=middle;resizable=0;points=[];autosize=1;fontSize=14;fontFamily=Manrope;fontStyle=0;fontColor=#FFFFFF;" parent="40gmzU7N6CrraNhJ04Ad-1" vertex="1">
          <mxGeometry x="271" y="321" width="84" height="22" as="geometry" />
        </mxCell>
        <mxCell id="1_0IsVTJaaztju_kB3RN-100" style="rounded=0;orthogonalLoop=1;jettySize=auto;html=1;fontFamily=Manrope;fontSize=12;endArrow=oval;endFill=1;startArrow=oval;startFill=1;entryX=0.5;entryY=1;entryDx=0;entryDy=0;exitX=0.5;exitY=0;exitDx=0;exitDy=0;strokeColor=#98A2AE;fontColor=#FFFFFF;" parent="40gmzU7N6CrraNhJ04Ad-1" target="1_0IsVTJaaztju_kB3RN-5" edge="1">
          <mxGeometry relative="1" as="geometry">
            <mxPoint x="224.91666666666674" y="631" as="sourcePoint" />
            <mxPoint x="247.5" y="555" as="targetPoint" />
          </mxGeometry>
        </mxCell>
        <mxCell id="b8BD9XCkIVk2qIrVJM-4-1" value="client" style="text;html=1;align=center;verticalAlign=middle;resizable=0;points=[];autosize=1;fontSize=12;fontFamily=Manrope;rotation=0;fontSource=https%3A%2F%2Ffonts.googleapis.com%2Fcss%3Ffamily%3DManrope;fontStyle=0;fontColor=#FFFFFF;" parent="40gmzU7N6CrraNhJ04Ad-1" vertex="1">
          <mxGeometry x="282.5" y="664.6500000000001" width="42" height="19" as="geometry" />
        </mxCell>
        <mxCell id="b8BD9XCkIVk2qIrVJM-4-6" value="" style="group;fontColor=#FFFFFF;" parent="40gmzU7N6CrraNhJ04Ad-1" vertex="1" connectable="0">
          <mxGeometry x="276" y="630" width="53.83333333333334" height="33.28625954198475" as="geometry" />
        </mxCell>
        <mxCell id="b8BD9XCkIVk2qIrVJM-4-7" value="" style="rounded=1;whiteSpace=wrap;html=1;strokeColor=none;arcSize=2;fontColor=#FFFFFF;" parent="b8BD9XCkIVk2qIrVJM-4-6" vertex="1">
          <mxGeometry x="6.6299999999999955" y="2" width="40.58" height="24" as="geometry" />
        </mxCell>
        <mxCell id="b8BD9XCkIVk2qIrVJM-4-8" value="" style="shape=image;editableCssRules=\.color;verticalLabelPosition=bottom;labelBackgroundColor=#ffffff;verticalAlign=top;aspect=fixed;imageAspect=0;image=data:image/svg+xml,PHN2ZyB4bWxucz0iaHR0cDovL3d3dy53My5vcmcvMjAwMC9zdmciIHhtbG5zOnhsaW5rPSJodHRwOi8vd3d3LnczLm9yZy8xOTk5L3hsaW5rIiB2aWV3Qm94PSIwIDAgMTMxIDgxIiBmaWxsPSIjZmZmIiBmaWxsLXJ1bGU9ImV2ZW5vZGQiIHN0cm9rZT0iIzAwMCIgc3Ryb2tlLWxpbmVjYXA9InJvdW5kIiBzdHJva2UtbGluZWpvaW49InJvdW5kIj48dXNlIHhsaW5rOmhyZWY9IiNBIiB4PSIuNSIgeT0iLjUiLz48c3ltYm9sIGlkPSJBIiBvdmVyZmxvdz0idmlzaWJsZSI+PHBhdGggY2xhc3M9ImNvbG9yIiBkPSJNMTE5LjA3OCA2Mi43MDNWNy4yNzVjMC0yLjc0Ni0yLjU0LTcuMjc1LTUuNTgtNy4yNzVIMTYuNDc1Yy0zLjA0IDAtNi4wOCA0LjUzLTYuMDggNy4yNzV2NTUuNDI3Qy0uNDk4IDc0LjI0NC4wMDQgNzQuMjQ0LjAwNCA3NC4yNDQuMDA0IDc3LjUxNiAzLjA0NCA4MCA2Ljg1MiA4MGgxMTYuM2MzLjgwOCAwIDYuODQ4LTIuNzQ3IDYuODQ4LTUuNzU2bC0xMC45MjItMTEuNTR6TTczLjk3NSA3NS4yMzdoLTIwLjI4Yy0xLjAwNCAwLTIuMDM3LS40OTctMi4wMzctLjk5M2wyLjI3My0zLjc3YzAtLjQ5Ny43NjctLjc2IDEuNzctLjc2SDcxLjkxYy43NjcgMCAxLjUzNS4yNjMgMS41MzUuNzZsMi41NCAzLjc3Yy4wMy43My0xLjAwNC45OTMtMi4wMDcuOTkzaDB6bTQwLjI5Mi0xMi43OThIMTUuMjA1VjcuNzcyYzAtMS4yNTYgMS4yNy0zLjAxIDIuNzc1LTMuMDFoOTMuNzVjMS41MzUgMCAyLjU0IDEuNzUzIDIuNTQgM1Y2Mi40NHoiIGZpbGw9IiMyYTMyODIiIHN0cm9rZT0ibm9uZSIvPjwvc3ltYm9sPjxzdHlsZSB0eXBlPSJ0ZXh0L2NzcyI+LmNvbG9yIHsgZmlsbDogcmdiKDAsIDE3LCA1Myk7IH0gPC9zdHlsZT48L3N2Zz4=;fontColor=#FFFFFF;" parent="b8BD9XCkIVk2qIrVJM-4-6" vertex="1">
          <mxGeometry width="53.833333333333336" height="33.28625954198473" as="geometry" />
        </mxCell>
        <mxCell id="b8BD9XCkIVk2qIrVJM-4-9" value="" style="shape=image;verticalLabelPosition=bottom;labelBackgroundColor=#ffffff;verticalAlign=top;aspect=fixed;imageAspect=0;image=data:image/svg+xml,PHN2ZyB4bWxucz0iaHR0cDovL3d3dy53My5vcmcvMjAwMC9zdmciIHhtbG5zOnhsaW5rPSJodHRwOi8vd3d3LnczLm9yZy8xOTk5L3hsaW5rIiB2aWV3Qm94PSIwIDAgNTEzIDUxNCIgZmlsbD0iI2ZmZiIgZmlsbC1ydWxlPSJldmVub2RkIiBzdHJva2U9IiMwMDAiIHN0cm9rZS1saW5lY2FwPSJyb3VuZCIgc3Ryb2tlLWxpbmVqb2luPSJyb3VuZCI+PHVzZSB4bGluazpocmVmPSIjQSIgeD0iLjUiIHk9Ii41Ii8+PHN5bWJvbCBpZD0iQSIgb3ZlcmZsb3c9InZpc2libGUiPjxnIHN0cm9rZT0ibm9uZSIgZmlsbC1ydWxlPSJub256ZXJvIj48cGF0aCBkPSJNMCA3Ni44QzAgMzQuMjUzIDM0LjI1MyAwIDc2LjggMGgzNTguNEM0NzcuNzQ3IDAgNTEyIDM0LjI1MyA1MTIgNzYuOHYzNTguNGMwIDQyLjU0Ny0zNC4yNTMgNzYuOC03Ni44IDc2LjhINzYuOEMzNC4yNTMgNTEyIDAgNDc3Ljc0NyAwIDQzNS4yeiIgZmlsbD0iI2U2NWUxNyIvPjxwYXRoIGQ9Ik0xMTUgMjU2YzAtODMuMSA2Ni45LTE1MCAxNTAtMTUwczE1MCA2Ni45IDE1MCAxNTAtNjYuOSAxNTAtMTUwIDE1MC0xNTAtNjYuOS0xNTAtMTUweiIvPjxwYXRoIGQ9Ik0xNjYgMjU2YzAtNTQuODQ2IDQ0LjE1NC05OSA5OS05OXM5OSA0NC4xNTQgOTkgOTktNDQuMTU0IDk5LTk5IDk5LTk5LTQ0LjE1NC05OS05OXptLTEyMyAxYTQ2LjkgNDYuOSAwIDAgMSA0Ny00NyA0NyA0NyAwIDEgMSAwIDk0IDQ2LjkgNDYuOSAwIDAgMS00Ny00N3ptMjYzIDE1MmE0NyA0NyAwIDEgMSA5NCAwIDQ3IDQ3IDAgMSAxLTk0IDB6bTAtMzA1YTQ3IDQ3IDAgMSAxIDk0IDAgNDcgNDcgMCAxIDEtOTQgMHoiIGZpbGw9IiNlNjVlMTciLz48dXNlIHhsaW5rOmhyZWY9IiNDIi8+PHVzZSB4bGluazpocmVmPSIjQyIgeT0iMzA1Ii8+PHVzZSB4bGluazpocmVmPSIjQyIgeD0iLTI2MyIgeT0iMTUzIi8+PHBhdGggZD0iTTQyMCAyNjZ2LTE5aC02MHYxOXpNMTc5IDM4NWwxNyAxMCAzMS01My0xNy05em0xNy0yNjhsLTE3IDEwIDMxIDUyIDE3LTl6IiBmaWxsPSIjZTY1ZTE3Ii8+PC9nPjwvc3ltYm9sPjxkZWZzPjxwYXRoIGlkPSJDIiBkPSJNMzE3IDEwNGMwLTE5Ljk0NCAxNi4wNTYtMzYgMzYtMzZzMzYgMTYuMDU2IDM2IDM2LTE2LjA1NiAzNi0zNiAzNi0zNi0xNi4wNTYtMzYtMzZ6Ii8+PC9kZWZzPjwvc3ZnPg==;fontColor=#FFFFFF;" parent="b8BD9XCkIVk2qIrVJM-4-6" vertex="1">
          <mxGeometry x="17.419999999999987" y="4.000000000000057" width="19" height="19.04" as="geometry" />
        </mxCell>
        <mxCell id="1_0IsVTJaaztju_kB3RN-33" value="" style="whiteSpace=wrap;html=1;aspect=fixed;strokeColor=none;connectable=1;allowArrows=1;fontFamily=Manrope;fontSource=https%3A%2F%2Ffonts.googleapis.com%2Fcss%3Ffamily%3DManrope;fontColor=#FFFFFF;fillColor=#BEC8D2;" parent="40gmzU7N6CrraNhJ04Ad-1" vertex="1">
          <mxGeometry x="339" y="450" width="50" height="50" as="geometry" />
        </mxCell>
        <mxCell id="1_0IsVTJaaztju_kB3RN-34" value="" style="endArrow=open;html=1;edgeStyle=orthogonalEdgeStyle;rounded=0;endFill=0;startSize=6;endSize=2;strokeColor=#FFFFFF;fontFamily=Manrope;fontSource=https%3A%2F%2Ffonts.googleapis.com%2Fcss%3Ffamily%3DManrope;fontColor=#FFFFFF;" parent="40gmzU7N6CrraNhJ04Ad-1" edge="1">
          <mxGeometry x="339" y="450" width="83.33333333333334" height="83.33333333333334" as="geometry">
            <mxPoint x="344" y="470" as="sourcePoint" />
            <mxPoint x="357.3333333333333" y="455" as="targetPoint" />
            <Array as="points">
              <mxPoint x="357.3333333333333" y="470" />
            </Array>
          </mxGeometry>
        </mxCell>
        <mxCell id="1_0IsVTJaaztju_kB3RN-35" value="" style="endArrow=open;html=1;edgeStyle=orthogonalEdgeStyle;rounded=0;endFill=0;startSize=6;endSize=2;strokeColor=#FFFFFF;fontFamily=Manrope;fontSource=https%3A%2F%2Ffonts.googleapis.com%2Fcss%3Ffamily%3DManrope;fontColor=#FFFFFF;" parent="40gmzU7N6CrraNhJ04Ad-1" edge="1">
          <mxGeometry x="339" y="450" width="83.33333333333334" height="83.33333333333334" as="geometry">
            <mxPoint x="357.3333333333333" y="495" as="sourcePoint" />
            <mxPoint x="344" y="481.66666666666663" as="targetPoint" />
            <Array as="points">
              <mxPoint x="357.3333333333333" y="481.66666666666663" />
            </Array>
          </mxGeometry>
        </mxCell>
        <mxCell id="1_0IsVTJaaztju_kB3RN-36" value="" style="endArrow=open;html=1;edgeStyle=orthogonalEdgeStyle;rounded=0;endFill=0;startSize=6;endSize=2;strokeColor=#FFFFFF;fontFamily=Manrope;fontSource=https%3A%2F%2Ffonts.googleapis.com%2Fcss%3Ffamily%3DManrope;fontColor=#FFFFFF;" parent="40gmzU7N6CrraNhJ04Ad-1" edge="1">
          <mxGeometry x="339" y="450" width="83.33333333333334" height="83.33333333333334" as="geometry">
            <mxPoint x="369" y="455" as="sourcePoint" />
            <mxPoint x="384" y="470" as="targetPoint" />
            <Array as="points">
              <mxPoint x="369" y="470" />
            </Array>
          </mxGeometry>
        </mxCell>
        <mxCell id="1_0IsVTJaaztju_kB3RN-37" value="" style="endArrow=open;html=1;edgeStyle=orthogonalEdgeStyle;rounded=0;endFill=0;startSize=6;endSize=2;strokeColor=#FFFFFF;fontFamily=Manrope;fontSource=https%3A%2F%2Ffonts.googleapis.com%2Fcss%3Ffamily%3DManrope;fontColor=#FFFFFF;" parent="40gmzU7N6CrraNhJ04Ad-1" edge="1">
          <mxGeometry x="339" y="450" width="83.33333333333334" height="83.33333333333334" as="geometry">
            <mxPoint x="384" y="481.66666666666663" as="sourcePoint" />
            <mxPoint x="369" y="495" as="targetPoint" />
            <Array as="points">
              <mxPoint x="369" y="481.66666666666663" />
            </Array>
          </mxGeometry>
        </mxCell>
        <mxCell id="1_0IsVTJaaztju_kB3RN-79" value="" style="whiteSpace=wrap;html=1;aspect=fixed;strokeColor=none;connectable=1;allowArrows=1;fontFamily=Manrope;fontSource=https%3A%2F%2Ffonts.googleapis.com%2Fcss%3Ffamily%3DManrope;fontColor=#FFFFFF;fillColor=#00C9FF;" parent="40gmzU7N6CrraNhJ04Ad-1" vertex="1">
          <mxGeometry x="287" y="342" width="50" height="50" as="geometry" />
        </mxCell>
        <mxCell id="1_0IsVTJaaztju_kB3RN-80" value="" style="endArrow=open;html=1;edgeStyle=orthogonalEdgeStyle;rounded=0;endFill=0;startSize=6;endSize=2;strokeColor=#FFFFFF;fontFamily=Manrope;fontSource=https%3A%2F%2Ffonts.googleapis.com%2Fcss%3Ffamily%3DManrope;fontColor=#FFFFFF;" parent="40gmzU7N6CrraNhJ04Ad-1" edge="1">
          <mxGeometry x="287" y="342" width="83.33333333333334" height="83.33333333333334" as="geometry">
            <mxPoint x="292" y="362" as="sourcePoint" />
            <mxPoint x="305.33333333333337" y="347" as="targetPoint" />
            <Array as="points">
              <mxPoint x="305.33333333333337" y="362" />
            </Array>
          </mxGeometry>
        </mxCell>
        <mxCell id="1_0IsVTJaaztju_kB3RN-81" value="" style="endArrow=open;html=1;edgeStyle=orthogonalEdgeStyle;rounded=0;endFill=0;startSize=6;endSize=2;strokeColor=#FFFFFF;fontFamily=Manrope;fontSource=https%3A%2F%2Ffonts.googleapis.com%2Fcss%3Ffamily%3DManrope;fontColor=#FFFFFF;" parent="40gmzU7N6CrraNhJ04Ad-1" edge="1">
          <mxGeometry x="287" y="342" width="83.33333333333334" height="83.33333333333334" as="geometry">
            <mxPoint x="305.33333333333337" y="387" as="sourcePoint" />
            <mxPoint x="292" y="373.66666666666663" as="targetPoint" />
            <Array as="points">
              <mxPoint x="305.33333333333337" y="373.66666666666663" />
            </Array>
          </mxGeometry>
        </mxCell>
        <mxCell id="1_0IsVTJaaztju_kB3RN-82" value="" style="endArrow=open;html=1;edgeStyle=orthogonalEdgeStyle;rounded=0;endFill=0;startSize=6;endSize=2;strokeColor=#FFFFFF;fontFamily=Manrope;fontSource=https%3A%2F%2Ffonts.googleapis.com%2Fcss%3Ffamily%3DManrope;fontColor=#FFFFFF;" parent="40gmzU7N6CrraNhJ04Ad-1" edge="1">
          <mxGeometry x="287" y="342" width="83.33333333333334" height="83.33333333333334" as="geometry">
            <mxPoint x="317" y="347" as="sourcePoint" />
            <mxPoint x="332" y="362" as="targetPoint" />
            <Array as="points">
              <mxPoint x="317" y="362" />
            </Array>
          </mxGeometry>
        </mxCell>
        <mxCell id="1_0IsVTJaaztju_kB3RN-83" value="" style="endArrow=open;html=1;edgeStyle=orthogonalEdgeStyle;rounded=0;endFill=0;startSize=6;endSize=2;strokeColor=#FFFFFF;fontFamily=Manrope;fontSource=https%3A%2F%2Ffonts.googleapis.com%2Fcss%3Ffamily%3DManrope;fontColor=#FFFFFF;" parent="40gmzU7N6CrraNhJ04Ad-1" edge="1">
          <mxGeometry x="287" y="342" width="83.33333333333334" height="83.33333333333334" as="geometry">
            <mxPoint x="332" y="373.66666666666663" as="sourcePoint" />
            <mxPoint x="317" y="387" as="targetPoint" />
            <Array as="points">
              <mxPoint x="317" y="373.66666666666663" />
            </Array>
          </mxGeometry>
        </mxCell>
        <mxCell id="1_0IsVTJaaztju_kB3RN-93" style="rounded=0;orthogonalLoop=1;jettySize=auto;html=1;fontFamily=Manrope;fontSize=12;endArrow=oval;endFill=1;startArrow=oval;startFill=1;entryX=0.5;entryY=0;entryDx=0;entryDy=0;strokeColor=#98A2AE;endSize=6;startSize=6;exitX=0.25;exitY=1;exitDx=0;exitDy=0;fontColor=#FFFFFF;" parent="40gmzU7N6CrraNhJ04Ad-1" source="1_0IsVTJaaztju_kB3RN-79" target="1_0IsVTJaaztju_kB3RN-25" edge="1">
          <mxGeometry relative="1" as="geometry">
            <mxPoint x="302" y="394" as="sourcePoint" />
            <mxPoint x="263" y="439" as="targetPoint" />
          </mxGeometry>
        </mxCell>
        <mxCell id="1_0IsVTJaaztju_kB3RN-94" style="rounded=0;orthogonalLoop=1;jettySize=auto;html=1;fontFamily=Manrope;fontSize=12;endArrow=oval;endFill=1;startArrow=oval;startFill=1;entryX=0.5;entryY=0;entryDx=0;entryDy=0;strokeColor=#98A2AE;endSize=6;startSize=6;exitX=0.75;exitY=1;exitDx=0;exitDy=0;fontColor=#FFFFFF;" parent="40gmzU7N6CrraNhJ04Ad-1" source="1_0IsVTJaaztju_kB3RN-79" target="1_0IsVTJaaztju_kB3RN-33" edge="1">
          <mxGeometry relative="1" as="geometry">
            <mxPoint x="377.5" y="392" as="sourcePoint" />
            <mxPoint x="265" y="451" as="targetPoint" />
          </mxGeometry>
        </mxCell>
        <mxCell id="1_0IsVTJaaztju_kB3RN-39" style="rounded=0;orthogonalLoop=1;jettySize=auto;html=1;fontFamily=Manrope;fontSize=12;endArrow=oval;endFill=1;startArrow=oval;startFill=1;entryX=0.75;entryY=0;entryDx=0;entryDy=0;strokeColor=#98A2AE;endSize=6;startSize=6;exitX=0.25;exitY=1;exitDx=0;exitDy=0;fontColor=#FFFFFF;" parent="40gmzU7N6CrraNhJ04Ad-1" source="1_0IsVTJaaztju_kB3RN-33" target="1_0IsVTJaaztju_kB3RN-5" edge="1">
          <mxGeometry relative="1" as="geometry">
            <mxPoint x="252.5" y="501" as="sourcePoint" />
            <mxPoint x="226" y="546" as="targetPoint" />
          </mxGeometry>
        </mxCell>
        <mxCell id="1_0IsVTJaaztju_kB3RN-40" style="rounded=0;orthogonalLoop=1;jettySize=auto;html=1;fontFamily=Manrope;fontSize=12;endArrow=oval;endFill=1;startArrow=oval;startFill=1;entryX=0.75;entryY=0;entryDx=0;entryDy=0;exitX=0.75;exitY=1;exitDx=0;exitDy=0;strokeColor=#98A2AE;fontColor=#FFFFFF;" parent="40gmzU7N6CrraNhJ04Ad-1" source="1_0IsVTJaaztju_kB3RN-33" target="1_0IsVTJaaztju_kB3RN-14" edge="1">
          <mxGeometry relative="1" as="geometry">
            <mxPoint x="277.5" y="501" as="sourcePoint" />
            <mxPoint x="369.8800000000001" y="546" as="targetPoint" />
          </mxGeometry>
        </mxCell>
        <mxCell id="b8BD9XCkIVk2qIrVJM-4-11" style="rounded=0;orthogonalLoop=1;jettySize=auto;html=1;fontFamily=Manrope;fontSize=12;endArrow=oval;endFill=1;startArrow=oval;startFill=1;entryX=0.75;entryY=1;entryDx=0;entryDy=0;exitX=0.25;exitY=0;exitDx=0;exitDy=0;strokeColor=#98A2AE;fontColor=#FFFFFF;" parent="40gmzU7N6CrraNhJ04Ad-1" source="b8BD9XCkIVk2qIrVJM-4-8" target="1_0IsVTJaaztju_kB3RN-5" edge="1">
          <mxGeometry relative="1" as="geometry">
            <mxPoint x="225.91666666666674" y="632" as="sourcePoint" />
            <mxPoint x="226" y="596" as="targetPoint" />
          </mxGeometry>
        </mxCell>
        <mxCell id="b8BD9XCkIVk2qIrVJM-4-12" style="rounded=0;orthogonalLoop=1;jettySize=auto;html=1;fontFamily=Manrope;fontSize=12;endArrow=oval;endFill=1;startArrow=oval;startFill=1;entryX=0.25;entryY=1;entryDx=0;entryDy=0;exitX=0.75;exitY=0;exitDx=0;exitDy=0;strokeColor=#98A2AE;fontColor=#FFFFFF;" parent="40gmzU7N6CrraNhJ04Ad-1" source="b8BD9XCkIVk2qIrVJM-4-8" target="1_0IsVTJaaztju_kB3RN-14" edge="1">
          <mxGeometry relative="1" as="geometry">
            <mxPoint x="290.4583333333335" y="631" as="sourcePoint" />
            <mxPoint x="238.5" y="596" as="targetPoint" />
          </mxGeometry>
        </mxCell>
        <mxCell id="b8BD9XCkIVk2qIrVJM-4-13" value="test client" style="text;html=1;align=center;verticalAlign=middle;resizable=0;points=[];autosize=1;fontSize=12;fontFamily=Manrope;rotation=0;fontSource=https%3A%2F%2Ffonts.googleapis.com%2Fcss%3Ffamily%3DManrope;fontStyle=0;fontColor=#FFFFFF;" parent="40gmzU7N6CrraNhJ04Ad-1" vertex="1">
          <mxGeometry x="346" y="664" width="67" height="19" as="geometry" />
        </mxCell>
        <mxCell id="b8BD9XCkIVk2qIrVJM-4-14" value="" style="group;fontColor=#FFFFFF;" parent="40gmzU7N6CrraNhJ04Ad-1" vertex="1" connectable="0">
          <mxGeometry x="354.46" y="630" width="53.83333333333334" height="33.28625954198469" as="geometry" />
        </mxCell>
        <mxCell id="b8BD9XCkIVk2qIrVJM-4-15" value="" style="rounded=1;whiteSpace=wrap;html=1;strokeColor=none;arcSize=2;fontColor=#FFFFFF;" parent="b8BD9XCkIVk2qIrVJM-4-14" vertex="1">
          <mxGeometry x="6.42" y="2" width="40.58" height="24" as="geometry" />
        </mxCell>
        <mxCell id="b8BD9XCkIVk2qIrVJM-4-16" value="" style="shape=image;editableCssRules=\.color;verticalLabelPosition=bottom;labelBackgroundColor=#ffffff;verticalAlign=top;aspect=fixed;imageAspect=0;image=data:image/svg+xml,PHN2ZyB4bWxucz0iaHR0cDovL3d3dy53My5vcmcvMjAwMC9zdmciIHhtbG5zOnhsaW5rPSJodHRwOi8vd3d3LnczLm9yZy8xOTk5L3hsaW5rIiB2aWV3Qm94PSIwIDAgMTMxIDgxIiBmaWxsPSIjZmZmIiBmaWxsLXJ1bGU9ImV2ZW5vZGQiIHN0cm9rZT0iIzAwMCIgc3Ryb2tlLWxpbmVjYXA9InJvdW5kIiBzdHJva2UtbGluZWpvaW49InJvdW5kIj48dXNlIHhsaW5rOmhyZWY9IiNBIiB4PSIuNSIgeT0iLjUiLz48c3ltYm9sIGlkPSJBIiBvdmVyZmxvdz0idmlzaWJsZSI+PHBhdGggY2xhc3M9ImNvbG9yIiBkPSJNMTE5LjA3OCA2Mi43MDNWNy4yNzVjMC0yLjc0Ni0yLjU0LTcuMjc1LTUuNTgtNy4yNzVIMTYuNDc1Yy0zLjA0IDAtNi4wOCA0LjUzLTYuMDggNy4yNzV2NTUuNDI3Qy0uNDk4IDc0LjI0NC4wMDQgNzQuMjQ0LjAwNCA3NC4yNDQuMDA0IDc3LjUxNiAzLjA0NCA4MCA2Ljg1MiA4MGgxMTYuM2MzLjgwOCAwIDYuODQ4LTIuNzQ3IDYuODQ4LTUuNzU2bC0xMC45MjItMTEuNTR6TTczLjk3NSA3NS4yMzdoLTIwLjI4Yy0xLjAwNCAwLTIuMDM3LS40OTctMi4wMzctLjk5M2wyLjI3My0zLjc3YzAtLjQ5Ny43NjctLjc2IDEuNzctLjc2SDcxLjkxYy43NjcgMCAxLjUzNS4yNjMgMS41MzUuNzZsMi41NCAzLjc3Yy4wMy43My0xLjAwNC45OTMtMi4wMDcuOTkzaDB6bTQwLjI5Mi0xMi43OThIMTUuMjA1VjcuNzcyYzAtMS4yNTYgMS4yNy0zLjAxIDIuNzc1LTMuMDFoOTMuNzVjMS41MzUgMCAyLjU0IDEuNzUzIDIuNTQgM1Y2Mi40NHoiIGZpbGw9IiMyYTMyODIiIHN0cm9rZT0ibm9uZSIvPjwvc3ltYm9sPjxzdHlsZSB0eXBlPSJ0ZXh0L2NzcyI+LmNvbG9yIHsgZmlsbDogcmdiKDAsIDE3LCA1Myk7IH0gPC9zdHlsZT48L3N2Zz4=;fontColor=#FFFFFF;" parent="b8BD9XCkIVk2qIrVJM-4-14" vertex="1">
          <mxGeometry width="53.833333333333336" height="33.28625954198473" as="geometry" />
        </mxCell>
        <mxCell id="b8BD9XCkIVk2qIrVJM-4-17" value="" style="shape=image;verticalLabelPosition=bottom;labelBackgroundColor=#ffffff;verticalAlign=top;aspect=fixed;imageAspect=0;image=data:image/svg+xml,PHN2ZyB4bWxucz0iaHR0cDovL3d3dy53My5vcmcvMjAwMC9zdmciIHhtbG5zOnhsaW5rPSJodHRwOi8vd3d3LnczLm9yZy8xOTk5L3hsaW5rIiB2aWV3Qm94PSIwLjUgMC41IDQwMCAyMDYuMDQ0NTI1MTQ2NDg0MzgiIGZpbGw9IiNmZmYiIGZpbGwtcnVsZT0iZXZlbm9kZCIgc3Ryb2tlPSIjMDAwIiBzdHJva2UtbGluZWNhcD0icm91bmQiIHN0cm9rZS1saW5lam9pbj0icm91bmQiIGZvbnQtZmFtaWx5PSJSb2JvdG8iIGZvbnQtc2l6ZT0iMTQiIHRleHQtYW5jaG9yPSJtaWRkbGUiIHdpZHRoPSI0MDAiIGhlaWdodD0iMjA2LjA0NDUyNTE0NjQ4NDM4Ij48dXNlIHhsaW5rOmhyZWY9IiNFIiB4PSIuNSIgeT0iLjUiLz48ZGVmcz48bGluZWFyR3JhZGllbnQgaWQ9IkEiIHgxPSIwJSIgeTE9IjUwJSIgeDI9IjEwMCUiIHkyPSI1MCUiPjxzdG9wIG9mZnNldD0iNDAlIiBzdG9wLWNvbG9yPSIjMjE5NmYzIi8+PHN0b3Agb2Zmc2V0PSIwJSIgc3RvcC1jb2xvcj0iIzIxOTZmMyIvPjxzdG9wIG9mZnNldD0iMTAwJSIgc3RvcC1jb2xvcj0iI2Y0NDMzNiIvPjwvbGluZWFyR3JhZGllbnQ+PGxpbmVhckdyYWRpZW50IGlkPSJCIiB4MT0iMCUiIHkxPSI1MCUiIHgyPSIxMDAlIiB5Mj0iNTAlIj48c3RvcCBvZmZzZXQ9IjI1JSIgc3RvcC1jb2xvcj0iIzIxOTZmMyIvPjxzdG9wIG9mZnNldD0iMTAwJSIgc3RvcC1jb2xvcj0iI2Y1NDI0NSIvPjwvbGluZWFyR3JhZGllbnQ+PGZpbHRlciB4PSItMy4yNSUiIHk9Ii02LjUlIiB3aWR0aD0iMTA3LjI1JSIgaGVpZ2h0PSIxMTQuNSUiIGlkPSJDIj48ZmVHYXVzc2lhbkJsdXIgaW49IlNvdXJjZUFscGhhIiBzdGREZXZpYXRpb249IjUiLz48ZmVPZmZzZXQgZHg9IjMiIGR5PSIzIi8+PGZlQ29tcG9zaXRlIGluMj0iU291cmNlQWxwaGEiIG9wZXJhdG9yPSJhcml0aG1ldGljIiBrMj0iLTEiIGszPSIxIiByZXN1bHQ9IkMiLz48ZmVGbG9vZCBmbG9vZC1jb2xvcj0iIzAwMCIgZmxvb2Qtb3BhY2l0eT0iLjUiLz48ZmVDb21wb3NpdGUgaW4yPSJDIiBvcGVyYXRvcj0iaW4iIHJlc3VsdD0iRCIvPjxmZU1lcmdlPjxmZU1lcmdlTm9kZSBpbj0iU291cmNlR3JhcGhpYyIvPjxmZU1lcmdlTm9kZSBpbj0iRCIvPjwvZmVNZXJnZT48L2ZpbHRlcj48ZmlsdGVyIHg9Ii00LjcwNTg4MjM1Mjk0MTE3NyUiIHk9Ii0xNiUiIHdpZHRoPSIxMTAuNTg4MjM1Mjk0MTE3NjUlIiBoZWlnaHQ9IjEzNCUiIGlkPSJEIj48ZmVHYXVzc2lhbkJsdXIgaW49IlNvdXJjZUFscGhhIiBzdGREZXZpYXRpb249IjMiLz48ZmVPZmZzZXQgZHg9IjIiIGR5PSIxIiByZXN1bHQ9IkIiLz48ZmVGbG9vZCBmbG9vZC1jb2xvcj0iIzAwMCIgZmxvb2Qtb3BhY2l0eT0iLjUiLz48ZmVDb21wb3NpdGUgaW4yPSJCIiBvcGVyYXRvcj0iaW4iIHJlc3VsdD0iQyIvPjxmZU1lcmdlPjxmZU1lcmdlTm9kZSBpbj0iQyIvPjxmZU1lcmdlTm9kZSBpbj0iU291cmNlR3JhcGhpYyIvPjwvZmVNZXJnZT48L2ZpbHRlcj48L2RlZnM+PHN5bWJvbCBpZD0iRSIgb3ZlcmZsb3c9InZpc2libGUiPjxwYXRoIGQ9Ik02Ni42NjcgMjAwSDBDMCA4OS4yIDg5LjIgMCAyMDAgMHMyMDAgODkuMiAyMDAgMjAwaC02Ni42NjdjMC03My44NjctNTkuNDY3LTEzMy4zMzMtMTMzLjMzMy0xMzMuMzMzUzY2LjY2NyAxMjYuMTMzIDY2LjY2NyAyMDB6IiBmaWxsPSJ1cmwoI0EpIiBzdHJva2U9InVybCgjQikiIGZpbHRlcj0idXJsKCNDKSIvPjxkZWZzLz48ZyB0cmFuc2Zvcm09Im1hdHJpeCguNzkwMDg1IC42MTI5OTcgLS42MTI5OTcgLjc5MDA4NSA5OC43ODczNjcgNjIuMzMwNzk4KSI+PHBhdGggZD0iTTEzNi41MzEgMS40NkwwIDI1bDE0NSAyNWMxMy44NSAwIDI1LTExLjE1IDI1LTI1UzE1OC44NSAwIDE0NSAweiIgZmlsbD0iIzI2MzIzOCIgc3Ryb2tlPSJub25lIiBmaWx0ZXI9InVybCgjRCkiLz48ZGVmcy8+PC9nPjwvc3ltYm9sPjwvc3ZnPg==;" parent="b8BD9XCkIVk2qIrVJM-4-14" vertex="1">
          <mxGeometry x="18.180000000000007" y="9.5" width="17.48" height="9" as="geometry" />
        </mxCell>
        <mxCell id="1_0IsVTJaaztju_kB3RN-110" style="rounded=0;orthogonalLoop=1;jettySize=auto;html=1;fontFamily=Manrope;fontSize=12;endArrow=oval;endFill=1;startArrow=oval;startFill=1;exitX=0.5;exitY=0;exitDx=0;exitDy=0;strokeColor=#98A2AE;entryX=0.5;entryY=1;entryDx=0;entryDy=0;fontColor=#FFFFFF;" parent="40gmzU7N6CrraNhJ04Ad-1" source="b8BD9XCkIVk2qIrVJM-4-16" target="1_0IsVTJaaztju_kB3RN-14" edge="1">
          <mxGeometry relative="1" as="geometry">
            <mxPoint x="381.3766666666668" y="631" as="sourcePoint" />
            <mxPoint x="401.38" y="611" as="targetPoint" />
          </mxGeometry>
        </mxCell>
        <mxCell id="b8BD9XCkIVk2qIrVJM-4-19" value="" style="whiteSpace=wrap;html=1;aspect=fixed;strokeColor=none;connectable=1;allowArrows=1;fontFamily=Manrope;fontSource=https%3A%2F%2Ffonts.googleapis.com%2Fcss%3Ffamily%3DManrope;fontColor=#FFFFFF;fillColor=#00C9FF;" parent="40gmzU7N6CrraNhJ04Ad-1" vertex="1">
          <mxGeometry x="496" y="455.5" width="16" height="16" as="geometry" />
        </mxCell>
        <mxCell id="b8BD9XCkIVk2qIrVJM-4-20" value="traditional virtual router&lt;br&gt;packaged in a container" style="text;html=1;align=left;verticalAlign=middle;resizable=0;points=[];autosize=1;fontSize=12;fontFamily=Manrope;fontStyle=0;fontColor=#FFFFFF;" parent="40gmzU7N6CrraNhJ04Ad-1" vertex="1">
          <mxGeometry x="523" y="447" width="142" height="33" as="geometry" />
        </mxCell>
        <mxCell id="b8BD9XCkIVk2qIrVJM-4-22" value="containerized NOS vendor A" style="text;html=1;align=left;verticalAlign=middle;resizable=0;points=[];autosize=1;fontSize=12;fontFamily=Manrope;fontStyle=0;fontColor=#FFFFFF;" parent="40gmzU7N6CrraNhJ04Ad-1" vertex="1">
          <mxGeometry x="521" y="498.5" width="165" height="19" as="geometry" />
        </mxCell>
        <mxCell id="b8BD9XCkIVk2qIrVJM-4-21" value="" style="whiteSpace=wrap;html=1;aspect=fixed;strokeColor=none;connectable=1;allowArrows=1;fontFamily=Manrope;fontSource=https%3A%2F%2Ffonts.googleapis.com%2Fcss%3Ffamily%3DManrope;fontColor=#FFFFFF;fillColor=#BEC8D2;" parent="40gmzU7N6CrraNhJ04Ad-1" vertex="1">
          <mxGeometry x="496" y="500" width="16" height="16" as="geometry" />
        </mxCell>
        <mxCell id="b8BD9XCkIVk2qIrVJM-4-23" value="containerized NOS vendor B" style="text;html=1;align=left;verticalAlign=middle;resizable=0;points=[];autosize=1;fontSize=12;fontFamily=Manrope;fontStyle=0;fontColor=#FFFFFF;" parent="40gmzU7N6CrraNhJ04Ad-1" vertex="1">
          <mxGeometry x="521" y="536" width="164" height="19" as="geometry" />
        </mxCell>
        <mxCell id="b8BD9XCkIVk2qIrVJM-4-24" value="" style="whiteSpace=wrap;html=1;aspect=fixed;strokeColor=none;connectable=1;allowArrows=1;fontFamily=Manrope;fontSource=https%3A%2F%2Ffonts.googleapis.com%2Fcss%3Ffamily%3DManrope;fontColor=#FFFFFF;fillColor=#001135;" parent="40gmzU7N6CrraNhJ04Ad-1" vertex="1">
          <mxGeometry x="496" y="537.5" width="16" height="16" as="geometry" />
        </mxCell>
        <mxCell id="VTNL-60mLHvjNRmZMfCQ-0" value="" style="rounded=0;whiteSpace=wrap;html=1;fontFamily=Manrope;fontSize=8;strokeColor=none;fontSource=https%3A%2F%2Ffonts.googleapis.com%2Fcss%3Ffamily%3DManrope;fillColor=#BEC8D2;" parent="40gmzU7N6CrraNhJ04Ad-1" vertex="1">
          <mxGeometry x="415.5" y="867" width="323" height="183.62" as="geometry" />
        </mxCell>
        <mxCell id="VTNL-60mLHvjNRmZMfCQ-1" value="" style="rounded=0;whiteSpace=wrap;html=1;fontFamily=Manrope;fontSize=8;strokeColor=none;fillColor=#DDE9F5;fontSource=https%3A%2F%2Ffonts.googleapis.com%2Fcss%3Ffamily%3DManrope;" parent="40gmzU7N6CrraNhJ04Ad-1" vertex="1">
          <mxGeometry x="83" y="780" width="144" height="96" as="geometry" />
        </mxCell>
        <mxCell id="VTNL-60mLHvjNRmZMfCQ-2" value="node1" style="text;html=1;align=left;verticalAlign=middle;resizable=0;points=[];autosize=1;fontSize=10;fontFamily=Manrope;rotation=0;fontSource=https%3A%2F%2Ffonts.googleapis.com%2Fcss%3Ffamily%3DManrope;fontColor=#001135;fontStyle=1" parent="40gmzU7N6CrraNhJ04Ad-1" vertex="1">
          <mxGeometry x="85" y="787" width="38" height="16" as="geometry" />
        </mxCell>
        <mxCell id="VTNL-60mLHvjNRmZMfCQ-3" value="" style="rounded=0;whiteSpace=wrap;html=1;fontFamily=Manrope;fontSize=8;strokeColor=none;fillColor=#DDE9F5;fontSource=https%3A%2F%2Ffonts.googleapis.com%2Fcss%3Ffamily%3DManrope;" parent="40gmzU7N6CrraNhJ04Ad-1" vertex="1">
          <mxGeometry x="83" y="902" width="144" height="96" as="geometry" />
        </mxCell>
        <mxCell id="VTNL-60mLHvjNRmZMfCQ-4" value="node2" style="text;html=1;align=left;verticalAlign=middle;resizable=0;points=[];autosize=1;fontSize=10;fontFamily=Manrope;rotation=0;fontSource=https%3A%2F%2Ffonts.googleapis.com%2Fcss%3Ffamily%3DManrope;fontColor=#001135;fontStyle=1" parent="40gmzU7N6CrraNhJ04Ad-1" vertex="1">
          <mxGeometry x="85" y="909" width="39" height="16" as="geometry" />
        </mxCell>
        <mxCell id="VTNL-60mLHvjNRmZMfCQ-7" value="" style="group" parent="40gmzU7N6CrraNhJ04Ad-1" vertex="1" connectable="0">
          <mxGeometry x="528.5" y="960.12" width="50" height="50" as="geometry" />
        </mxCell>
        <mxCell id="VTNL-60mLHvjNRmZMfCQ-8" value="" style="group" parent="VTNL-60mLHvjNRmZMfCQ-7" vertex="1" connectable="0">
          <mxGeometry width="50" height="50" as="geometry" />
        </mxCell>
        <mxCell id="VTNL-60mLHvjNRmZMfCQ-9" value="" style="whiteSpace=wrap;html=1;aspect=fixed;fillColor=#001135;strokeColor=none;connectable=1;allowArrows=1;fontFamily=Manrope;fontSource=https%3A%2F%2Ffonts.googleapis.com%2Fcss%3Ffamily%3DManrope;" parent="VTNL-60mLHvjNRmZMfCQ-8" vertex="1">
          <mxGeometry width="50" height="50" as="geometry" />
        </mxCell>
        <mxCell id="VTNL-60mLHvjNRmZMfCQ-10" value="" style="endArrow=open;html=1;edgeStyle=orthogonalEdgeStyle;rounded=0;endFill=0;startSize=6;endSize=2;strokeColor=#FFFFFF;fontFamily=Manrope;fontSource=https%3A%2F%2Ffonts.googleapis.com%2Fcss%3Ffamily%3DManrope;" parent="VTNL-60mLHvjNRmZMfCQ-8" edge="1">
          <mxGeometry width="83.33333333333334" height="83.33333333333334" as="geometry">
            <mxPoint x="5" y="20" as="sourcePoint" />
            <mxPoint x="18.333333333333336" y="5" as="targetPoint" />
            <Array as="points">
              <mxPoint x="18.333333333333336" y="20" />
            </Array>
          </mxGeometry>
        </mxCell>
        <mxCell id="VTNL-60mLHvjNRmZMfCQ-11" value="" style="endArrow=open;html=1;edgeStyle=orthogonalEdgeStyle;rounded=0;endFill=0;startSize=6;endSize=2;strokeColor=#FFFFFF;fontFamily=Manrope;fontSource=https%3A%2F%2Ffonts.googleapis.com%2Fcss%3Ffamily%3DManrope;" parent="VTNL-60mLHvjNRmZMfCQ-8" edge="1">
          <mxGeometry width="83.33333333333334" height="83.33333333333334" as="geometry">
            <mxPoint x="18.333333333333336" y="45" as="sourcePoint" />
            <mxPoint x="5" y="31.666666666666668" as="targetPoint" />
            <Array as="points">
              <mxPoint x="18.333333333333336" y="31.666666666666668" />
            </Array>
          </mxGeometry>
        </mxCell>
        <mxCell id="VTNL-60mLHvjNRmZMfCQ-12" value="" style="endArrow=open;html=1;edgeStyle=orthogonalEdgeStyle;rounded=0;endFill=0;startSize=6;endSize=2;strokeColor=#FFFFFF;fontFamily=Manrope;fontSource=https%3A%2F%2Ffonts.googleapis.com%2Fcss%3Ffamily%3DManrope;" parent="VTNL-60mLHvjNRmZMfCQ-8" edge="1">
          <mxGeometry width="83.33333333333334" height="83.33333333333334" as="geometry">
            <mxPoint x="30" y="5" as="sourcePoint" />
            <mxPoint x="45" y="20" as="targetPoint" />
            <Array as="points">
              <mxPoint x="30" y="20" />
            </Array>
          </mxGeometry>
        </mxCell>
        <mxCell id="VTNL-60mLHvjNRmZMfCQ-13" value="" style="endArrow=open;html=1;edgeStyle=orthogonalEdgeStyle;rounded=0;endFill=0;startSize=6;endSize=2;strokeColor=#FFFFFF;fontFamily=Manrope;fontSource=https%3A%2F%2Ffonts.googleapis.com%2Fcss%3Ffamily%3DManrope;" parent="VTNL-60mLHvjNRmZMfCQ-8" edge="1">
          <mxGeometry width="83.33333333333334" height="83.33333333333334" as="geometry">
            <mxPoint x="45" y="31.666666666666668" as="sourcePoint" />
            <mxPoint x="30" y="45" as="targetPoint" />
            <Array as="points">
              <mxPoint x="30" y="31.666666666666668" />
            </Array>
          </mxGeometry>
        </mxCell>
        <mxCell id="VTNL-60mLHvjNRmZMfCQ-14" value="&lt;font&gt;SR OS&lt;/font&gt;" style="text;html=1;align=center;verticalAlign=middle;resizable=0;points=[];autosize=1;fontSize=14;fontFamily=Manrope;fontStyle=0;fontColor=#FFFFFF;" parent="40gmzU7N6CrraNhJ04Ad-1" vertex="1">
          <mxGeometry x="529.5" y="1012.12" width="49" height="21" as="geometry" />
        </mxCell>
        <mxCell id="VTNL-60mLHvjNRmZMfCQ-15" value="" style="endArrow=none;html=1;shadow=0;strokeWidth=4;fillColor=#666666;fontFamily=nasa;fontSize=18;fontColor=#FFFFFF;strokeColor=#4BDD33;" parent="40gmzU7N6CrraNhJ04Ad-1" edge="1">
          <mxGeometry width="50" height="50" relative="1" as="geometry">
            <mxPoint x="532.5" y="920.1199999999999" as="sourcePoint" />
            <mxPoint x="713.5" y="920.1199999999999" as="targetPoint" />
          </mxGeometry>
        </mxCell>
        <mxCell id="VTNL-60mLHvjNRmZMfCQ-16" style="edgeStyle=orthogonalEdgeStyle;rounded=0;orthogonalLoop=1;jettySize=auto;html=1;fontFamily=Manrope;fontSize=12;fontColor=#FFFFFF;endArrow=oval;endFill=1;startArrow=oval;startFill=1;strokeColor=#4BDD33;" parent="40gmzU7N6CrraNhJ04Ad-1" target="VTNL-60mLHvjNRmZMfCQ-9" edge="1">
          <mxGeometry relative="1" as="geometry">
            <mxPoint x="553.5" y="920.1199999999999" as="sourcePoint" />
            <mxPoint x="553.4949999999999" y="948.12" as="targetPoint" />
          </mxGeometry>
        </mxCell>
        <mxCell id="VTNL-60mLHvjNRmZMfCQ-17" value="" style="group" parent="40gmzU7N6CrraNhJ04Ad-1" vertex="1" connectable="0">
          <mxGeometry x="663.5" y="960.12" width="50" height="50" as="geometry" />
        </mxCell>
        <mxCell id="VTNL-60mLHvjNRmZMfCQ-18" value="" style="group" parent="VTNL-60mLHvjNRmZMfCQ-17" vertex="1" connectable="0">
          <mxGeometry width="50" height="50" as="geometry" />
        </mxCell>
        <mxCell id="VTNL-60mLHvjNRmZMfCQ-19" value="" style="whiteSpace=wrap;html=1;aspect=fixed;fillColor=#001135;strokeColor=none;connectable=1;allowArrows=1;fontFamily=Manrope;fontSource=https%3A%2F%2Ffonts.googleapis.com%2Fcss%3Ffamily%3DManrope;" parent="VTNL-60mLHvjNRmZMfCQ-18" vertex="1">
          <mxGeometry width="50" height="50" as="geometry" />
        </mxCell>
        <mxCell id="VTNL-60mLHvjNRmZMfCQ-20" value="" style="endArrow=open;html=1;edgeStyle=orthogonalEdgeStyle;rounded=0;endFill=0;startSize=6;endSize=2;strokeColor=#FFFFFF;fontFamily=Manrope;fontSource=https%3A%2F%2Ffonts.googleapis.com%2Fcss%3Ffamily%3DManrope;" parent="VTNL-60mLHvjNRmZMfCQ-18" edge="1">
          <mxGeometry width="83.33333333333334" height="83.33333333333334" as="geometry">
            <mxPoint x="5" y="20" as="sourcePoint" />
            <mxPoint x="18.333333333333336" y="5" as="targetPoint" />
            <Array as="points">
              <mxPoint x="18.333333333333336" y="20" />
            </Array>
          </mxGeometry>
        </mxCell>
        <mxCell id="VTNL-60mLHvjNRmZMfCQ-21" value="" style="endArrow=open;html=1;edgeStyle=orthogonalEdgeStyle;rounded=0;endFill=0;startSize=6;endSize=2;strokeColor=#FFFFFF;fontFamily=Manrope;fontSource=https%3A%2F%2Ffonts.googleapis.com%2Fcss%3Ffamily%3DManrope;" parent="VTNL-60mLHvjNRmZMfCQ-18" edge="1">
          <mxGeometry width="83.33333333333334" height="83.33333333333334" as="geometry">
            <mxPoint x="18.333333333333336" y="45" as="sourcePoint" />
            <mxPoint x="5" y="31.666666666666668" as="targetPoint" />
            <Array as="points">
              <mxPoint x="18.333333333333336" y="31.666666666666668" />
            </Array>
          </mxGeometry>
        </mxCell>
        <mxCell id="VTNL-60mLHvjNRmZMfCQ-22" value="" style="endArrow=open;html=1;edgeStyle=orthogonalEdgeStyle;rounded=0;endFill=0;startSize=6;endSize=2;strokeColor=#FFFFFF;fontFamily=Manrope;fontSource=https%3A%2F%2Ffonts.googleapis.com%2Fcss%3Ffamily%3DManrope;" parent="VTNL-60mLHvjNRmZMfCQ-18" edge="1">
          <mxGeometry width="83.33333333333334" height="83.33333333333334" as="geometry">
            <mxPoint x="30" y="5" as="sourcePoint" />
            <mxPoint x="45" y="20" as="targetPoint" />
            <Array as="points">
              <mxPoint x="30" y="20" />
            </Array>
          </mxGeometry>
        </mxCell>
        <mxCell id="VTNL-60mLHvjNRmZMfCQ-23" value="" style="endArrow=open;html=1;edgeStyle=orthogonalEdgeStyle;rounded=0;endFill=0;startSize=6;endSize=2;strokeColor=#FFFFFF;fontFamily=Manrope;fontSource=https%3A%2F%2Ffonts.googleapis.com%2Fcss%3Ffamily%3DManrope;" parent="VTNL-60mLHvjNRmZMfCQ-18" edge="1">
          <mxGeometry width="83.33333333333334" height="83.33333333333334" as="geometry">
            <mxPoint x="45" y="31.666666666666668" as="sourcePoint" />
            <mxPoint x="30" y="45" as="targetPoint" />
            <Array as="points">
              <mxPoint x="30" y="31.666666666666668" />
            </Array>
          </mxGeometry>
        </mxCell>
        <mxCell id="VTNL-60mLHvjNRmZMfCQ-24" value="&lt;font&gt;vMX&lt;/font&gt;" style="text;html=1;align=center;verticalAlign=middle;resizable=0;points=[];autosize=1;fontSize=14;fontFamily=Manrope;fontStyle=0;fontColor=#FFFFFF;" parent="40gmzU7N6CrraNhJ04Ad-1" vertex="1">
          <mxGeometry x="670" y="1012.12" width="37" height="21" as="geometry" />
        </mxCell>
        <mxCell id="VTNL-60mLHvjNRmZMfCQ-25" style="edgeStyle=orthogonalEdgeStyle;rounded=0;orthogonalLoop=1;jettySize=auto;html=1;fontFamily=Manrope;fontSize=12;fontColor=#FFFFFF;endArrow=oval;endFill=1;startArrow=oval;startFill=1;strokeColor=#4BDD33;" parent="40gmzU7N6CrraNhJ04Ad-1" edge="1">
          <mxGeometry relative="1" as="geometry">
            <mxPoint x="688.2600000000002" y="920.1199999999999" as="sourcePoint" />
            <mxPoint x="688.2600000000002" y="960.1199999999999" as="targetPoint" />
          </mxGeometry>
        </mxCell>
        <mxCell id="VTNL-60mLHvjNRmZMfCQ-26" style="edgeStyle=orthogonalEdgeStyle;rounded=0;orthogonalLoop=1;jettySize=auto;html=1;fontFamily=Manrope;fontSize=12;fontColor=#FFFFFF;endArrow=oval;endFill=1;startArrow=oval;startFill=1;entryX=1;entryY=0.5;entryDx=0;entryDy=0;exitX=0;exitY=0.5;exitDx=0;exitDy=0;strokeColor=#98A2AE;" parent="40gmzU7N6CrraNhJ04Ad-1" source="VTNL-60mLHvjNRmZMfCQ-28" target="VTNL-60mLHvjNRmZMfCQ-27" edge="1">
          <mxGeometry relative="1" as="geometry">
            <mxPoint x="558.5" y="925.12" as="sourcePoint" />
            <mxPoint x="558.5" y="965.12" as="targetPoint" />
          </mxGeometry>
        </mxCell>
        <mxCell id="VTNL-60mLHvjNRmZMfCQ-27" value="1/1/1" style="rounded=0;whiteSpace=wrap;html=1;fontFamily=Manrope;fontSize=12;fontColor=#FFFFFF;align=center;strokeColor=none;rotation=0;horizontal=1;fillColor=#98A2AE;" parent="40gmzU7N6CrraNhJ04Ad-1" vertex="1">
          <mxGeometry x="578.5" y="976.99" width="30" height="16.25" as="geometry" />
        </mxCell>
        <mxCell id="VTNL-60mLHvjNRmZMfCQ-28" value="0/0/0" style="rounded=0;whiteSpace=wrap;html=1;fontFamily=Manrope;fontSize=12;fontColor=#FFFFFF;align=center;strokeColor=none;rotation=0;horizontal=1;fillColor=#98A2AE;" parent="40gmzU7N6CrraNhJ04Ad-1" vertex="1">
          <mxGeometry x="633.5" y="976.5" width="30" height="16.25" as="geometry" />
        </mxCell>
        <mxCell id="VTNL-60mLHvjNRmZMfCQ-29" value="&lt;font style=&quot;font-size: 12px&quot;&gt;&lt;font color=&quot;#ffffff&quot;&gt;docker network:&lt;/font&gt;&lt;br&gt;&lt;/font&gt;&lt;span style=&quot;font-size: 12px&quot;&gt;bridge (172.20.20.0/24)&lt;/span&gt;" style="text;html=1;align=right;verticalAlign=middle;resizable=0;points=[];autosize=1;fontSize=10;fontFamily=Manrope;fontColor=#001135;" parent="40gmzU7N6CrraNhJ04Ad-1" vertex="1">
          <mxGeometry x="575.5" y="885.62" width="138" height="28" as="geometry" />
        </mxCell>
        <mxCell id="VTNL-60mLHvjNRmZMfCQ-30" value="node3" style="text;html=1;align=left;verticalAlign=middle;resizable=0;points=[];autosize=1;fontSize=10;fontFamily=Manrope;rotation=0;fontSource=https%3A%2F%2Ffonts.googleapis.com%2Fcss%3Ffamily%3DManrope;fontColor=#001135;fontStyle=1" parent="40gmzU7N6CrraNhJ04Ad-1" vertex="1">
          <mxGeometry x="420.5" y="871.62" width="39" height="16" as="geometry" />
        </mxCell>
        <mxCell id="VTNL-60mLHvjNRmZMfCQ-31" value="" style="endArrow=none;html=1;shadow=0;strokeWidth=4;fillColor=#666666;fontFamily=nasa;fontSize=18;fontColor=#FFFFFF;strokeColor=#00C9FF;" parent="40gmzU7N6CrraNhJ04Ad-1" edge="1">
          <mxGeometry width="50" height="50" relative="1" as="geometry">
            <mxPoint x="314" y="797" as="sourcePoint" />
            <mxPoint x="314" y="1016" as="targetPoint" />
          </mxGeometry>
        </mxCell>
        <mxCell id="VTNL-60mLHvjNRmZMfCQ-32" value="&lt;font color=&quot;#ffffff&quot;&gt;&lt;span style=&quot;font-size: 12px&quot;&gt;management network&lt;/span&gt;&lt;/font&gt;" style="text;html=1;align=right;verticalAlign=middle;resizable=0;points=[];autosize=1;fontSize=10;fontFamily=Manrope;fontColor=#001135;" parent="40gmzU7N6CrraNhJ04Ad-1" vertex="1">
          <mxGeometry x="247" y="773" width="131" height="16" as="geometry" />
        </mxCell>
        <mxCell id="VTNL-60mLHvjNRmZMfCQ-33" value="eth0" style="rounded=0;whiteSpace=wrap;html=1;fontFamily=Manrope;fontSize=12;fontColor=#FFFFFF;align=center;strokeColor=none;rotation=0;horizontal=1;fillColor=#98A2AE;" parent="40gmzU7N6CrraNhJ04Ad-1" vertex="1">
          <mxGeometry x="193" y="819.87" width="34" height="16.25" as="geometry" />
        </mxCell>
        <mxCell id="VTNL-60mLHvjNRmZMfCQ-34" style="edgeStyle=orthogonalEdgeStyle;rounded=0;orthogonalLoop=1;jettySize=auto;html=1;fontFamily=Manrope;fontSize=12;fontColor=#FFFFFF;endArrow=oval;endFill=1;startArrow=oval;startFill=1;strokeColor=#00C9FF;" parent="40gmzU7N6CrraNhJ04Ad-1" target="VTNL-60mLHvjNRmZMfCQ-1" edge="1">
          <mxGeometry relative="1" as="geometry">
            <mxPoint x="314" y="828" as="sourcePoint" />
            <mxPoint x="554.5" y="961.1199999999999" as="targetPoint" />
          </mxGeometry>
        </mxCell>
        <mxCell id="VTNL-60mLHvjNRmZMfCQ-35" value="eth0" style="rounded=0;whiteSpace=wrap;html=1;fontFamily=Manrope;fontSize=12;fontColor=#FFFFFF;align=center;strokeColor=none;rotation=0;horizontal=1;fillColor=#98A2AE;" parent="40gmzU7N6CrraNhJ04Ad-1" vertex="1">
          <mxGeometry x="193" y="946" width="34" height="16.25" as="geometry" />
        </mxCell>
        <mxCell id="VTNL-60mLHvjNRmZMfCQ-38" style="edgeStyle=orthogonalEdgeStyle;rounded=0;orthogonalLoop=1;jettySize=auto;html=1;fontFamily=Manrope;fontSize=12;fontColor=#FFFFFF;endArrow=oval;endFill=1;startArrow=oval;startFill=1;strokeColor=#00C9FF;" parent="40gmzU7N6CrraNhJ04Ad-1" edge="1">
          <mxGeometry relative="1" as="geometry">
            <mxPoint x="314" y="955" as="sourcePoint" />
            <mxPoint x="227" y="955" as="targetPoint" />
          </mxGeometry>
        </mxCell>
        <mxCell id="VTNL-60mLHvjNRmZMfCQ-39" value="eth0" style="rounded=0;whiteSpace=wrap;html=1;fontFamily=Manrope;fontSize=12;fontColor=#FFFFFF;align=center;strokeColor=none;rotation=0;horizontal=1;fillColor=#98A2AE;" parent="40gmzU7N6CrraNhJ04Ad-1" vertex="1">
          <mxGeometry x="415.5" y="969" width="34" height="16.25" as="geometry" />
        </mxCell>
        <mxCell id="VTNL-60mLHvjNRmZMfCQ-40" style="edgeStyle=orthogonalEdgeStyle;rounded=0;orthogonalLoop=1;jettySize=auto;html=1;fontFamily=Manrope;fontSize=12;fontColor=#FFFFFF;endArrow=oval;endFill=1;startArrow=oval;startFill=1;strokeColor=#00C9FF;" parent="40gmzU7N6CrraNhJ04Ad-1" edge="1">
          <mxGeometry relative="1" as="geometry">
            <mxPoint x="415.5" y="976.9900000000002" as="sourcePoint" />
            <mxPoint x="312.9999999999998" y="977" as="targetPoint" />
          </mxGeometry>
        </mxCell>
        <mxCell id="VTNL-60mLHvjNRmZMfCQ-41" value="Deployment scenario 2&lt;br&gt;network topology sits on one of the k8s nodes" style="text;html=1;align=center;verticalAlign=middle;resizable=0;points=[];autosize=1;fontSize=16;fontFamily=Manrope;rotation=0;fontSource=https%3A%2F%2Ffonts.googleapis.com%2Fcss%3Ffamily%3DManrope;fontStyle=1;fontColor=#FFFFFF;" parent="40gmzU7N6CrraNhJ04Ad-1" vertex="1">
          <mxGeometry x="221" y="1087" width="348" height="42" as="geometry" />
        </mxCell>
        <mxCell id="VTNL-60mLHvjNRmZMfCQ-42" value="MDM" style="ellipse;whiteSpace=wrap;html=1;aspect=fixed;fontFamily=Manrope;fontColor=#FFFFFF;fillColor=#124191;strokeColor=none;align=center;fontSource=https%3A%2F%2Ffonts.googleapis.com%2Fcss%3Ffamily%3DManrope;" parent="40gmzU7N6CrraNhJ04Ad-1" vertex="1">
          <mxGeometry x="429" y="1004.12" width="37" height="37" as="geometry" />
        </mxCell>
      </root>
    </mxGraphModel>
  </diagram>
  <diagram id="Khph3PqPDEhso5TD_hjs" name="Page-3">
    <mxGraphModel dx="821" dy="460" grid="1" gridSize="10" guides="1" tooltips="1" connect="1" arrows="1" fold="1" page="1" pageScale="1" pageWidth="827" pageHeight="1169" math="0" shadow="0">
      <root>
        <mxCell id="2upizIhYN-TkKk-zCFRQ-0" />
        <mxCell id="2upizIhYN-TkKk-zCFRQ-1" parent="2upizIhYN-TkKk-zCFRQ-0" />
        <mxCell id="2upizIhYN-TkKk-zCFRQ-3" value="" style="endArrow=none;html=1;" edge="1" parent="2upizIhYN-TkKk-zCFRQ-1">
          <mxGeometry width="50" height="50" relative="1" as="geometry">
            <mxPoint x="230" y="260" as="sourcePoint" />
            <mxPoint x="260" y="230" as="targetPoint" />
          </mxGeometry>
        </mxCell>
        <mxCell id="2upizIhYN-TkKk-zCFRQ-4" value="" style="endArrow=none;html=1;" edge="1" parent="2upizIhYN-TkKk-zCFRQ-1">
          <mxGeometry width="50" height="50" relative="1" as="geometry">
            <mxPoint x="470" y="260" as="sourcePoint" />
            <mxPoint x="500" y="230" as="targetPoint" />
          </mxGeometry>
        </mxCell>
        <mxCell id="2upizIhYN-TkKk-zCFRQ-5" value="" style="endArrow=none;html=1;" edge="1" parent="2upizIhYN-TkKk-zCFRQ-1">
          <mxGeometry width="50" height="50" relative="1" as="geometry">
            <mxPoint x="500" y="230" as="sourcePoint" />
            <mxPoint x="260" y="230" as="targetPoint" />
          </mxGeometry>
        </mxCell>
        <mxCell id="2upizIhYN-TkKk-zCFRQ-6" value="" style="endArrow=none;html=1;" edge="1" parent="2upizIhYN-TkKk-zCFRQ-1">
          <mxGeometry width="50" height="50" relative="1" as="geometry">
            <mxPoint x="470" y="440" as="sourcePoint" />
            <mxPoint x="500" y="410" as="targetPoint" />
          </mxGeometry>
        </mxCell>
        <mxCell id="2upizIhYN-TkKk-zCFRQ-7" value="" style="endArrow=none;html=1;" edge="1" parent="2upizIhYN-TkKk-zCFRQ-1">
          <mxGeometry width="50" height="50" relative="1" as="geometry">
            <mxPoint x="500" y="230" as="sourcePoint" />
            <mxPoint x="500" y="410" as="targetPoint" />
          </mxGeometry>
        </mxCell>
        <mxCell id="2upizIhYN-TkKk-zCFRQ-8" value="" style="endArrow=none;html=1;" edge="1" parent="2upizIhYN-TkKk-zCFRQ-1">
          <mxGeometry width="50" height="50" relative="1" as="geometry">
            <mxPoint x="200" y="290" as="sourcePoint" />
            <mxPoint x="230" y="260" as="targetPoint" />
          </mxGeometry>
        </mxCell>
        <mxCell id="2upizIhYN-TkKk-zCFRQ-9" value="" style="endArrow=none;html=1;" edge="1" parent="2upizIhYN-TkKk-zCFRQ-1">
          <mxGeometry width="50" height="50" relative="1" as="geometry">
            <mxPoint x="440" y="290" as="sourcePoint" />
            <mxPoint x="470" y="260" as="targetPoint" />
          </mxGeometry>
        </mxCell>
        <mxCell id="2upizIhYN-TkKk-zCFRQ-10" value="" style="endArrow=none;html=1;" edge="1" parent="2upizIhYN-TkKk-zCFRQ-1">
          <mxGeometry width="50" height="50" relative="1" as="geometry">
            <mxPoint x="440" y="290" as="sourcePoint" />
            <mxPoint x="200" y="290" as="targetPoint" />
          </mxGeometry>
        </mxCell>
        <mxCell id="2upizIhYN-TkKk-zCFRQ-11" value="" style="endArrow=none;html=1;" edge="1" parent="2upizIhYN-TkKk-zCFRQ-1">
          <mxGeometry width="50" height="50" relative="1" as="geometry">
            <mxPoint x="200" y="290" as="sourcePoint" />
            <mxPoint x="200" y="300" as="targetPoint" />
          </mxGeometry>
        </mxCell>
        <mxCell id="2upizIhYN-TkKk-zCFRQ-12" value="" style="endArrow=none;html=1;" edge="1" parent="2upizIhYN-TkKk-zCFRQ-1">
          <mxGeometry width="50" height="50" relative="1" as="geometry">
            <mxPoint x="440" y="300" as="sourcePoint" />
            <mxPoint x="200" y="300" as="targetPoint" />
          </mxGeometry>
        </mxCell>
        <mxCell id="2upizIhYN-TkKk-zCFRQ-13" value="" style="endArrow=none;html=1;" edge="1" parent="2upizIhYN-TkKk-zCFRQ-1">
          <mxGeometry width="50" height="50" relative="1" as="geometry">
            <mxPoint x="440" y="290" as="sourcePoint" />
            <mxPoint x="440" y="300" as="targetPoint" />
          </mxGeometry>
        </mxCell>
        <mxCell id="2upizIhYN-TkKk-zCFRQ-14" value="" style="endArrow=none;html=1;" edge="1" parent="2upizIhYN-TkKk-zCFRQ-1">
          <mxGeometry width="50" height="50" relative="1" as="geometry">
            <mxPoint x="440" y="300" as="sourcePoint" />
            <mxPoint x="470" y="270" as="targetPoint" />
          </mxGeometry>
        </mxCell>
        <mxCell id="2upizIhYN-TkKk-zCFRQ-16" value="" style="endArrow=classicThin;html=1;startArrow=classicThin;startFill=0;fillColor=#f5f5f5;strokeColor=#BEC8D2;endFill=0;" edge="1" parent="2upizIhYN-TkKk-zCFRQ-1">
          <mxGeometry width="50" height="50" relative="1" as="geometry">
            <mxPoint x="120" y="290" as="sourcePoint" />
            <mxPoint x="180" y="230" as="targetPoint" />
          </mxGeometry>
        </mxCell>
        <mxCell id="2upizIhYN-TkKk-zCFRQ-19" value="39" style="edgeLabel;html=1;align=center;verticalAlign=middle;resizable=0;points=[];" vertex="1" connectable="0" parent="2upizIhYN-TkKk-zCFRQ-16">
          <mxGeometry x="0.05" y="1" relative="1" as="geometry">
            <mxPoint as="offset" />
          </mxGeometry>
        </mxCell>
        <mxCell id="2upizIhYN-TkKk-zCFRQ-17" value="" style="endArrow=none;html=1;strokeColor=#BEC8D2;dashed=1;" edge="1" parent="2upizIhYN-TkKk-zCFRQ-1">
          <mxGeometry width="50" height="50" relative="1" as="geometry">
            <mxPoint x="160" y="290" as="sourcePoint" />
            <mxPoint x="110" y="290" as="targetPoint" />
          </mxGeometry>
        </mxCell>
        <mxCell id="2upizIhYN-TkKk-zCFRQ-18" value="" style="endArrow=none;html=1;strokeColor=#BEC8D2;dashed=1;" edge="1" parent="2upizIhYN-TkKk-zCFRQ-1">
          <mxGeometry width="50" height="50" relative="1" as="geometry">
            <mxPoint x="250" y="230" as="sourcePoint" />
            <mxPoint x="160" y="230" as="targetPoint" />
          </mxGeometry>
        </mxCell>
        <mxCell id="2upizIhYN-TkKk-zCFRQ-20" value="" style="endArrow=none;html=1;strokeColor=#BEC8D2;dashed=1;" edge="1" parent="2upizIhYN-TkKk-zCFRQ-1">
          <mxGeometry width="50" height="50" relative="1" as="geometry">
            <mxPoint x="220" y="260" as="sourcePoint" />
            <mxPoint x="170" y="260" as="targetPoint" />
          </mxGeometry>
        </mxCell>
        <mxCell id="2upizIhYN-TkKk-zCFRQ-21" value="" style="endArrow=classicThin;html=1;startArrow=classicThin;startFill=0;fillColor=#f5f5f5;strokeColor=#BEC8D2;endFill=0;" edge="1" parent="2upizIhYN-TkKk-zCFRQ-1">
          <mxGeometry width="50" height="50" relative="1" as="geometry">
            <mxPoint x="190" y="260" as="sourcePoint" />
            <mxPoint x="220" y="230" as="targetPoint" />
          </mxGeometry>
        </mxCell>
        <mxCell id="2upizIhYN-TkKk-zCFRQ-22" value="20" style="edgeLabel;html=1;align=center;verticalAlign=middle;resizable=0;points=[];" vertex="1" connectable="0" parent="2upizIhYN-TkKk-zCFRQ-21">
          <mxGeometry x="0.05" y="1" relative="1" as="geometry">
            <mxPoint as="offset" />
          </mxGeometry>
        </mxCell>
        <mxCell id="2upizIhYN-TkKk-zCFRQ-23" value="" style="endArrow=none;html=1;entryX=0;entryY=1;entryDx=0;entryDy=0;" edge="1" parent="2upizIhYN-TkKk-zCFRQ-1">
          <mxGeometry width="50" height="50" relative="1" as="geometry">
            <mxPoint x="230" y="300" as="sourcePoint" />
            <mxPoint x="230" y="440" as="targetPoint" />
          </mxGeometry>
        </mxCell>
        <mxCell id="2upizIhYN-TkKk-zCFRQ-24" value="" style="endArrow=none;html=1;dashed=1;" edge="1" parent="2upizIhYN-TkKk-zCFRQ-1">
          <mxGeometry width="50" height="50" relative="1" as="geometry">
            <mxPoint x="230" y="260" as="sourcePoint" />
            <mxPoint x="470" y="260" as="targetPoint" />
          </mxGeometry>
        </mxCell>
        <mxCell id="2upizIhYN-TkKk-zCFRQ-25" value="" style="endArrow=none;html=1;entryX=0;entryY=1;entryDx=0;entryDy=0;" edge="1" parent="2upizIhYN-TkKk-zCFRQ-1">
          <mxGeometry width="50" height="50" relative="1" as="geometry">
            <mxPoint x="470" y="260" as="sourcePoint" />
            <mxPoint x="470" y="440" as="targetPoint" />
          </mxGeometry>
        </mxCell>
        <mxCell id="2upizIhYN-TkKk-zCFRQ-26" value="" style="endArrow=none;html=1;" edge="1" parent="2upizIhYN-TkKk-zCFRQ-1">
          <mxGeometry width="50" height="50" relative="1" as="geometry">
            <mxPoint x="470" y="440" as="sourcePoint" />
            <mxPoint x="230" y="440" as="targetPoint" />
          </mxGeometry>
        </mxCell>
        <mxCell id="2upizIhYN-TkKk-zCFRQ-27" value="" style="endArrow=none;html=1;strokeColor=#BEC8D2;dashed=1;" edge="1" parent="2upizIhYN-TkKk-zCFRQ-1">
          <mxGeometry width="50" height="50" relative="1" as="geometry">
            <mxPoint x="560" y="270" as="sourcePoint" />
            <mxPoint x="470" y="270" as="targetPoint" />
          </mxGeometry>
        </mxCell>
        <mxCell id="2upizIhYN-TkKk-zCFRQ-28" value="" style="endArrow=none;html=1;strokeColor=#BEC8D2;dashed=1;" edge="1" parent="2upizIhYN-TkKk-zCFRQ-1">
          <mxGeometry width="50" height="50" relative="1" as="geometry">
            <mxPoint x="560" y="440" as="sourcePoint" />
            <mxPoint x="480" y="440" as="targetPoint" />
          </mxGeometry>
        </mxCell>
        <mxCell id="2upizIhYN-TkKk-zCFRQ-29" value="" style="endArrow=classicThin;html=1;startArrow=classicThin;startFill=0;fillColor=#f5f5f5;strokeColor=#BEC8D2;endFill=0;" edge="1" parent="2upizIhYN-TkKk-zCFRQ-1">
          <mxGeometry width="50" height="50" relative="1" as="geometry">
            <mxPoint x="520" y="440" as="sourcePoint" />
            <mxPoint x="520" y="270" as="targetPoint" />
          </mxGeometry>
        </mxCell>
        <mxCell id="2upizIhYN-TkKk-zCFRQ-30" value="107 (binnen)" style="edgeLabel;html=1;align=center;verticalAlign=middle;resizable=0;points=[];" vertex="1" connectable="0" parent="2upizIhYN-TkKk-zCFRQ-29">
          <mxGeometry x="0.05" y="1" relative="1" as="geometry">
            <mxPoint as="offset" />
          </mxGeometry>
        </mxCell>
        <mxCell id="2upizIhYN-TkKk-zCFRQ-32" value="" style="rounded=0;whiteSpace=wrap;html=1;" vertex="1" parent="2upizIhYN-TkKk-zCFRQ-1">
          <mxGeometry x="250" y="480" width="210" height="110" as="geometry" />
        </mxCell>
        <mxCell id="2upizIhYN-TkKk-zCFRQ-33" value="" style="endArrow=none;html=1;" edge="1" parent="2upizIhYN-TkKk-zCFRQ-1">
          <mxGeometry width="50" height="50" relative="1" as="geometry">
            <mxPoint x="250" y="620" as="sourcePoint" />
            <mxPoint x="460" y="620" as="targetPoint" />
          </mxGeometry>
        </mxCell>
        <mxCell id="2upizIhYN-TkKk-zCFRQ-34" value="" style="endArrow=none;html=1;" edge="1" parent="2upizIhYN-TkKk-zCFRQ-1">
          <mxGeometry width="50" height="50" relative="1" as="geometry">
            <mxPoint x="260" y="630" as="sourcePoint" />
            <mxPoint x="270" y="620" as="targetPoint" />
          </mxGeometry>
        </mxCell>
        <mxCell id="2upizIhYN-TkKk-zCFRQ-35" value="" style="endArrow=none;html=1;" edge="1" parent="2upizIhYN-TkKk-zCFRQ-1">
          <mxGeometry width="50" height="50" relative="1" as="geometry">
            <mxPoint x="270" y="630" as="sourcePoint" />
            <mxPoint x="280" y="620" as="targetPoint" />
            <Array as="points">
              <mxPoint x="280" y="620" />
            </Array>
          </mxGeometry>
        </mxCell>
        <mxCell id="2upizIhYN-TkKk-zCFRQ-36" value="" style="endArrow=none;html=1;" edge="1" parent="2upizIhYN-TkKk-zCFRQ-1">
          <mxGeometry width="50" height="50" relative="1" as="geometry">
            <mxPoint x="280" y="630.0000000000001" as="sourcePoint" />
            <mxPoint x="290" y="620.0000000000001" as="targetPoint" />
          </mxGeometry>
        </mxCell>
        <mxCell id="2upizIhYN-TkKk-zCFRQ-37" value="" style="endArrow=none;html=1;" edge="1" parent="2upizIhYN-TkKk-zCFRQ-1">
          <mxGeometry width="50" height="50" relative="1" as="geometry">
            <mxPoint x="290" y="630.0000000000001" as="sourcePoint" />
            <mxPoint x="300" y="620.0000000000001" as="targetPoint" />
            <Array as="points">
              <mxPoint x="300" y="620" />
            </Array>
          </mxGeometry>
        </mxCell>
        <mxCell id="2upizIhYN-TkKk-zCFRQ-38" value="" style="endArrow=none;html=1;" edge="1" parent="2upizIhYN-TkKk-zCFRQ-1">
          <mxGeometry width="50" height="50" relative="1" as="geometry">
            <mxPoint x="300" y="630.0000000000001" as="sourcePoint" />
            <mxPoint x="310" y="620.0000000000001" as="targetPoint" />
          </mxGeometry>
        </mxCell>
        <mxCell id="2upizIhYN-TkKk-zCFRQ-39" value="" style="endArrow=none;html=1;" edge="1" parent="2upizIhYN-TkKk-zCFRQ-1">
          <mxGeometry width="50" height="50" relative="1" as="geometry">
            <mxPoint x="310" y="630.0000000000001" as="sourcePoint" />
            <mxPoint x="320" y="620.0000000000001" as="targetPoint" />
            <Array as="points">
              <mxPoint x="320" y="620" />
            </Array>
          </mxGeometry>
        </mxCell>
        <mxCell id="2upizIhYN-TkKk-zCFRQ-40" value="" style="endArrow=none;html=1;" edge="1" parent="2upizIhYN-TkKk-zCFRQ-1">
          <mxGeometry width="50" height="50" relative="1" as="geometry">
            <mxPoint x="320" y="630.0000000000001" as="sourcePoint" />
            <mxPoint x="330" y="620.0000000000001" as="targetPoint" />
          </mxGeometry>
        </mxCell>
        <mxCell id="2upizIhYN-TkKk-zCFRQ-41" value="" style="endArrow=none;html=1;" edge="1" parent="2upizIhYN-TkKk-zCFRQ-1">
          <mxGeometry width="50" height="50" relative="1" as="geometry">
            <mxPoint x="330" y="630.0000000000001" as="sourcePoint" />
            <mxPoint x="340" y="620.0000000000001" as="targetPoint" />
            <Array as="points">
              <mxPoint x="340" y="620" />
            </Array>
          </mxGeometry>
        </mxCell>
        <mxCell id="2upizIhYN-TkKk-zCFRQ-42" value="" style="endArrow=none;html=1;" edge="1" parent="2upizIhYN-TkKk-zCFRQ-1">
          <mxGeometry width="50" height="50" relative="1" as="geometry">
            <mxPoint x="330" y="630.0000000000001" as="sourcePoint" />
            <mxPoint x="340" y="620.0000000000001" as="targetPoint" />
          </mxGeometry>
        </mxCell>
        <mxCell id="2upizIhYN-TkKk-zCFRQ-43" value="" style="endArrow=none;html=1;" edge="1" parent="2upizIhYN-TkKk-zCFRQ-1">
          <mxGeometry width="50" height="50" relative="1" as="geometry">
            <mxPoint x="340" y="630.0000000000001" as="sourcePoint" />
            <mxPoint x="350" y="620.0000000000001" as="targetPoint" />
            <Array as="points">
              <mxPoint x="350" y="620" />
            </Array>
          </mxGeometry>
        </mxCell>
        <mxCell id="2upizIhYN-TkKk-zCFRQ-44" value="" style="endArrow=none;html=1;" edge="1" parent="2upizIhYN-TkKk-zCFRQ-1">
          <mxGeometry width="50" height="50" relative="1" as="geometry">
            <mxPoint x="350" y="630.0000000000001" as="sourcePoint" />
            <mxPoint x="360" y="620.0000000000001" as="targetPoint" />
          </mxGeometry>
        </mxCell>
        <mxCell id="2upizIhYN-TkKk-zCFRQ-45" value="" style="endArrow=none;html=1;" edge="1" parent="2upizIhYN-TkKk-zCFRQ-1">
          <mxGeometry width="50" height="50" relative="1" as="geometry">
            <mxPoint x="360" y="630.0000000000001" as="sourcePoint" />
            <mxPoint x="370" y="620.0000000000001" as="targetPoint" />
            <Array as="points">
              <mxPoint x="370" y="620" />
            </Array>
          </mxGeometry>
        </mxCell>
        <mxCell id="2upizIhYN-TkKk-zCFRQ-46" value="" style="endArrow=none;html=1;" edge="1" parent="2upizIhYN-TkKk-zCFRQ-1">
          <mxGeometry width="50" height="50" relative="1" as="geometry">
            <mxPoint x="370" y="630.0000000000001" as="sourcePoint" />
            <mxPoint x="380" y="620.0000000000001" as="targetPoint" />
          </mxGeometry>
        </mxCell>
        <mxCell id="2upizIhYN-TkKk-zCFRQ-47" value="" style="endArrow=none;html=1;" edge="1" parent="2upizIhYN-TkKk-zCFRQ-1">
          <mxGeometry width="50" height="50" relative="1" as="geometry">
            <mxPoint x="380" y="630.0000000000001" as="sourcePoint" />
            <mxPoint x="390" y="620.0000000000001" as="targetPoint" />
            <Array as="points">
              <mxPoint x="390" y="620" />
            </Array>
          </mxGeometry>
        </mxCell>
        <mxCell id="2upizIhYN-TkKk-zCFRQ-48" value="" style="endArrow=none;html=1;" edge="1" parent="2upizIhYN-TkKk-zCFRQ-1">
          <mxGeometry width="50" height="50" relative="1" as="geometry">
            <mxPoint x="390" y="630.0000000000001" as="sourcePoint" />
            <mxPoint x="400" y="620.0000000000001" as="targetPoint" />
          </mxGeometry>
        </mxCell>
        <mxCell id="2upizIhYN-TkKk-zCFRQ-49" value="" style="endArrow=none;html=1;" edge="1" parent="2upizIhYN-TkKk-zCFRQ-1">
          <mxGeometry width="50" height="50" relative="1" as="geometry">
            <mxPoint x="400" y="630.0000000000001" as="sourcePoint" />
            <mxPoint x="410" y="620.0000000000001" as="targetPoint" />
            <Array as="points">
              <mxPoint x="410" y="620" />
            </Array>
          </mxGeometry>
        </mxCell>
        <mxCell id="2upizIhYN-TkKk-zCFRQ-50" value="" style="endArrow=none;html=1;" edge="1" parent="2upizIhYN-TkKk-zCFRQ-1">
          <mxGeometry width="50" height="50" relative="1" as="geometry">
            <mxPoint x="414" y="630.0000000000001" as="sourcePoint" />
            <mxPoint x="424" y="620.0000000000001" as="targetPoint" />
          </mxGeometry>
        </mxCell>
        <mxCell id="2upizIhYN-TkKk-zCFRQ-51" value="" style="endArrow=none;html=1;" edge="1" parent="2upizIhYN-TkKk-zCFRQ-1">
          <mxGeometry width="50" height="50" relative="1" as="geometry">
            <mxPoint x="424" y="630.0000000000001" as="sourcePoint" />
            <mxPoint x="434" y="620.0000000000001" as="targetPoint" />
            <Array as="points">
              <mxPoint x="434" y="620" />
            </Array>
          </mxGeometry>
        </mxCell>
        <mxCell id="2upizIhYN-TkKk-zCFRQ-52" value="vloer" style="text;html=1;align=center;verticalAlign=middle;resizable=0;points=[];autosize=1;" vertex="1" parent="2upizIhYN-TkKk-zCFRQ-1">
          <mxGeometry x="460" y="620" width="40" height="20" as="geometry" />
        </mxCell>
        <mxCell id="2upizIhYN-TkKk-zCFRQ-53" value="radiator" style="text;html=1;align=center;verticalAlign=middle;resizable=0;points=[];autosize=1;" vertex="1" parent="2upizIhYN-TkKk-zCFRQ-1">
          <mxGeometry x="320" y="525" width="60" height="20" as="geometry" />
        </mxCell>
        <mxCell id="2upizIhYN-TkKk-zCFRQ-54" value="" style="endArrow=classicThin;html=1;startArrow=classicThin;startFill=0;fillColor=#f5f5f5;strokeColor=#BEC8D2;endFill=0;" edge="1" parent="2upizIhYN-TkKk-zCFRQ-1">
          <mxGeometry width="50" height="50" relative="1" as="geometry">
            <mxPoint x="240" y="620" as="sourcePoint" />
            <mxPoint x="240" y="480" as="targetPoint" />
          </mxGeometry>
        </mxCell>
        <mxCell id="2upizIhYN-TkKk-zCFRQ-55" value="106cm" style="edgeLabel;html=1;align=center;verticalAlign=middle;resizable=0;points=[];" vertex="1" connectable="0" parent="2upizIhYN-TkKk-zCFRQ-54">
          <mxGeometry x="0.05" y="1" relative="1" as="geometry">
            <mxPoint x="-9" y="-1.4" as="offset" />
          </mxGeometry>
        </mxCell>
      </root>
    </mxGraphModel>
  </diagram>
</mxfile>
